<svg width="1340" height="600" viewBox="0 0 1340 600" fill="none" xmlns="http://www.w3.org/2000/svg">
<g filter="url(#filter0_i_148_2287)">
<path d="M360.174 381V206.455H397.078V283.415H399.379L462.191 206.455H506.424L441.652 284.608L507.191 381H463.044L415.231 309.239L397.078 331.398V381H360.174Z" fill="#5012DD"/>
<path d="M283.792 381.302L223.004 214.289L270.569 214.289L331.357 381.302L283.792 381.302Z" fill="#5012DD"/>
<path d="M186.568 381.302L247.355 214.289L199.79 214.289L139.002 381.302L186.568 381.302Z" fill="#5012DD"/>
<circle cx="236.504" cy="352.5" r="17.5" fill="#BFB3FD"/>
<path d="M1012.79 390.3L952.004 223.287L999.569 223.287L1060.36 390.3L1012.79 390.3Z" fill="#5012DD"/>
<path d="M915.568 390.3L976.355 223.287L928.79 223.287L868.002 390.3L915.568 390.3Z" fill="#5012DD"/>
<circle cx="965.504" cy="361.498" r="17.5" fill="#FEC41F"/>
<path d="M638.987 210.455H675.89V323.807C675.89 336.534 672.851 347.67 666.771 357.216C660.748 366.761 652.311 374.205 641.458 379.545C630.606 384.83 617.964 387.472 603.532 387.472C589.044 387.472 576.373 384.83 565.521 379.545C554.669 374.205 546.231 366.761 540.208 357.216C534.186 347.67 531.174 336.534 531.174 323.807V210.455H568.078V320.653C568.078 327.301 569.527 333.21 572.424 338.381C575.379 343.551 579.527 347.614 584.868 350.568C590.208 353.523 596.43 355 603.532 355C610.691 355 616.913 353.523 622.197 350.568C627.538 347.614 631.657 343.551 634.555 338.381C637.51 333.21 638.987 327.301 638.987 320.653V210.455Z" fill="#5012DD"/>
<path d="M712.174 388V213.455H781.038C794.22 213.455 805.47 215.812 814.788 220.528C824.163 225.187 831.294 231.807 836.18 240.386C841.123 248.909 843.595 258.937 843.595 270.472C843.595 282.062 841.095 292.034 836.095 300.386C831.095 308.682 823.851 315.045 814.362 319.477C804.93 323.909 793.51 326.125 780.101 326.125H733.993V296.466H774.135C781.18 296.466 787.032 295.5 791.691 293.568C796.351 291.636 799.816 288.739 802.089 284.875C804.419 281.011 805.583 276.21 805.583 270.472C805.583 264.676 804.419 259.79 802.089 255.812C799.816 251.835 796.322 248.824 791.606 246.778C786.947 244.676 781.066 243.625 773.964 243.625H749.078V388H712.174ZM806.436 308.568L849.816 388H809.078L766.635 308.568H806.436Z" fill="#5012DD"/>
<path d="M1049.52 249.881V219.455H1192.88V249.881H1139.44V394H1102.96V249.881H1049.52Z" fill="#5012DD"/>
</g>
<defs>
<filter id="filter0_i_148_2287" x="-17" y="-19.4" width="1357" height="619.4" filterUnits="userSpaceOnUse" color-interpolation-filters="sRGB">
<feFlood flood-opacity="0" result="BackgroundImageFix"/>
<feBlend mode="normal" in="SourceGraphic" in2="BackgroundImageFix" result="shape"/>
<feColorMatrix in="SourceAlpha" type="matrix" values="0 0 0 0 0 0 0 0 0 0 0 0 0 0 0 0 0 0 127 0" result="hardAlpha"/>
<feOffset dx="-17" dy="-20"/>
<feGaussianBlur stdDeviation="9.7"/>
<feComposite in2="hardAlpha" operator="arithmetic" k2="-1" k3="1"/>
<feColorMatrix type="matrix" values="0 0 0 0 0 0 0 0 0 0 0 0 0 0 0 0 0 0 0.25 0"/>
<feBlend mode="normal" in2="shape" result="effect1_innerShadow_148_2287"/>
</filter>
</defs>
</svg>
