<svg width="127" height="142" viewBox="0 0 127 142" fill="none" xmlns="http://www.w3.org/2000/svg">
<path d="M117 53C122.523 53 127 57.4772 127 63V126C127 131.523 122.523 136 117 136H75.9062L67.0107 141.307C65.4632 142.23 61.5867 142.232 60.0332 141.31L51.0889 136H10C4.47715 136 0 131.523 0 126V63C0 57.4772 4.47715 53 10 53H117Z" fill="#3E2CA7"/>
<path d="M10 47.9409C10 46.1913 11.1327 44.6486 12.8178 44.178C17.8999 42.759 28.8309 40 37 40C47.9973 40 64 45 64 45V127C64 127 47.9973 122 37 122C29.9569 122 20.8607 124.051 15.23 125.526C12.6196 126.209 10 124.258 10 121.56V47.9409Z" fill="#F6F7F9"/>
<path d="M64 45C64 45 80.0027 40 91 40C99.1691 40 110.1 42.759 115.182 44.178C116.867 44.6486 118 46.1913 118 47.9409V121.56C118 124.258 115.38 126.209 112.77 125.526C107.139 124.051 98.0431 122 91 122C80.0027 122 64 127 64 127V45Z" fill="white"/>
<rect x="21" y="76" width="30" height="5" rx="2.5" fill="#C5CCFF"/>
<rect x="21" y="65" width="6" height="5" rx="2.5" fill="#C5CCFF"/>
<rect x="21" y="87" width="30" height="5" rx="2.5" fill="#C5CCFF"/>
<rect x="21" y="98" width="30" height="5" rx="2.5" fill="#C5CCFF"/>
<rect x="21" y="109" width="30" height="5" rx="2.5" fill="#C5CCFF"/>
<rect width="10" height="5" rx="2.5" transform="matrix(-1 0 0 1 31 54)" fill="#C5CCFF"/>
<rect x="101" y="65" width="6" height="5" rx="2.5" fill="#C5CCFF"/>
<rect width="30" height="5" rx="2.5" transform="matrix(-1 0 0 1 107 76)" fill="#C5CCFF"/>
<rect width="30" height="5" rx="2.5" transform="matrix(-1 0 0 1 107 87)" fill="#C5CCFF"/>
<rect width="10" height="5" rx="2.5" transform="matrix(-1 0 0 1 107 54)" fill="#C5CCFF"/>
<rect width="30" height="5" rx="2.5" transform="matrix(-1 0 0 1 107 98)" fill="#C5CCFF"/>
<rect width="30" height="5" rx="2.5" transform="matrix(-1 0 0 1 107 109)" fill="#C5CCFF"/>
<path d="M92.4667 59.1L74 36.6667V16.6667H77.3333C79.1667 16.6667 80.6667 15.1667 80.6667 13.3333C80.6667 11.5 79.1667 10 77.3333 10H50.6667C48.8333 10 47.3333 11.5 47.3333 13.3333C47.3333 15.1667 48.8333 16.6667 50.6667 16.6667H54V36.6667L35.5333 59.1C34.4667 60.4 34 61.8667 34 63.3333C34.0333 66.7667 36.7333 70 40.6667 70H87.3333C91.3 70 94 66.7667 94 63.3333C94 61.8667 93.5333 60.4 92.4667 59.1Z" fill="#FBD300"/>
</svg>
