<svg width="160" height="160" viewBox="0 0 160 160" fill="none" xmlns="http://www.w3.org/2000/svg">
<circle cx="80" cy="80" r="75" fill="#DFE3FF"/>
<rect x="17.5" y="17.5" width="125" height="125" rx="10" fill="white"/>
<path d="M17.5 27.5C17.5 21.9772 21.9772 17.5 27.5 17.5H132.5C138.023 17.5 142.5 21.9772 142.5 27.5V42.5H17.5V27.5Z" fill="#3E2CA7"/>
<path d="M29.9747 117.497C30.0447 115.893 31.8243 114.967 33.178 115.829L42.3154 121.651C43.6691 122.513 43.5816 124.517 42.1579 125.259L32.5479 130.261C31.1242 131.002 29.4321 129.924 29.5021 128.321L29.9747 117.497Z" fill="#5841EA"/>
<rect x="49" y="121" width="81" height="5" rx="2.5" fill="#DFE3FF"/>
<rect x="68" y="117" width="4" height="13" rx="2" fill="#5841EA"/>
<circle cx="30" cy="30" r="2.5" fill="#DFE3FF"/>
<circle cx="37.5" cy="30" r="2.5" fill="#DFE3FF"/>
<circle cx="45" cy="30" r="2.5" fill="#DFE3FF"/>
<path d="M95.3627 101.408C93.013 104.493 96.5003 107.98 99.5853 105.63C101.935 102.545 98.4477 99.0579 95.3627 101.408Z" fill="#FBD300"/>
<g opacity="0.25" style="mix-blend-mode:screen">
<path d="M96.2854 102.328C96.6606 101.953 96.8127 101.497 96.6251 101.309C96.4375 101.122 95.9813 101.274 95.6061 101.649C95.2309 102.024 95.0788 102.48 95.2664 102.668C95.454 102.855 95.9102 102.703 96.2854 102.328Z" fill="black"/>
</g>
<path d="M96.1475 79.4258H106.936" stroke="#3E2CA7" stroke-width="2" stroke-miterlimit="10"/>
<path d="M52.1221 79.5117H62.9109" stroke="#3E2CA7" stroke-width="2" stroke-miterlimit="10"/>
<path d="M63.708 57.7031L70.8141 65.8212" stroke="#3E2CA7" stroke-width="2" stroke-miterlimit="10"/>
<path d="M95.8727 57.3555L88.7666 65.4736" stroke="#3E2CA7" stroke-width="2" stroke-miterlimit="10"/>
<path d="M95.6979 101.231L88.5918 93.1133" stroke="#3E2CA7" stroke-width="2" stroke-miterlimit="10"/>
<path d="M63.5342 101.583L70.6403 93.4648" stroke="#3E2CA7" stroke-width="2" stroke-miterlimit="10"/>
<path d="M71.7568 65.4922L88.6357 65.666L89.2354 65.6729L89.5127 66.2041L96.125 78.9072L96.3555 79.3506L96.1396 79.8018L89.9619 92.6787L89.6895 93.2461H71.0391L70.7637 92.6914L64.4121 79.9014L64.1914 79.4561L64.4121 79.0117L70.8506 66.0479L71.1299 65.4854L71.7568 65.4922Z" stroke="#3E2CA7" stroke-width="2" stroke-miterlimit="10"/>
<path d="M72.2666 68.7264L72.6565 67.9414L73.5329 67.9505" stroke="#3E2CA7" stroke-width="0.47812" stroke-miterlimit="10"/>
<path d="M74.167 67.9414L86.5218 68.0688" stroke="#3E2CA7" stroke-width="0.47812" stroke-miterlimit="10" stroke-dasharray="0.96 0.96"/>
<path d="M86.8389 68.0859L87.7153 68.095L88.12 68.8724" stroke="#3E2CA7" stroke-width="0.47812" stroke-miterlimit="10"/>
<path d="M88.4531 69.2422L93.0936 78.1569" stroke="#3E2CA7" stroke-width="0.47812" stroke-miterlimit="10" stroke-dasharray="0.96 0.96"/>
<path d="M93.209 78.6523L93.6137 79.4298L93.2346 80.2201" stroke="#3E2CA7" stroke-width="0.47812" stroke-miterlimit="10"/>
<path d="M92.9554 80.8008L88.6221 89.8337" stroke="#3E2CA7" stroke-width="0.47812" stroke-miterlimit="10" stroke-dasharray="0.96 0.96"/>
<path d="M88.4822 90.125L88.1031 90.9152H87.2266" stroke="#3E2CA7" stroke-width="0.47812" stroke-miterlimit="10"/>
<path d="M86.676 90.918H73.7314" stroke="#3E2CA7" stroke-width="0.47812" stroke-miterlimit="10" stroke-dasharray="0.96 0.96"/>
<path d="M73.4558 90.9178H72.5793L72.1895 90.1328" stroke="#3E2CA7" stroke-width="0.47812" stroke-miterlimit="10"/>
<path d="M71.9016 89.5537L67.4463 80.582" stroke="#3E2CA7" stroke-width="0.47812" stroke-miterlimit="10" stroke-dasharray="0.96 0.96"/>
<path d="M67.3029 80.2927L66.9131 79.5077L67.303 78.7227" stroke="#3E2CA7" stroke-width="0.47812" stroke-miterlimit="10"/>
<path d="M67.5391 78.2461L72.1485 68.9648" stroke="#3E2CA7" stroke-width="0.47812" stroke-miterlimit="10" stroke-dasharray="0.96 0.96"/>
<path d="M70.9671 70.5904C73.6154 70.5904 75.7623 68.4435 75.7623 65.7952C75.7623 63.1469 73.6154 61 70.9671 61C68.3188 61 66.1719 63.1469 66.1719 65.7952C66.1719 68.4435 68.3188 70.5904 70.9671 70.5904Z" fill="#5841EA"/>
<g opacity="0.25" style="mix-blend-mode:screen">
<path d="M68.989 63.8164C69.6132 63.1922 69.8662 62.4332 69.5541 62.121C69.242 61.8089 68.483 62.0619 67.8588 62.6862C67.2345 63.3104 66.9815 64.0694 67.2936 64.3815C67.6058 64.6936 68.3648 64.4406 68.989 63.8164Z" fill="black"/>
</g>
<path d="M88.0608 70.5904C90.7092 70.5904 92.8561 68.4435 92.8561 65.7952C92.8561 63.1469 90.7092 61 88.0608 61C85.4125 61 83.2656 63.1469 83.2656 65.7952C83.2656 68.4435 85.4125 70.5904 88.0608 70.5904Z" fill="#5841EA"/>
<g opacity="0.25" style="mix-blend-mode:screen">
<path d="M86.0828 63.8164C86.707 63.1922 86.96 62.4332 86.6479 62.121C86.3358 61.8089 85.5767 62.0619 84.9525 62.6862C84.3283 63.3104 84.0753 64.0694 84.3874 64.3815C84.6995 64.6936 85.4585 64.4406 86.0828 63.8164Z" fill="black"/>
</g>
<path d="M95.5765 84.2936C98.2248 84.2936 100.372 82.1467 100.372 79.4983C100.372 76.85 98.2248 74.7031 95.5765 74.7031C92.9281 74.7031 90.7812 76.85 90.7812 79.4983C90.7812 82.1467 92.9281 84.2936 95.5765 84.2936Z" fill="#5841EA"/>
<g opacity="0.25" style="mix-blend-mode:screen">
<path d="M93.5984 77.5195C94.2226 76.8953 94.4756 76.1363 94.1635 75.8242C93.8514 75.5121 93.0923 75.7651 92.4681 76.3893C91.8439 77.0135 91.5909 77.7725 91.903 78.0847C92.2151 78.3968 92.9742 78.1438 93.5984 77.5195Z" fill="black"/>
</g>
<path d="M64.7776 84.2936C67.426 84.2936 69.5729 82.1467 69.5729 79.4983C69.5729 76.85 67.426 74.7031 64.7776 74.7031C62.1293 74.7031 59.9824 76.85 59.9824 79.4983C59.9824 82.1467 62.1293 84.2936 64.7776 84.2936Z" fill="#5841EA"/>
<g opacity="0.25" style="mix-blend-mode:screen">
<path d="M62.7996 77.5195C63.4238 76.8953 63.6768 76.1363 63.3647 75.8242C63.0526 75.5121 62.2935 75.7651 61.6693 76.3893C61.0451 77.0135 60.7921 77.7725 61.1042 78.0847C61.4163 78.3968 62.1753 78.1438 62.7996 77.5195Z" fill="black"/>
</g>
<path d="M70.9671 98.0006C73.6154 98.0006 75.7623 95.8537 75.7623 93.2054C75.7623 90.557 73.6154 88.4102 70.9671 88.4102C68.3188 88.4102 66.1719 90.557 66.1719 93.2054C66.1719 95.8537 68.3188 98.0006 70.9671 98.0006Z" fill="#5841EA"/>
<g opacity="0.25" style="mix-blend-mode:screen">
<path d="M68.989 91.2266C69.6132 90.6024 69.8662 89.8433 69.5541 89.5312C69.242 89.2191 68.483 89.4721 67.8588 90.0963C67.2345 90.7205 66.9815 91.4796 67.2936 91.7917C67.6058 92.1038 68.3648 91.8508 68.989 91.2266Z" fill="black"/>
</g>
<path d="M88.2083 98.0006C90.8566 98.0006 93.0035 95.8537 93.0035 93.2054C93.0035 90.557 90.8566 88.4102 88.2083 88.4102C85.56 88.4102 83.4131 90.557 83.4131 93.2054C83.4131 95.8537 85.56 98.0006 88.2083 98.0006Z" fill="#5841EA"/>
<g opacity="0.25" style="mix-blend-mode:screen">
<path d="M86.2302 91.2266C86.8544 90.6024 87.1074 89.8433 86.7953 89.5312C86.4832 89.2191 85.7242 89.4721 85.1 90.0963C84.4758 90.7205 84.2227 91.4796 84.5349 91.7917C84.847 92.1038 85.606 91.8508 86.2302 91.2266Z" fill="black"/>
</g>
<path d="M106.412 77.392C104.063 80.477 107.55 83.9643 110.635 81.6146C112.985 78.5296 109.497 75.0423 106.412 77.392Z" fill="#FBD300"/>
<g opacity="0.25" style="mix-blend-mode:screen">
<path d="M107.335 78.3125C107.71 77.9373 107.862 77.4811 107.675 77.2935C107.487 77.1059 107.031 77.258 106.656 77.6332C106.281 78.0084 106.129 78.4646 106.316 78.6522C106.504 78.8398 106.96 78.6877 107.335 78.3125Z" fill="black"/>
</g>
<path d="M93.8832 54.7709C91.5335 57.8559 95.0208 61.3432 98.1058 58.9935C100.455 55.9085 96.9682 52.4212 93.8832 54.7709Z" fill="#FBD300"/>
<g opacity="0.25" style="mix-blend-mode:screen">
<path d="M94.8059 55.6914C95.1811 55.3162 95.3332 54.86 95.1456 54.6724C94.958 54.4848 94.5018 54.6369 94.1266 55.0121C93.7514 55.3873 93.5993 55.8435 93.7869 56.0311C93.9745 56.2187 94.4307 56.0666 94.8059 55.6914Z" fill="black"/>
</g>
<path d="M61.6039 55.3802C59.2542 58.4652 62.7415 61.9525 65.8265 59.6029C68.1762 56.5179 64.6889 53.0306 61.6039 55.3802Z" fill="#FBD300"/>
<g opacity="0.25" style="mix-blend-mode:screen">
<path d="M62.5266 56.3008C62.9018 55.9256 63.0539 55.4694 62.8663 55.2818C62.6787 55.0942 62.2225 55.2463 61.8473 55.6214C61.4721 55.9966 61.32 56.4529 61.5076 56.6404C61.6952 56.828 62.1514 56.676 62.5266 56.3008Z" fill="black"/>
</g>
<path d="M49.7709 77.306C47.4212 80.391 50.9085 83.8783 53.9935 81.5286C56.3431 78.4436 52.8559 74.9563 49.7709 77.306Z" fill="#FBD300"/>
<g opacity="0.25" style="mix-blend-mode:screen">
<path d="M50.6936 78.2305C51.0688 77.8553 51.2209 77.399 51.0333 77.2115C50.8457 77.0239 50.3895 77.1759 50.0143 77.5511C49.6391 77.9263 49.487 78.3825 49.6746 78.5701C49.8622 78.7577 50.3184 78.6056 50.6936 78.2305Z" fill="black"/>
</g>
<path d="M60.2982 100.622C57.9485 103.707 61.4358 107.195 64.5208 104.845C66.8705 101.76 63.3832 98.2728 60.2982 100.622Z" fill="#FBD300"/>
<g opacity="0.25" style="mix-blend-mode:screen">
<path d="M61.221 101.543C61.5962 101.168 61.7482 100.712 61.5606 100.524C61.373 100.336 60.9168 100.488 60.5416 100.864C60.1665 101.239 60.0144 101.695 60.202 101.883C60.3896 102.07 60.8458 101.918 61.221 101.543Z" fill="black"/>
</g>
</svg>
