<svg width="160" height="160" viewBox="0 0 160 160" fill="none" xmlns="http://www.w3.org/2000/svg">
<g clip-path="url(#clip0_19_1139)">
<circle cx="80" cy="80" r="75" fill="#DFE3FF"/>
<rect x="62" y="33" width="68" height="89" rx="10" fill="#F6F7F9"/>
<path d="M62 43C62 37.4772 66.4772 33 72 33H120C125.523 33 130 37.4772 130 43V51H62V43Z" fill="#362B84"/>
<circle cx="30" cy="30" r="2.5" fill="#C5CCFF"/>
<circle cx="37.5" cy="30" r="2.5" fill="#C5CCFF"/>
<circle cx="45" cy="30" r="2.5" fill="#C5CCFF"/>
<rect x="18" y="17" width="96" height="125" rx="10" fill="white"/>
<path d="M18 27C18 21.4772 22.4772 17 28 17H104C109.523 17 114 21.4772 114 27V42H18V27Z" fill="#3E2CA7"/>
<circle cx="30.5" cy="29.5" r="2.5" fill="#DFE3FF"/>
<circle cx="38" cy="29.5" r="2.5" fill="#DFE3FF"/>
<circle cx="45.5" cy="29.5" r="2.5" fill="#DFE3FF"/>
<rect x="48" y="71" width="54" height="5" rx="2.5" fill="#DFE3FF"/>
<rect x="48" y="92" width="54" height="5" rx="2.5" fill="#DFE3FF"/>
<rect x="48" y="113" width="54" height="5" rx="2.5" fill="#DFE3FF"/>
<path d="M32.3981 77.3605H30.3701L33.5381 68.4805H35.4341L38.5901 77.3605H36.5261L35.9021 75.4885H33.0341L32.3981 77.3605ZM34.2341 71.9605L33.5981 73.8565H35.3501L34.7141 71.9605C34.6181 71.6605 34.5101 71.3125 34.4741 71.0965C34.4381 71.3005 34.3421 71.6365 34.2341 71.9605Z" fill="#101566"/>
<path d="M34.3281 119.664C31.6641 119.664 29.9961 117.9 29.9961 115.092C29.9961 112.32 31.7601 110.496 34.4121 110.496C36.6321 110.496 38.2281 111.768 38.5041 113.76H36.4521C36.1881 112.872 35.4321 112.368 34.3641 112.368C32.9241 112.368 32.0481 113.388 32.0481 115.08C32.0481 116.748 32.9361 117.792 34.3641 117.792C35.4561 117.792 36.2601 117.252 36.5001 116.376H38.5161C38.2041 118.356 36.5481 119.664 34.3281 119.664Z" fill="#101566"/>
<path d="M114 103.969C100.74 103.969 90 114.709 90 127.969C90 141.229 100.74 151.969 114 151.969C127.26 151.969 138 141.229 138 127.969C138 114.709 127.26 103.969 114 103.969ZM126.75 140.689C119.7 147.709 108.3 147.709 101.28 140.689L114 127.969V109.969C118.62 109.969 123.21 111.739 126.72 115.249C133.77 122.269 133.77 133.669 126.75 140.689Z" fill="white"/>
<path d="M126.72 115.249C123.21 111.739 118.62 109.969 114 109.969V127.969L101.28 140.689C108.3 147.709 119.7 147.709 126.75 140.689C133.77 133.669 133.77 122.269 126.72 115.249ZM114 97.9688C97.44 97.9688 84 111.409 84 127.969C84 144.529 97.44 157.969 114 157.969C130.56 157.969 144 144.529 144 127.969C144 111.409 130.56 97.9688 114 97.9688ZM114 151.969C100.74 151.969 90 141.229 90 127.969C90 114.709 100.74 103.969 114 103.969C127.26 103.969 138 114.709 138 127.969C138 141.229 127.26 151.969 114 151.969Z" fill="#5841EA"/>
<path d="M34.9997 88.332C31.3197 88.332 28.333 91.3187 28.333 94.9987C28.333 98.6787 31.3197 101.665 34.9997 101.665C38.6797 101.665 41.6663 98.6787 41.6663 94.9987C41.6663 91.3187 38.6797 88.332 34.9997 88.332ZM33.193 97.8587L30.7997 95.4654C30.5397 95.2054 30.5397 94.7854 30.7997 94.5254C31.0597 94.2654 31.4797 94.2654 31.7397 94.5254L33.6663 96.4454L38.253 91.8587C38.513 91.5987 38.933 91.5987 39.193 91.8587C39.453 92.1187 39.453 92.5387 39.193 92.7987L34.133 97.8587C33.8797 98.1187 33.453 98.1187 33.193 97.8587Z" fill="#FBD300"/>
</g>
<defs>
<clipPath id="clip0_19_1139">
<rect width="160" height="160" fill="white"/>
</clipPath>
</defs>
</svg>
