<svg width="62" height="65" viewBox="0 0 62 65" fill="none" xmlns="http://www.w3.org/2000/svg">
<rect width="61.2" height="64.8" rx="3.6" fill="#DFE3FF"/>
<path d="M0 3.6C0 1.61178 1.61177 0 3.6 0H57.6C59.5882 0 61.2 1.61177 61.2 3.6V9.9H0V3.6Z" fill="#3E2CA7"/>
<rect x="3.59961" y="4.5" width="54" height="9.9" rx="1.8" fill="#FBD300"/>
<rect x="46.7998" y="18" width="10.8" height="5.4" rx="1.8" fill="#FBA000"/>
<rect x="32.4004" y="18" width="10.8" height="5.4" rx="1.8" fill="#FBA000"/>
<rect x="3.59961" y="27" width="9" height="9" rx="1.8" fill="#7D7FFC"/>
<rect x="3.59961" y="39.6016" width="9" height="9" rx="1.8" fill="#7D7FFC"/>
<rect x="3.59961" y="52.1992" width="9" height="9" rx="1.8" fill="#7D7FFC"/>
<rect x="18" y="27" width="9" height="9" rx="1.8" fill="#7D7FFC"/>
<rect x="18" y="39.6016" width="9" height="9" rx="1.8" fill="#7D7FFC"/>
<rect x="18" y="52.1992" width="9" height="9" rx="1.8" fill="#7D7FFC"/>
<rect x="33.2998" y="27" width="9" height="9" rx="1.8" fill="#7D7FFC"/>
<rect x="33.2998" y="39.6016" width="9" height="9" rx="1.8" fill="#7D7FFC"/>
<rect x="33.2998" y="52.1992" width="9" height="9" rx="1.8" fill="#7D7FFC"/>
<rect x="48.5996" y="27" width="9" height="9" rx="1.8" fill="#7D7FFC"/>
<rect x="48.5996" y="39.6016" width="9" height="21.6" rx="1.8" fill="#EE1908"/>
</svg>
