<svg width="160" height="160" viewBox="0 0 160 160" fill="none" xmlns="http://www.w3.org/2000/svg">
<circle cx="80" cy="80" r="75" fill="#EDF1FF"/>
<circle cx="30" cy="30" r="2.5" fill="#EDF1FF"/>
<circle cx="37.5" cy="30" r="2.5" fill="#EDF1FF"/>
<circle cx="45" cy="30" r="2.5" fill="#EDF1FF"/>
<path fill-rule="evenodd" clip-rule="evenodd" d="M107 13C112.522 13 117 17.4772 117 23V43C117 48.5228 112.522 53 107 53H34.9995C29.4767 53 24.9995 48.5228 24.9995 43V38.9043L17.0445 34.3223C15.6536 33.5212 15.6514 31.515 17.0406 30.7109L24.9995 26.1025V23C24.9995 17.4772 29.4767 13 34.9995 13H107Z" fill="white"/>
<rect width="64" height="8" transform="translate(38 29)" fill="white"/>
<circle cx="42" cy="33" r="4" fill="#5841EA"/>
<circle cx="56" cy="33" r="4" fill="#5841EA"/>
<circle cx="70" cy="33" r="4" fill="#5841EA"/>
<circle cx="84" cy="33" r="4" fill="#5841EA"/>
<circle cx="98" cy="33" r="4" fill="#5841EA"/>
<path fill-rule="evenodd" clip-rule="evenodd" d="M118 105C123.522 105 128 109.477 128 115V135C128 140.523 123.522 145 118 145H31.9995C26.4767 145 21.9995 140.523 21.9995 135V130.904L14.0445 126.322C12.6536 125.521 12.6514 123.515 14.0406 122.711L21.9995 118.103V115C21.9995 109.477 26.4767 105 31.9995 105H118Z" fill="#3E2CA7"/>
<circle cx="39" cy="125" r="4" fill="#EDF1FF"/>
<circle cx="53" cy="125" r="4" fill="#EDF1FF"/>
<circle cx="67" cy="125" r="4" fill="#EDF1FF"/>
<circle cx="81" cy="125" r="4" fill="#EDF1FF"/>
<circle cx="95" cy="125" r="4" fill="#EDF1FF"/>
<circle cx="109" cy="125" r="4" fill="#EDF1FF"/>
<path fill-rule="evenodd" clip-rule="evenodd" d="M84.9995 59C79.4767 59 74.9995 63.4772 74.9995 69V89C74.9995 94.5228 79.4767 99 84.9995 99H138.999C144.522 99 148.999 94.5228 148.999 89V84.9043L156.955 80.3223C158.345 79.5212 158.348 77.515 156.958 76.7109L148.999 72.1025V69C148.999 63.4772 144.522 59 138.999 59H84.9995Z" fill="#FBD300"/>
<rect width="50" height="8" transform="matrix(-1 0 0 1 135.999 75)" fill="#FBD300"/>
<circle cx="4" cy="4" r="4" transform="matrix(-1 0 0 1 135.999 75)" fill="#3E2CA7"/>
<circle cx="4" cy="4" r="4" transform="matrix(-1 0 0 1 121.999 75)" fill="#3E2CA7"/>
<circle cx="4" cy="4" r="4" transform="matrix(-1 0 0 1 107.999 75)" fill="#3E2CA7"/>
<circle cx="4" cy="4" r="4" transform="matrix(-1 0 0 1 93.999 75)" fill="#3E2CA7"/>
<path d="M60.7444 93.7701C60.7444 94.8747 59.8489 95.7701 58.7444 95.7701H52.7566C51.6521 95.7701 50.7566 94.8747 50.7566 93.7701V93.6737C50.7566 85.3791 55.7955 81.0951 60.5644 77.358C64.6135 74.0766 68.3027 70.9775 68.3027 65.6909C68.3027 59.4927 64.5235 55.391 58.2249 55.391C52.4617 55.391 48.3095 59.3225 47.5518 65.2449C47.4117 66.3405 46.532 67.2404 45.4274 67.2404H38C36.8954 67.2404 35.9914 66.3413 36.0757 65.2399C36.9918 53.274 46.1259 45 58.4949 45C71.9018 45 80 52.8388 80 64.9617C80 74.7147 73.7914 79.3633 68.5726 83.1004C64.1636 86.2906 60.7444 89.0251 60.7444 93.6737V93.7701ZM56.1554 114C52.1063 114 48.8671 110.719 48.8671 106.799C48.8671 102.789 52.1063 99.5073 56.1554 99.5073C60.1145 99.5073 63.4438 102.789 63.4438 106.799C63.4438 110.627 60.1145 114 56.1554 114Z" fill="#685FF5"/>
</svg>
