<svg width="160" height="160" viewBox="0 0 160 160" fill="none" xmlns="http://www.w3.org/2000/svg">
<g clip-path="url(#clip0_19_1168)">
<circle cx="80" cy="80" r="75" fill="#EDF1FF"/>
<path d="M116.5 104C104.684 104 81 109.85 81 121.5V129C81 131.75 83.2821 134 86.0714 134H146.929C149.718 134 152 131.75 152 129V121.5C152 109.85 128.316 104 116.5 104Z" fill="#3E2CA7"/>
<path d="M61.5 92C44.025 92 9 100.775 9 118.25V129.5C9 133.625 12.375 137 16.5 137H106.5C110.625 137 114 133.625 114 129.5V118.25C114 100.775 78.975 92 61.5 92Z" fill="#5841EA"/>
<path d="M84 54.5C84 66.95 74.0084 77 61.5376 77C49.0668 77 39 66.95 39 54.5C39 42.05 49.0668 32 61.5376 32C74.0084 32 84 42.05 84 54.5Z" fill="#5841EA"/>
<path d="M132 78C132 86.3 125.117 93 116.526 93C107.935 93 101 86.3 101 78C101 69.7 107.935 63 116.526 63C125.117 63 132 69.7 132 78Z" fill="#3E2CA7"/>
<path d="M37.875 112.25H85.125V152.75H37.875V112.25Z" fill="white"/>
<path d="M91.875 105.5H31.125C27.4125 105.5 24.375 108.537 24.375 112.25V152.75C24.375 156.463 27.4125 159.5 31.125 159.5H91.875C95.5875 159.5 98.5912 156.463 98.5912 152.75L98.625 112.25C98.625 108.537 95.5875 105.5 91.875 105.5ZM85.125 152.75H37.875V112.25H85.125V152.75Z" fill="#3E2CA7"/>
<rect width="24" height="4" rx="2" transform="matrix(-1 0 0 1 68 118)" fill="#C5CCFF"/>
<rect width="24" height="4" rx="2" transform="matrix(-1 0 0 1 68 126)" fill="#C5CCFF"/>
<rect width="35" height="4" rx="2" transform="matrix(-1 0 0 1 79 134)" fill="#C5CCFF"/>
<rect width="35" height="4" rx="2" transform="matrix(-1 0 0 1 79 142)" fill="#C5CCFF"/>
<path d="M74.2471 120.197V127.544C74.2471 128.22 74.7787 128.752 75.4554 128.752H82.8021C83.1162 128.752 83.4304 128.631 83.6479 128.39L110.038 102.024L100.975 92.9613L74.6096 119.327C74.3679 119.569 74.2471 119.859 74.2471 120.197ZM117.046 95.0155C117.989 94.073 117.989 92.5505 117.046 91.608L111.391 85.953C110.449 85.0105 108.926 85.0105 107.984 85.953L103.561 90.3755L112.624 99.438L117.046 95.0155Z" fill="#FBD300"/>
</g>
<defs>
<clipPath id="clip0_19_1168">
<rect width="160" height="160" fill="white"/>
</clipPath>
</defs>
</svg>
