<svg width="19" height="19" viewBox="0 0 19 19" fill="none" xmlns="http://www.w3.org/2000/svg">
<g clip-path="url(#clip0_47_14473)">
<path d="M6.61924 0.623401C4.72084 1.28197 3.08367 2.53196 1.94819 4.18976C0.812718 5.84757 0.238789 7.8258 0.310709 9.8339C0.382628 11.842 1.09661 13.7741 2.34777 15.3464C3.59893 16.9188 5.32133 18.0484 7.26197 18.5695C8.8353 18.9755 10.4837 18.9933 12.0654 18.6214C13.4983 18.2996 14.8231 17.6111 15.9099 16.6235C17.0412 15.5642 17.8622 14.2165 18.2849 12.7255C18.7444 11.1041 18.8261 9.39893 18.5239 7.74098H9.68893V11.4059H14.8056C14.7033 11.9904 14.4842 12.5483 14.1613 13.0462C13.8384 13.544 13.4184 13.9717 12.9263 14.3034C12.3015 14.7167 11.5972 14.9948 10.8586 15.1198C10.1178 15.2576 9.358 15.2576 8.61721 15.1198C7.86639 14.9646 7.15614 14.6547 6.53166 14.2099C5.52844 13.4997 4.77517 12.4909 4.37932 11.3272C3.97678 10.1418 3.97678 8.85664 4.37932 7.67121C4.66109 6.84028 5.1269 6.08373 5.74197 5.45801C6.44585 4.72881 7.33698 4.20757 8.3176 3.95148C9.29821 3.6954 10.3304 3.71436 11.301 4.00629C12.0591 4.23903 12.7524 4.64567 13.3256 5.19379C13.9026 4.61983 14.4785 4.04439 15.0535 3.46746C15.3503 3.15723 15.6739 2.86184 15.9663 2.54418C15.0914 1.72997 14.0644 1.09641 12.9442 0.679807C10.9042 -0.0609111 8.6721 -0.0808172 6.61924 0.623401Z" fill="white"/>
<path d="M6.6193 0.624122C8.67199 -0.0805745 10.9041 -0.0611924 12.9442 0.679044C14.0646 1.09847 15.0912 1.73508 15.9649 2.55233C15.668 2.86998 15.3548 3.16686 15.052 3.47561C14.4761 4.05055 13.9007 4.62352 13.3257 5.19451C12.7525 4.64639 12.0592 4.23975 11.301 4.00701C10.3308 3.71406 9.29862 3.694 8.31775 3.94904C7.33687 4.20407 6.4452 4.72435 5.74055 5.45279C5.12547 6.07851 4.65966 6.83507 4.37789 7.666L1.30078 5.28357C2.4022 3.09941 4.30924 1.42869 6.6193 0.624122Z" fill="#E33629"/>
<path d="M0.48484 7.64531C0.65023 6.82563 0.924814 6.03184 1.30125 5.28516L4.37836 7.67352C3.97581 8.85895 3.97581 10.1441 4.37836 11.3295C3.35315 12.1212 2.32744 12.9168 1.30125 13.7164C0.358891 11.8406 0.0714896 9.7034 0.48484 7.64531Z" fill="#F8BD00"/>
<path d="M9.68816 7.74219H18.5232C18.8254 9.40013 18.7436 11.1053 18.2842 12.7267C17.8615 14.2177 17.0404 15.5654 15.9092 16.6247C14.9161 15.8498 13.9186 15.0809 12.9256 14.3061C13.4179 13.974 13.8381 13.5459 14.161 13.0475C14.484 12.5491 14.7029 11.9907 14.8048 11.4056H9.68816C9.68668 10.1855 9.68816 8.96383 9.68816 7.74219Z" fill="#587DBD"/>
<path d="M1.29688 13.715C2.32307 12.9233 3.34878 12.1277 4.37398 11.3281C4.77062 12.4922 5.52498 13.5011 6.5293 14.2108C7.15571 14.6535 7.86751 14.9609 8.6193 15.1133C9.36008 15.251 10.1199 15.251 10.8607 15.1133C11.5993 14.9883 12.3036 14.7102 12.9284 14.2969C13.9215 15.0717 14.919 15.8406 15.912 16.6155C14.8253 17.6037 13.5005 18.2926 12.0675 18.6149C10.4858 18.9868 8.83739 18.9689 7.26406 18.563C6.01971 18.2307 4.85741 17.645 3.85 16.8426C2.78372 15.996 1.91282 14.9292 1.29688 13.715Z" fill="#319F43"/>
</g>
<defs>
<clipPath id="clip0_47_14473">
<rect width="19" height="19" fill="white"/>
</clipPath>
</defs>
</svg>
