<svg width="30" height="30" viewBox="0 0 30 30" fill="none" xmlns="http://www.w3.org/2000/svg">
<path d="M26.6951 6.16669L15.4451 2.41669C15.157 2.31944 14.8449 2.31944 14.5568 2.41669L3.30683 6.16669C3.03839 6.2556 2.803 6.42337 2.63136 6.6481C2.45973 6.87283 2.35984 7.14408 2.34472 7.42646C2.34343 7.45105 2.34343 7.47569 2.34472 7.50028V16.8753C2.34472 17.2482 2.49288 17.6059 2.7566 17.8697C3.02032 18.1334 3.37801 18.2815 3.75097 18.2815C4.12393 18.2815 4.48162 18.1334 4.74534 17.8697C5.00906 17.6059 5.15722 17.2482 5.15722 16.8753V9.45146L7.93574 10.3772C7.07342 12.0278 6.81717 13.9285 7.21158 15.7485C7.60598 17.5685 8.62608 19.1926 10.0943 20.3382C8.17295 21.2857 6.54686 22.7399 5.39159 24.544C5.28756 24.6987 5.2153 24.8724 5.17901 25.0552C5.14272 25.238 5.14312 25.4262 5.1802 25.6088C5.21728 25.7915 5.29029 25.9649 5.395 26.1191C5.4997 26.2733 5.634 26.4051 5.7901 26.5069C5.94619 26.6087 6.12097 26.6785 6.30427 26.7122C6.48756 26.7458 6.67572 26.7427 6.85781 26.703C7.0399 26.6634 7.21229 26.5879 7.36495 26.481C7.51761 26.3741 7.64749 26.2379 7.74706 26.0804C9.41933 23.5069 12.0713 22.0315 15.001 22.0315C17.9307 22.0315 20.5826 23.5069 22.2607 26.0804C22.3603 26.2379 22.4902 26.3741 22.6429 26.481C22.7955 26.5879 22.9679 26.6634 23.15 26.703C23.3321 26.7427 23.5202 26.7458 23.7035 26.7122C23.8868 26.6785 24.0616 26.6087 24.2177 26.5069C24.3738 26.4051 24.5081 26.2733 24.6128 26.1191C24.7175 25.9649 24.7905 25.7915 24.8276 25.6088C24.8647 25.4262 24.8651 25.238 24.8288 25.0552C24.7925 24.8724 24.7202 24.6987 24.6162 24.544C23.4598 22.7378 21.8316 21.2822 19.9076 20.3347C21.3759 19.1891 22.396 17.565 22.7904 15.745C23.1848 13.925 22.9285 12.0243 22.0662 10.3737L26.6951 8.83036C26.9748 8.7368 27.2179 8.5577 27.3902 8.31839C27.5625 8.07907 27.6552 7.79165 27.6552 7.49677C27.6552 7.20189 27.5625 6.91447 27.3902 6.67515C27.2179 6.43583 26.9748 6.25673 26.6951 6.16318V6.16669ZM15.001 5.22919L21.8037 7.50028L15.001 9.76786L8.20409 7.50028L15.001 5.22919ZM20.1572 14.0628C20.1574 14.8637 19.971 15.6536 19.6127 16.3699C19.2545 17.0863 18.7344 17.7093 18.0935 18.1896C17.4527 18.67 16.7087 18.9945 15.9207 19.1373C15.1326 19.2802 14.3221 19.2375 13.5534 19.0126C12.7847 18.7878 12.079 18.387 11.4921 17.842C10.9053 17.297 10.4534 16.6227 10.1725 15.8727C9.89148 15.1228 9.78907 14.3176 9.87335 13.5212C9.95762 12.7247 10.2263 11.9588 10.658 11.2843L14.5568 12.5839C14.845 12.6807 15.1569 12.6807 15.4451 12.5839L19.3439 11.2843C19.8757 12.1134 20.158 13.0778 20.1572 14.0628Z" fill="black"/>
</svg>
