<svg width="234" height="152" viewBox="0 0 234 152" fill="none" xmlns="http://www.w3.org/2000/svg">
<g filter="url(#filter0_d_25_41463)">
<rect x="40" y="24" width="154" height="72" rx="36" fill="white" shape-rendering="crispEdges"/>
<rect x="48" y="32" width="56" height="56" rx="28" fill="#FBA000"/>
<path d="M81 58.5V55C81 54.45 80.55 54 80 54H68C67.45 54 67 54.45 67 55V65C67 65.55 67.45 66 68 66H80C80.55 66 81 65.55 81 65V61.5L83.29 63.79C83.92 64.42 85 63.97 85 63.08V56.91C85 56.02 83.92 55.57 83.29 56.2L81 58.5Z" fill="white"/>
<path d="M122.912 38.432V48.544H128V50H121.344V38.432H122.912ZM130.183 40.32C129.639 40.32 129.191 39.872 129.191 39.328C129.191 38.768 129.639 38.336 130.183 38.336C130.727 38.336 131.175 38.768 131.175 39.328C131.175 39.872 130.727 40.32 130.183 40.32ZM129.447 50V42.176H130.951V50H129.447ZM135.327 50L132.175 42.176H133.775L135.487 46.544C135.759 47.28 135.983 47.936 136.111 48.416C136.239 47.904 136.495 47.232 136.767 46.544L138.511 42.176H140.079L136.815 50H135.327ZM144.292 50.192C141.988 50.192 140.404 48.528 140.404 46.096C140.404 43.648 141.956 41.952 144.228 41.952C146.452 41.952 147.908 43.488 147.908 45.808V46.368L141.86 46.384C141.972 48.032 142.836 48.944 144.324 48.944C145.492 48.944 146.26 48.464 146.516 47.568H147.924C147.54 49.248 146.228 50.192 144.292 50.192ZM144.228 43.216C142.916 43.216 142.084 44 141.892 45.376H146.404C146.404 44.08 145.556 43.216 144.228 43.216Z" fill="#627A95"/>
<path d="M127.8 80.24C123.54 80.24 120.78 77.28 120.78 72.7C120.78 68.16 123.64 65.14 127.92 65.14C131.38 65.14 133.96 67.16 134.46 70.3H131.76C131.26 68.6 129.8 67.6 127.86 67.6C125.16 67.6 123.46 69.56 123.46 72.68C123.46 75.78 125.18 77.78 127.86 77.78C129.84 77.78 131.36 76.74 131.84 75.12H134.5C133.94 78.2 131.26 80.24 127.8 80.24ZM138.798 80H136.378V65.12H138.798V80ZM144.298 80.26C142.198 80.26 140.918 79.04 140.918 77.18C140.918 75.36 142.238 74.22 144.578 74.04L147.538 73.82V73.6C147.538 72.26 146.738 71.72 145.498 71.72C144.058 71.72 143.258 72.32 143.258 73.36H141.178C141.178 71.22 142.938 69.82 145.618 69.82C148.278 69.82 149.918 71.26 149.918 74V80H147.778L147.598 78.54C147.178 79.56 145.838 80.26 144.298 80.26ZM145.098 78.42C146.598 78.42 147.558 77.52 147.558 76V75.48L145.498 75.64C143.978 75.78 143.398 76.28 143.398 77.08C143.398 77.98 143.998 78.42 145.098 78.42ZM151.555 77H153.875C153.895 77.86 154.535 78.4 155.655 78.4C156.795 78.4 157.415 77.94 157.415 77.22C157.415 76.72 157.155 76.36 156.275 76.16L154.495 75.74C152.715 75.34 151.855 74.5 151.855 72.92C151.855 70.98 153.495 69.82 155.775 69.82C157.995 69.82 159.495 71.1 159.515 73.02H157.195C157.175 72.18 156.615 71.64 155.675 71.64C154.715 71.64 154.155 72.08 154.155 72.82C154.155 73.38 154.595 73.74 155.435 73.94L157.215 74.36C158.875 74.74 159.715 75.5 159.715 77.02C159.715 79.02 158.015 80.26 155.575 80.26C153.115 80.26 151.555 78.94 151.555 77ZM160.813 77H163.133C163.153 77.86 163.793 78.4 164.913 78.4C166.053 78.4 166.673 77.94 166.673 77.22C166.673 76.72 166.413 76.36 165.533 76.16L163.753 75.74C161.973 75.34 161.113 74.5 161.113 72.92C161.113 70.98 162.753 69.82 165.033 69.82C167.253 69.82 168.753 71.1 168.773 73.02H166.453C166.433 72.18 165.873 71.64 164.933 71.64C163.973 71.64 163.413 72.08 163.413 72.82C163.413 73.38 163.853 73.74 164.693 73.94L166.473 74.36C168.133 74.74 168.973 75.5 168.973 77.02C168.973 79.02 167.273 80.26 164.833 80.26C162.373 80.26 160.813 78.94 160.813 77Z" fill="#101566"/>
</g>
<defs>
<filter id="filter0_d_25_41463" x="0" y="0" width="234" height="152" filterUnits="userSpaceOnUse" color-interpolation-filters="sRGB">
<feFlood flood-opacity="0" result="BackgroundImageFix"/>
<feColorMatrix in="SourceAlpha" type="matrix" values="0 0 0 0 0 0 0 0 0 0 0 0 0 0 0 0 0 0 127 0" result="hardAlpha"/>
<feOffset dy="16"/>
<feGaussianBlur stdDeviation="20"/>
<feComposite in2="hardAlpha" operator="out"/>
<feColorMatrix type="matrix" values="0 0 0 0 0.439216 0 0 0 0 0.564706 0 0 0 0 0.690196 0 0 0 0.2 0"/>
<feBlend mode="normal" in2="BackgroundImageFix" result="effect1_dropShadow_25_41463"/>
<feBlend mode="normal" in="SourceGraphic" in2="effect1_dropShadow_25_41463" result="shape"/>
</filter>
</defs>
</svg>
