<svg width="326" height="152" viewBox="0 0 326 152" fill="none" xmlns="http://www.w3.org/2000/svg">
<g filter="url(#filter0_d_25_41482)">
<rect x="40" y="24" width="246" height="72" rx="36" fill="white" shape-rendering="crispEdges"/>
<rect x="48" y="32" width="56" height="56" rx="28" fill="#EE1908"/>
<path d="M82 50H70C68.9 50 68 50.9 68 52V68C68 69.1 68.9 70 70 70H82C83.1 70 84 69.1 84 68V52C84 50.9 83.1 50 82 50ZM70 52H75V60L72.5 58.5L70 60V52Z" fill="white"/>
<path d="M131.06 55.98L120.92 56V54.08L125.7 50.04C127.68 48.36 128.34 47.4 128.34 46C128.34 44.34 127.44 43.4 125.9 43.4C124.3 43.4 123.3 44.52 123.28 46.4H120.74C120.76 43.2 122.8 41.12 125.9 41.12C129.02 41.12 130.96 42.9 130.96 45.86C130.96 47.9 129.84 49.44 127.62 51.34L124.98 53.6H131.06V55.98ZM132.637 48.72C132.637 44.18 135.077 41.1 138.817 41.1C142.557 41.1 145.017 44.18 145.017 48.72C145.017 53.24 142.697 56.26 138.817 56.26C134.937 56.26 132.637 53.24 132.637 48.72ZM135.157 48.72C135.157 52.1 136.517 54 138.817 54C141.137 54 142.497 52.1 142.497 48.72C142.497 45.26 141.137 43.36 138.817 43.36C136.517 43.36 135.157 45.26 135.157 48.72ZM151 48.76H149.22V47.1L152.98 43.64H146.9V41.38H156.18V43.42L152.62 46.7C154.86 47.14 156.6 48.78 156.6 51.36C156.6 54.36 154.26 56.26 151.3 56.26C148.44 56.26 146.22 54.5 146.22 51.34H148.74C148.74 53.02 149.78 53.98 151.34 53.98C152.94 53.98 154 52.94 154 51.32C154 49.84 153.04 48.76 151 48.76ZM158.807 48.24H162.787V44.26H164.827V48.24H168.807V50.28H164.827V54.28H162.787V50.28H158.807V48.24Z" fill="#101566"/>
<path d="M122.912 70.432V80.544H128V82H121.344V70.432H122.912ZM132.667 82.192C130.363 82.192 128.779 80.528 128.779 78.096C128.779 75.648 130.331 73.952 132.603 73.952C134.827 73.952 136.283 75.488 136.283 77.808V78.368L130.235 78.384C130.347 80.032 131.211 80.944 132.699 80.944C133.867 80.944 134.635 80.464 134.891 79.568H136.299C135.915 81.248 134.603 82.192 132.667 82.192ZM132.603 75.216C131.291 75.216 130.459 76 130.267 77.376H134.779C134.779 76.08 133.931 75.216 132.603 75.216ZM140.173 82.192C138.493 82.192 137.501 81.248 137.501 79.824C137.501 78.384 138.573 77.488 140.413 77.344L142.877 77.152V76.928C142.877 75.616 142.093 75.152 141.037 75.152C139.773 75.152 139.053 75.712 139.053 76.656H137.741C137.741 75.024 139.085 73.952 141.101 73.952C143.037 73.952 144.349 74.976 144.349 77.088V82H143.069L142.909 80.736C142.509 81.632 141.437 82.192 140.173 82.192ZM140.605 81.024C142.029 81.024 142.893 80.096 142.893 78.624V78.208L140.893 78.368C139.565 78.496 139.021 79.008 139.021 79.776C139.021 80.608 139.629 81.024 140.605 81.024ZM150.912 74.112V75.488H150.24C148.816 75.488 147.936 76.352 147.936 77.856V82H146.432V74.192H147.84L147.936 75.376C148.256 74.56 149.04 74.016 150.112 74.016C150.384 74.016 150.608 74.048 150.912 74.112ZM153.826 82H152.322V74.176H153.682L153.842 75.376C154.338 74.48 155.33 73.952 156.434 73.952C158.498 73.952 159.442 75.216 159.442 77.216V82H157.938V77.552C157.938 75.968 157.202 75.328 156.05 75.328C154.642 75.328 153.826 76.336 153.826 77.856V82ZM162.262 72.32C161.718 72.32 161.27 71.872 161.27 71.328C161.27 70.768 161.718 70.336 162.262 70.336C162.806 70.336 163.254 70.768 163.254 71.328C163.254 71.872 162.806 72.32 162.262 72.32ZM161.526 82V74.176H163.03V82H161.526ZM166.717 82H165.213V74.176H166.573L166.733 75.376C167.229 74.48 168.221 73.952 169.325 73.952C171.389 73.952 172.333 75.216 172.333 77.216V82H170.829V77.552C170.829 75.968 170.093 75.328 168.941 75.328C167.533 75.328 166.717 76.336 166.717 77.856V82ZM173.92 77.888C173.92 75.68 175.344 73.952 177.616 73.952C178.88 73.952 179.856 74.528 180.352 75.504L180.464 74.176H181.808V81.68C181.808 84.144 180.288 85.712 177.888 85.712C175.76 85.712 174.304 84.512 174.016 82.528H175.52C175.712 83.68 176.576 84.352 177.888 84.352C179.36 84.352 180.32 83.392 180.32 81.904V80.336C179.808 81.248 178.784 81.792 177.552 81.792C175.328 81.792 173.92 80.08 173.92 77.888ZM175.424 77.856C175.424 79.328 176.336 80.48 177.808 80.48C179.328 80.48 180.256 79.392 180.256 77.856C180.256 76.352 179.36 75.264 177.824 75.264C176.32 75.264 175.424 76.416 175.424 77.856ZM190.178 82H188.61V70.432H192.978C195.458 70.432 196.93 71.744 196.93 73.904C196.93 75.504 196.13 76.656 194.69 77.12L197.042 82H195.298L193.138 77.424H190.178V82ZM190.178 71.84V76.032H192.994C194.45 76.032 195.282 75.248 195.282 73.92C195.282 72.576 194.418 71.84 192.978 71.84H190.178ZM201.636 82.192C199.332 82.192 197.748 80.528 197.748 78.096C197.748 75.648 199.3 73.952 201.572 73.952C203.796 73.952 205.252 75.488 205.252 77.808V78.368L199.204 78.384C199.316 80.032 200.18 80.944 201.668 80.944C202.836 80.944 203.604 80.464 203.86 79.568H205.268C204.884 81.248 203.572 82.192 201.636 82.192ZM201.572 75.216C200.26 75.216 199.428 76 199.236 77.376H203.748C203.748 76.08 202.9 75.216 201.572 75.216ZM206.292 79.728H207.732C207.732 80.528 208.34 81.008 209.332 81.008C210.388 81.008 210.996 80.576 210.996 79.856C210.996 79.328 210.74 79.008 209.924 78.8L208.548 78.48C207.156 78.144 206.5 77.456 206.5 76.304C206.5 74.864 207.716 73.952 209.444 73.952C211.156 73.952 212.276 74.912 212.308 76.4H210.868C210.836 75.616 210.308 75.12 209.396 75.12C208.452 75.12 207.924 75.536 207.924 76.256C207.924 76.784 208.308 77.136 209.076 77.328L210.452 77.664C211.78 77.984 212.436 78.592 212.436 79.76C212.436 81.248 211.156 82.192 209.3 82.192C207.46 82.192 206.292 81.216 206.292 79.728ZM213.592 78.08C213.592 75.664 215.32 73.968 217.672 73.968C220.008 73.968 221.736 75.664 221.736 78.08C221.736 80.496 220.008 82.192 217.672 82.192C215.32 82.192 213.592 80.496 213.592 78.08ZM215.112 78.08C215.112 79.712 216.152 80.848 217.672 80.848C219.176 80.848 220.232 79.712 220.232 78.08C220.232 76.448 219.176 75.312 217.672 75.312C216.152 75.312 215.112 76.448 215.112 78.08ZM228.621 74.176H230.109V82H228.765L228.605 80.816C228.157 81.632 227.117 82.192 225.965 82.192C224.141 82.192 223.117 80.96 223.117 79.04V74.176H224.621V78.544C224.621 80.224 225.341 80.864 226.493 80.864C227.869 80.864 228.621 79.984 228.621 78.304V74.176ZM236.771 74.112V75.488H236.099C234.675 75.488 233.795 76.352 233.795 77.856V82H232.291V74.192H233.699L233.795 75.376C234.115 74.56 234.899 74.016 235.971 74.016C236.243 74.016 236.467 74.048 236.771 74.112ZM237.389 78.096C237.389 75.648 238.941 73.952 241.229 73.952C243.197 73.952 244.573 75.072 244.845 76.816H243.341C243.085 75.824 242.285 75.296 241.277 75.296C239.853 75.296 238.877 76.384 238.877 78.08C238.877 79.76 239.789 80.848 241.213 80.848C242.285 80.848 243.085 80.288 243.357 79.36H244.861C244.557 81.056 243.101 82.192 241.213 82.192C238.909 82.192 237.389 80.56 237.389 78.096ZM249.823 82.192C247.519 82.192 245.935 80.528 245.935 78.096C245.935 75.648 247.487 73.952 249.759 73.952C251.983 73.952 253.439 75.488 253.439 77.808V78.368L247.391 78.384C247.503 80.032 248.367 80.944 249.855 80.944C251.023 80.944 251.791 80.464 252.047 79.568H253.455C253.071 81.248 251.759 82.192 249.823 82.192ZM249.759 75.216C248.447 75.216 247.615 76 247.423 77.376H251.935C251.935 76.08 251.087 75.216 249.759 75.216ZM254.479 79.728H255.919C255.919 80.528 256.527 81.008 257.519 81.008C258.575 81.008 259.183 80.576 259.183 79.856C259.183 79.328 258.927 79.008 258.111 78.8L256.735 78.48C255.343 78.144 254.687 77.456 254.687 76.304C254.687 74.864 255.903 73.952 257.631 73.952C259.343 73.952 260.463 74.912 260.495 76.4H259.055C259.023 75.616 258.495 75.12 257.583 75.12C256.639 75.12 256.111 75.536 256.111 76.256C256.111 76.784 256.495 77.136 257.263 77.328L258.639 77.664C259.967 77.984 260.623 78.592 260.623 79.76C260.623 81.248 259.343 82.192 257.487 82.192C255.647 82.192 254.479 81.216 254.479 79.728Z" fill="#627A95"/>
</g>
<defs>
<filter id="filter0_d_25_41482" x="0" y="0" width="326" height="152" filterUnits="userSpaceOnUse" color-interpolation-filters="sRGB">
<feFlood flood-opacity="0" result="BackgroundImageFix"/>
<feColorMatrix in="SourceAlpha" type="matrix" values="0 0 0 0 0 0 0 0 0 0 0 0 0 0 0 0 0 0 127 0" result="hardAlpha"/>
<feOffset dy="16"/>
<feGaussianBlur stdDeviation="20"/>
<feComposite in2="hardAlpha" operator="out"/>
<feColorMatrix type="matrix" values="0 0 0 0 0.439216 0 0 0 0 0.564706 0 0 0 0 0.690196 0 0 0 0.2 0"/>
<feBlend mode="normal" in2="BackgroundImageFix" result="effect1_dropShadow_25_41482"/>
<feBlend mode="normal" in="SourceGraphic" in2="effect1_dropShadow_25_41482" result="shape"/>
</filter>
</defs>
</svg>
