<svg width="72" height="72" viewBox="0 0 72 72" fill="none" xmlns="http://www.w3.org/2000/svg">
<path d="M41 30.0772C41 30.3844 41.2109 30.6509 41.5075 30.7313C50.4338 33.1509 57 41.3079 57 51C57 62.598 47.598 72 36 72C24.402 72 15 62.598 15 51C15 41.6617 21.0957 33.7483 29.5248 31.0187C29.8054 30.9279 30 30.6689 30 30.3739V18.6667C30 18.2985 30.2985 18 30.6667 18H40.3333C40.7015 18 41 18.2985 41 18.6667V30.0772Z" fill="#FFEA85"/>
<rect x="28" y="15" width="15.3333" height="6" rx="1.33333" fill="#FFD946"/>
<path d="M50.6667 51C51.403 51 52.0058 51.598 51.9445 52.3318C51.8071 53.9766 51.4158 55.5931 50.7821 57.1229C49.978 59.0641 48.7994 60.828 47.3137 62.3137C45.828 63.7994 44.0641 64.978 42.1229 65.7821C40.1817 66.5861 38.1012 67 36 67C33.8989 67 31.8183 66.5861 29.8771 65.7821C27.9359 64.978 26.172 63.7994 24.6863 62.3137C23.2006 60.828 22.022 59.0641 21.2179 57.1229C20.5842 55.5931 20.1929 53.9766 20.0555 52.3318C19.9942 51.598 20.597 51 21.3333 51L50.6667 51Z" fill="#FBA000"/>
<rect x="34" y="9" width="4" height="48" rx="2" fill="#FFF2ED"/>
<rect x="35" y="32" width="2" height="24" rx="1" fill="#FE5D39"/>
<rect x="33" width="6" height="12" rx="3" fill="#EE1908"/>
</svg>
