<svg width="72" height="72" viewBox="0 0 72 72" fill="none" xmlns="http://www.w3.org/2000/svg">
<path d="M53.9658 30.8416C53.9658 31.1108 54.1458 31.3462 54.4032 31.4249C62.1394 33.792 67.7656 40.9886 67.7656 49.5C67.7656 59.9381 59.3042 68.4002 48.8662 68.4004C38.428 68.4004 29.9658 59.9382 29.9658 49.5C29.9658 40.9887 35.5921 33.792 43.3283 31.4249C43.5856 31.3462 43.7656 31.1108 43.7656 30.8416V9.6C43.7656 9.26863 44.0343 9 44.3656 9H53.3658C53.6972 9 53.9658 9.26863 53.9658 9.6V30.8416Z" fill="#FFEA85"/>
<rect x="41.9658" y="3.60156" width="13.8" height="5.4" rx="1.2" fill="#FFD946"/>
<path d="M63.5654 49.8008C64.2282 49.8008 64.7702 50.3388 64.7193 50.9996C64.593 52.6377 64.2086 54.2481 63.578 55.7706C62.794 57.6633 61.6449 59.3831 60.1963 60.8316C58.7477 62.2802 57.028 63.4293 55.1353 64.2133C53.2426 64.9973 51.2141 65.4008 49.1654 65.4008C47.1168 65.4008 45.0882 64.9973 43.1956 64.2133C41.3029 63.4293 39.5832 62.2802 38.1346 60.8316C36.686 59.3831 35.5369 57.6633 34.7529 55.7706C34.1223 54.2481 33.7378 52.6377 33.6116 50.9996C33.5606 50.3388 34.1027 49.8008 34.7654 49.8008L63.5654 49.8008Z" fill="#FBA000"/>
<path d="M49.166 19.2016C49.166 18.8702 49.4346 18.6016 49.766 18.6016H53.966V19.8016H49.766C49.4346 19.8016 49.166 19.5329 49.166 19.2016Z" fill="#FFD946"/>
<path d="M49.166 22.8031C49.166 22.4718 49.4346 22.2031 49.766 22.2031H53.966V23.4031H49.766C49.4346 23.4031 49.166 23.1345 49.166 22.8031Z" fill="#FFD946"/>
<path d="M49.166 15.6C49.166 15.2686 49.4346 15 49.766 15H53.966V16.2H49.766C49.4346 16.2 49.166 15.9314 49.166 15.6Z" fill="#FFD946"/>
<path d="M25.166 33.2508C25.166 33.5163 25.3412 33.7492 25.5935 33.8317C32.3125 36.0295 37.166 42.3484 37.166 49.8018C37.1659 59.0801 29.6445 66.6016 20.3662 66.6016C11.088 66.6015 3.56651 59.08 3.56641 49.8018C3.56641 42.3485 8.42014 36.0296 15.139 33.8317C15.3913 33.7492 15.5664 33.5163 15.5664 33.2508V22.2016C15.5664 21.8702 15.835 21.6016 16.1664 21.6016H24.566C24.8974 21.6016 25.166 21.8702 25.166 22.2016V33.2508Z" fill="#FFE1D4"/>
<rect x="14.3662" y="16.8008" width="12" height="4.8" rx="1.2" fill="#FFC0A9"/>
<path d="M15.6404 12.0686C15.6009 11.7132 15.8792 11.4023 16.2368 11.4023H24.496C24.8537 11.4023 25.1319 11.7132 25.0924 12.0686L24.5664 16.8023H16.1664L15.6404 12.0686Z" fill="#E27A00"/>
<path d="M32.3664 49.8008C33.0291 49.8008 33.5717 50.339 33.5154 50.9993C33.3959 52.4008 33.0672 53.7778 32.5388 55.0818C31.8603 56.7561 30.8659 58.2774 29.6123 59.5589C28.3588 60.8403 26.8705 61.8568 25.2326 62.5503C23.5947 63.2438 21.8393 63.6008 20.0664 63.6008C18.2936 63.6008 16.5381 63.2438 14.9002 62.5503C13.2623 61.8568 11.7741 60.8403 10.5205 59.5589C9.26687 58.2774 8.27247 56.7561 7.59403 55.0818C7.06562 53.7778 6.73695 52.4008 6.61742 50.9993C6.5611 50.339 7.10366 49.8008 7.76641 49.8008L32.3664 49.8008Z" fill="#EE1908"/>
<path d="M20.3662 28.8031C20.3662 28.4718 20.6348 28.2031 20.9662 28.2031H25.1662V29.4031H20.9662C20.6348 29.4031 20.3662 29.1345 20.3662 28.8031Z" fill="#FFC0A9"/>
<path d="M20.3662 25.2016C20.3662 24.8702 20.6348 24.6016 20.9662 24.6016H25.1662V25.8016H20.9662C20.6348 25.8016 20.3662 25.5329 20.3662 25.2016Z" fill="#FFC0A9"/>
</svg>
