<svg width="72" height="72" viewBox="0 0 72 72" fill="none" xmlns="http://www.w3.org/2000/svg">
<rect x="7.99805" y="14" width="25.3009" height="25.3009" rx="3.2" fill="#5841EA"/>
<rect x="7.99805" y="39.3008" width="25.3009" height="25.3009" rx="3.2" fill="#EE1908"/>
<rect x="33.2988" y="39.3008" width="25.3009" height="25.3009" rx="3.2" fill="#FBD300"/>
<rect x="42.4502" y="7" width="21.5327" height="21.5327" rx="2.4" fill="#FBA000"/>
<path d="M18.6131 33.1992H16.0211V21.3592H18.6131V26.0312H23.1891V21.3592H25.7811V33.1992H23.1891V28.4312H18.6131V33.1992Z" fill="white"/>
<path d="M51.5004 22H49.4524V12.528H51.5004L55.494 18.5568V12.528H57.542V22H55.494L51.5004 15.984V22Z" fill="white"/>
<path d="M18.6209 46.16V55.6H23.2929V58H16.0289V46.16H18.6209ZM25.8315 48.752C25.0475 48.752 24.4235 48.128 24.4235 47.344C24.4235 46.56 25.0475 45.952 25.8315 45.952C26.5995 45.952 27.2235 46.56 27.2235 47.344C27.2235 48.128 26.5995 48.752 25.8315 48.752ZM24.6155 58V50H27.0795V58H24.6155Z" fill="white"/>
<path d="M37.3082 58V46.16H42.2362C44.6202 46.16 46.0602 47.408 46.0602 49.44C46.0602 50.704 45.4842 51.632 44.4122 52.096C45.5802 52.48 46.2042 53.392 46.2042 54.736C46.2042 56.832 44.7962 58 42.2362 58H37.3082ZM41.9642 48.432H39.9002V51.008H41.9642C42.8922 51.008 43.4042 50.544 43.4042 49.696C43.4042 48.864 42.9082 48.432 41.9642 48.432ZM42.0922 53.184H39.9002V55.728H42.0922C43.0522 55.728 43.5482 55.296 43.5482 54.416C43.5482 53.616 43.0362 53.184 42.0922 53.184ZM51.3568 58.208C48.9408 58.208 47.2128 56.448 47.2128 53.984C47.2128 51.488 48.8928 49.744 51.3088 49.744C53.8208 49.744 55.3888 51.392 55.3888 54V54.624L49.5808 54.656C49.7248 55.712 50.3168 56.208 51.4048 56.208C52.3328 56.208 52.9888 55.872 53.1648 55.296H55.4208C55.1328 57.072 53.5488 58.208 51.3568 58.208ZM51.3248 51.744C50.3488 51.744 49.8048 52.176 49.6128 53.136H52.9408C52.9408 52.288 52.3168 51.744 51.3248 51.744Z" fill="white"/>
</svg>
