<svg width="72" height="65" viewBox="0 0 72 65" fill="none" xmlns="http://www.w3.org/2000/svg">
<path d="M35.5137 1.7998C38.4823 1.7998 41.7491 4.50388 44.3779 10.2393C46.9347 15.8177 48.5645 23.6517 48.5645 32.4004C48.5644 41.1489 46.9347 48.9821 44.3779 54.5605C41.7491 60.296 38.4824 63 35.5137 63C32.545 62.9998 29.2782 60.296 26.6494 54.5605C24.0926 48.9821 22.4639 41.1489 22.4639 32.4004C22.4639 23.6517 24.0926 15.8177 26.6494 10.2393C29.2782 4.50393 32.5451 1.80004 35.5137 1.7998Z" stroke="#FBD300" stroke-width="3.6"/>
<circle cx="35.9637" cy="32.3992" r="7.2" fill="#FBA000"/>
<path d="M8.40343 18.2609C9.7742 15.6276 13.6812 13.9786 19.9824 14.2951C26.1112 14.603 33.8125 16.7747 41.5727 20.8144C49.3327 24.8541 55.5283 29.9167 59.2958 34.7604C63.1694 39.7405 64.0595 43.8867 62.6887 46.52C61.3177 49.1531 57.4109 50.8023 51.1097 50.4857C44.981 50.1778 37.2808 48.0055 29.5207 43.966C21.7605 39.9262 15.5638 34.8642 11.7963 30.0205C7.92278 25.0405 7.03289 20.8942 8.40343 18.2609Z" stroke="#EE1908" stroke-width="3.6"/>
<path d="M62.5975 18.2609C61.2268 15.6276 57.3198 13.9786 51.0186 14.2951C44.8898 14.603 37.1885 16.7747 29.4283 20.8144C21.6683 24.8541 15.4727 29.9167 11.7051 34.7604C7.83157 39.7405 6.94153 43.8867 8.31231 46.52C9.68329 49.1531 13.59 50.8023 19.8913 50.4857C26.0199 50.1778 33.7201 48.0055 41.4802 43.966C49.2404 39.9262 55.4371 34.8642 59.2047 30.0205C63.0782 25.0405 63.9681 20.8942 62.5975 18.2609Z" stroke="#5841EA" stroke-width="3.6"/>
<circle cx="43.1641" cy="57.6016" r="4.5" fill="#5841EA"/>
<circle cx="9.86328" cy="26.1016" r="4.5" fill="#FBD300"/>
<circle cx="45.8633" cy="13.5" r="4.5" fill="#FBA000"/>
</svg>
