<svg width="59" height="72" viewBox="0 0 59 72" fill="none" xmlns="http://www.w3.org/2000/svg">
<path d="M39.8115 37.3837C39.8115 37.6125 39.9501 37.8179 40.1596 37.9096C46.437 40.6567 50.8232 46.9222 50.8232 54.2129C50.8231 64.0369 42.8592 72.001 33.0352 72.001C23.2112 72.0009 15.2473 64.0369 15.2471 54.2129C15.2471 46.9223 19.6334 40.6568 25.9107 37.9096C26.1202 37.8179 26.2588 37.6125 26.2588 37.3838V29.3655C26.2588 29.0536 26.5116 28.8008 26.8235 28.8008H39.2468C39.5587 28.8008 39.8115 29.0536 39.8115 29.3655V37.3837Z" fill="#DFE3FF"/>
<rect x="24.5645" y="26.2578" width="16.9412" height="5.08235" rx="1.12941" fill="#C5CCFF"/>
<path d="M45.4589 54.2109C46.0827 54.2109 46.5932 54.7175 46.5413 55.3391C46.4249 56.7323 46.0934 58.1015 45.5566 59.3974C44.8755 61.0417 43.8772 62.5358 42.6187 63.7943C41.3602 65.0528 39.8662 66.0511 38.2218 66.7322C36.5775 67.4133 34.8152 67.7639 33.0354 67.7639C31.2556 67.7639 29.4932 67.4133 27.8489 66.7322C26.2046 66.0511 24.7105 65.0528 23.452 63.7943C22.1935 62.5358 21.1952 61.0417 20.5141 59.3974C19.9773 58.1015 19.6458 56.7323 19.5295 55.3391C19.4775 54.7175 19.9881 54.2109 20.6118 54.2109L45.4589 54.2109Z" fill="#5841EA"/>
<circle cx="37.6946" cy="53.7883" r="3.81176" fill="#7D7FFC"/>
<circle cx="27.5292" cy="47.0116" r="2.96471" fill="#7D7FFC"/>
<circle cx="37.6938" cy="41.9301" r="2.11765" fill="#7D7FFC"/>
<path d="M14.974 1.19792C15.6355 0.536327 16.7082 0.536328 17.3698 1.19792L28.4506 12.2787C29.4377 13.2658 28.8742 14.9563 27.4922 15.1537L25.1164 15.4931C24.7535 15.545 24.4172 15.7131 24.158 15.9723L13.1771 26.9532C12.5155 27.6148 11.4428 27.6148 10.7812 26.9532L1.19785 17.3699C0.536256 16.7083 0.536255 15.6356 1.19785 14.974L14.974 1.19792Z" fill="#FFE1D4"/>
<path d="M15.3732 7.18837C15.5937 6.96784 15.5937 6.61029 15.3732 6.38976L12.578 3.5946L11.7794 4.39322L14.5745 7.18837C14.7951 7.4089 15.1526 7.4089 15.3732 7.18837Z" fill="#FFC0A9"/>
<path d="M13.5763 8.98524C13.7968 8.76471 13.7968 8.40716 13.5763 8.18663L10.7811 5.39148L9.98251 6.19009L12.7777 8.98525C12.9982 9.20578 13.3557 9.20578 13.5763 8.98524Z" fill="#FFC0A9"/>
<path d="M11.7794 10.7821C11.9999 10.5616 11.9999 10.204 11.7794 9.98351L8.98425 7.18835L8.18564 7.98697L10.9808 10.7821C11.2013 11.0027 11.5589 11.0027 11.7794 10.7821Z" fill="#FFC0A9"/>
<path d="M6.10332 12.9249C6.26386 12.7846 6.47141 12.71 6.68453 12.716L20.588 13.1071C21.0464 13.12 21.4113 13.4953 21.4112 13.9538L21.4112 16.0219C21.4112 16.2466 21.3219 16.462 21.1631 16.6208L13.0257 24.7582C12.6949 25.089 12.1586 25.089 11.8278 24.7582L3.48401 16.4144C3.13739 16.0678 3.15646 15.5002 3.52558 15.1776L6.10332 12.9249Z" fill="#EE1908"/>
<rect x="36.7744" y="8.53125" width="6.77647" height="22.8706" rx="1.69412" transform="rotate(-45 36.7744 8.53125)" fill="#FFFD86"/>
<rect x="35.5762" y="9.72656" width="10.1647" height="5.08235" rx="1.69412" transform="rotate(-45 35.5762 9.72656)" fill="#FFF441"/>
<path d="M44.5604 9.92665C44.3399 9.70612 43.9824 9.70612 43.7618 9.92665L40.9687 12.7198L41.7673 13.5184L44.5604 10.7253C44.781 10.5047 44.781 10.1472 44.5604 9.92665Z" fill="#FFF441"/>
<path d="M46.3573 11.7235C46.1368 11.503 45.7792 11.503 45.5587 11.7235L42.7655 14.5167L43.5642 15.3153L46.3573 12.5221C46.5778 12.3016 46.5778 11.9441 46.3573 11.7235Z" fill="#FFF441"/>
<path d="M46.5613 15.7663C46.0276 15.2327 46.4056 14.3203 47.1602 14.3203H49.5544C49.779 14.3203 49.9944 14.4095 50.1533 14.5683L54.6984 19.112C55.0293 19.4428 55.0293 19.9792 54.6985 20.31L53.5007 21.5078C53.1699 21.8386 52.6336 21.8386 52.3028 21.5078L46.5613 15.7663Z" fill="#FBD300"/>
<path d="M38.9648 18.2102C38.9648 19.3797 38.0167 20.3278 36.8471 20.3278C35.6776 20.3278 34.7295 19.3797 34.7295 18.2102C34.7295 17.0407 36.4236 14.3984 36.8471 14.3984C37.2707 14.3984 38.9648 17.0407 38.9648 18.2102Z" fill="#FBD300"/>
<path d="M30.4941 21.6008C30.4941 22.7704 29.546 23.7185 28.3764 23.7185C27.2069 23.7185 26.2588 22.7704 26.2588 21.6008C26.2588 20.4313 27.9529 17.7891 28.3764 17.7891C28.8 17.7891 30.4941 20.4313 30.4941 21.6008Z" fill="#EE1908"/>
</svg>
