<svg width="765" height="489" viewBox="0 0 765 489" fill="none" xmlns="http://www.w3.org/2000/svg">
<path d="M-124.345 484.436L-116.08 488M-124.345 484.436L-99.8523 484.436M-124.345 484.436L-132.885 480.755M-124.345 484.436L-141.691 484.436M-91.9811 488L-116.08 488L-119.087 487.999L-122.064 487.991L-124.978 487.969L-127.801 487.926L-130.502 487.857L-133.051 487.753L-135.419 487.608L-137.616 487.423L-139.502 487.167L-141.219 486.871L-141.691 486.767L-141.691 484.436M-91.9811 488L-67.8822 488M-91.9811 488L-99.8523 484.436M-67.8822 488L-43.7828 488M-67.8822 488L-75.3596 484.436M-43.7828 488L-19.6839 488M-43.7828 488L-50.8675 484.436M-19.6839 488L4.41494 488M-19.6839 488L-26.3749 484.436M4.41494 488L28.5144 488M4.41494 488L-1.8822 484.436M28.5144 488L52.6133 488M28.5144 488L22.6105 484.436M52.6133 488L76.7121 488M52.6133 488L47.1031 484.436M76.7121 488L100.812 488M76.7121 488L71.5958 484.436M100.812 488L124.91 488M100.812 488L96.0884 484.436M124.91 488L149.009 488M124.91 488L120.581 484.436M149.009 488L173.108 488M149.009 488L145.074 484.436M173.108 488L197.208 488M173.108 488L172.234 487.119L170.908 485.787L169.566 484.436M197.208 488L221.306 488M197.208 488L196.43 487.119L194.059 484.436M221.306 488L245.405 488M221.306 488L218.552 484.436M245.405 488L269.505 488M245.405 488L244.529 486.677L243.641 485.338L243.343 484.888L243.044 484.436M269.505 488L293.604 488M269.505 488L268.774 486.677L268.528 486.233L268.282 485.787L267.536 484.436M293.604 488L317.703 488M293.604 488L292.029 484.436M317.703 488L317.557 487.561L317.411 487.119L316.672 484.888L316.522 484.436M317.703 488L341.801 488M341.801 488L365.901 488M341.801 488L341.014 484.436M365.901 488L390 488M365.901 488L365.755 486.677L365.507 484.436M390 488L414.099 488M390 488L390 484.436M414.099 488L438.198 488M414.099 488L414.245 486.677L414.492 484.436M438.198 488L462.297 488M438.198 488L438.985 484.436M462.297 488L462.443 487.561L462.588 487.12L463.328 484.888L463.478 484.436M462.297 488L486.396 488M486.396 488L510.495 488M486.396 488L487.77 484.888L487.97 484.436M510.495 488L534.594 488M510.495 488L511.225 486.677L511.471 486.233L511.965 485.338L512.213 484.888L512.463 484.436M534.594 488L558.693 488M534.594 488L535.47 486.677L536.358 485.338L536.656 484.888L536.956 484.436M558.693 488L582.792 488M558.693 488L561.448 484.436M582.792 488L606.891 488M582.792 488L583.569 487.12L585.94 484.436M606.891 488L630.99 488M606.891 488L610.433 484.436M630.99 488L655.089 488M630.99 488L634.926 484.436M655.089 488L679.188 488M655.089 488L659.418 484.436M679.188 488L703.287 488M679.188 488L683.911 484.436M703.287 488L727.386 488M703.287 488L708.404 484.436M727.386 488L751.485 488M727.386 488L732.896 484.436M751.485 488L775.584 488M751.485 488L757.389 484.436M775.584 488L799.683 488M775.584 488L781.882 484.436M799.683 488L823.782 488M799.683 488L806.374 484.436M823.782 488L847.882 488M823.782 488L830.867 484.436M847.882 488L871.98 488M847.882 488L855.359 484.436M921.69 484.436L921.69 486.767L921.218 486.871L919.501 487.167L917.616 487.423L915.418 487.608L913.05 487.753L910.501 487.857L907.8 487.926L904.977 487.969L902.063 487.991L899.087 487.999L896.079 488L871.98 488M871.98 488L879.852 484.436M896.079 488L904.344 484.436M855.359 484.436L830.867 484.436M855.359 484.436L879.852 484.436M855.359 484.436L863.086 480.755M830.867 484.436L838.187 480.755M830.867 484.436L806.374 484.436M757.389 484.436L732.896 484.436M757.389 484.436L781.882 484.436M757.389 484.436L758.895 483.527L763.488 480.755M732.896 484.436L738.589 480.755M732.896 484.436L708.404 484.436M659.418 484.436L634.926 484.436M659.418 484.436L683.911 484.436M659.418 484.436L660.523 483.527L661.079 483.07L663.892 480.755M634.926 484.436L635.427 483.983L635.93 483.527L638.992 480.755M634.926 484.436L610.433 484.436M561.448 484.436L561.799 483.983L564.295 480.755M561.448 484.436L536.956 484.436M561.448 484.436L585.94 484.436M536.956 484.436L537.558 483.527L537.861 483.07L538.165 482.611L539.395 480.755M536.956 484.436L512.463 484.436M463.478 484.436L438.985 484.436M463.478 484.436L487.97 484.436M463.478 484.436L464.697 480.755M438.985 484.436L439.085 483.983L439.186 483.527L439.287 483.07L439.593 481.687L439.798 480.755M438.985 484.436L414.492 484.436M365.507 484.436L341.014 484.436M365.507 484.436L390 484.436M365.507 484.436L365.101 480.755M341.014 484.436L340.914 483.983L340.814 483.527L340.713 483.07L340.201 480.755M341.014 484.436L316.522 484.436M267.536 484.436L243.044 484.436M267.536 484.436L292.029 484.436M267.536 484.436L267.035 483.527L266.018 481.687L265.761 481.222L265.503 480.755M243.044 484.436L242.442 483.527L242.138 483.07L241.834 482.611L240.604 480.755M243.044 484.436L218.552 484.436M169.566 484.436L145.074 484.436M169.566 484.436L194.059 484.436M169.566 484.436L168.663 483.527L168.208 483.07L165.907 480.755M145.074 484.436L144.572 483.983L144.07 483.527L141.007 480.755M145.074 484.436L120.581 484.436M71.5958 484.436L47.1031 484.436M71.5958 484.436L96.0884 484.436M71.5958 484.436L70.2904 483.527L69.6335 483.07L66.3093 480.755M47.1031 484.436L41.4101 480.755M47.1031 484.436L22.6105 484.436M-26.3749 484.436L-50.8675 484.436M-26.3749 484.436L-1.8822 484.436M-26.3749 484.436L-33.2874 480.755M-50.8675 484.436L-58.1871 480.755M-50.8675 484.436L-75.3596 484.436M921.776 451.109L921.69 451.109M897.124 451.109L887.773 455.813M897.124 451.109L906.833 446.226M897.124 451.109L868.95 451.109M897.124 451.109L921.69 451.109M887.773 455.813L915.427 455.813M887.773 455.813L878.76 460.346M887.773 455.813L860.119 455.812M915.427 455.813L905.913 460.346M915.427 455.813L921.69 455.813M915.427 455.813L921.69 452.829M887.885 468.937L861.68 468.937M887.885 468.937L879.334 473.012M887.885 468.937L914.089 468.937M887.885 468.937L896.739 464.718M861.68 468.937L853.58 473.012M861.68 468.937L870.068 464.718M861.68 468.937L835.475 468.937M879.334 473.012L853.58 473.012M879.334 473.012L871.073 476.948M879.334 473.012L905.089 473.012M853.58 473.012L827.825 473.012M853.58 473.012L845.753 476.948M921.96 376.869L921.69 376.869M899.227 376.869L887.169 384.667M899.227 376.869L911.884 368.683M899.227 376.869L862.853 376.869M899.227 376.869L921.69 376.869M887.169 384.667L875.668 392.104M887.169 384.667L851.657 384.667M887.169 384.667L921.69 384.667M910.359 392.104L875.668 392.104M910.359 392.104L898.594 399.205M910.359 392.104L921.69 392.104M910.359 392.104L921.69 385.265M887.35 405.993L854.193 405.993M887.35 405.993L876.592 412.486M887.35 405.993L920.506 405.993M887.35 405.993L898.594 399.205M854.193 405.993L844.152 412.486M854.193 405.993L864.688 399.205M854.193 405.993L821.036 405.993M876.592 412.486L844.152 412.486M876.592 412.486L909.031 412.486M876.592 412.486L866.289 418.704M844.152 412.486L834.537 418.704M844.152 412.486L811.713 412.486M846.94 430.384L816.478 430.384M846.94 430.384L837.843 435.874M846.94 430.384L877.403 430.384M846.94 430.384L856.414 424.665M816.478 430.384L807.987 435.874M816.478 430.384L825.32 424.665M816.478 430.384L786.014 430.384M837.843 435.874L807.987 435.874M837.843 435.874L867.699 435.874M837.843 435.874L829.101 441.151M807.987 435.874L799.828 441.151M807.987 435.874L778.13 435.874M812.603 451.109L784.43 451.109M812.603 451.109L804.811 455.812M812.603 451.109L840.777 451.109M812.603 451.109L820.694 446.226M784.43 451.109L777.157 455.812M784.43 451.109L791.982 446.226M784.43 451.109L756.256 451.109M804.811 455.812L777.157 455.812M804.811 455.812L832.465 455.812M804.811 455.812L797.3 460.346M777.157 455.812L770.147 460.346M777.157 455.812L749.503 455.812M783.067 468.937L756.862 468.937M783.067 468.937L776.317 473.012M783.067 468.937L809.271 468.937M783.067 468.937L790.057 464.718M756.862 468.937L750.562 473.012M756.862 468.937L763.387 464.718M756.862 468.937L730.658 468.937M776.317 473.012L750.562 473.012M776.317 473.012L769.794 476.948M776.317 473.012L802.071 473.012M750.562 473.012L724.807 473.012M750.562 473.012L744.474 476.948M903.055 241.674L886.084 257.039M903.055 241.674L921.229 225.219M903.055 241.674L851.75 241.674M903.055 241.674L921.69 241.674M886.084 257.039L870.199 271.421M886.084 257.039L836.476 257.039M886.084 257.039L921.69 257.039M886.429 297.588L841.299 297.588M886.429 297.588L871.926 309.524M886.429 297.588L901.831 284.91M886.429 297.588L921.69 297.588M841.299 297.588L828.115 309.524M841.299 297.588L855.301 284.91M841.299 297.588L796.169 297.588M871.926 309.524L828.115 309.524M871.926 309.524L915.738 309.524M871.926 309.524L858.247 320.784M828.115 309.524L815.679 320.784M828.115 309.524L784.303 309.524M833.093 341.487L792.812 341.487M833.093 341.487L821.503 351.027M833.093 341.487L873.375 341.487M833.093 341.487L845.323 331.421M792.812 341.487L782.275 351.027M792.812 341.487L803.93 331.421M792.812 341.487L752.531 341.487M821.503 351.027L782.275 351.027M821.503 351.027L860.731 351.027M821.503 351.027L810.504 360.08M782.275 351.027L772.276 360.08M782.275 351.027L743.048 351.027M790.107 376.869L753.733 376.869M790.107 376.869L780.632 384.667M790.107 376.869L826.48 376.869M790.107 376.869L800.052 368.683M753.733 376.869L745.12 384.667M753.733 376.869L762.775 368.683M753.733 376.869L717.36 376.869M780.632 384.667L745.12 384.667M780.632 384.667L816.144 384.667M780.632 384.667L771.596 392.104M745.12 384.667L736.906 392.104M745.12 384.667L709.608 384.667M754.723 405.993L721.566 405.993M754.723 405.993L746.834 412.486M754.723 405.993L787.88 405.993M754.723 405.993L762.969 399.205M721.566 405.993L714.394 412.486M721.566 405.993L729.063 399.205M721.566 405.993L688.41 405.993M746.834 412.486L714.394 412.486M746.834 412.486L779.273 412.486M746.834 412.486L739.279 418.704M714.394 412.486L707.526 418.704M714.394 412.486L681.955 412.486M725.089 430.384L694.627 430.384M725.089 430.384L718.418 435.874M725.089 430.384L755.552 430.384M725.089 430.384L732.037 424.665M694.627 430.384L693.855 431.082L688.562 435.874M694.627 430.384L700.942 424.665M694.627 430.384L664.164 430.384M718.418 435.874L688.562 435.874M718.418 435.874L748.274 435.874M718.418 435.874L712.008 441.151M688.562 435.874L682.734 441.151M688.562 435.874L658.706 435.874M699.909 451.109L671.735 451.109M699.909 451.109L694.194 455.812M699.909 451.109L728.083 451.109M699.909 451.109L705.843 446.226M671.735 451.109L666.54 455.812M671.735 451.109L673.734 449.299L677.13 446.226M671.735 451.109L643.562 451.109M694.194 455.812L666.54 455.812M694.194 455.812L721.848 455.812M694.194 455.812L688.687 460.346M666.54 455.812L661.534 460.346M666.54 455.812L638.886 455.812M678.249 468.937L652.044 468.937M678.249 468.937L673.299 473.012M678.249 468.937L704.453 468.937M678.249 468.937L683.375 464.718M652.044 468.937L648.654 472.006L648.098 472.51L647.544 473.012M652.044 468.937L656.705 464.718M652.044 468.937L625.84 468.937M673.299 473.012L647.544 473.012M673.299 473.012L668.516 476.948M673.299 473.012L699.053 473.012M647.544 473.012L621.79 473.012M647.544 473.012L643.196 476.948M884.466 66.6382L813.828 66.6382M884.466 66.6382L862.224 95.4068M884.466 66.6382L908.908 35.0251M884.466 66.6382L921.69 66.6376M813.828 66.6382L794.763 95.4068M813.828 66.6382L834.778 35.0251M813.828 66.6382L743.19 66.6382M862.224 95.4068L794.763 95.4068M862.224 95.4068L841.896 121.699M862.224 95.4068L921.69 95.4068M794.763 95.4068L777.34 121.699M794.763 95.4068L727.303 95.4068M806.075 168.03L746.636 168.03M806.075 168.03L790.213 188.547M806.075 168.03L865.514 168.03M806.075 168.03L823.247 145.821M746.636 168.03L733.04 188.547M746.636 168.03L761.354 145.821M746.636 168.03L687.196 168.03M790.213 188.547L733.04 188.547M790.213 188.547L847.387 188.547M790.213 188.547L775.516 207.556M733.04 188.547L720.442 207.556M733.04 188.547L675.866 188.547M749.138 241.674L697.833 241.674M749.138 241.674L737.258 257.039M749.138 241.674L800.444 241.674M749.138 241.674L761.86 225.219M697.833 241.674L687.65 257.039M697.833 241.674L708.737 225.219M697.833 241.674L646.528 241.674M737.258 257.039L687.65 257.039M737.258 257.039L786.867 257.039M737.258 257.039L726.139 271.421M687.65 257.039L678.12 271.421M687.65 257.039L638.042 257.039M705.909 297.588L660.779 297.588M705.909 297.588L696.68 309.524M705.909 297.588L751.039 297.588M705.909 297.588L715.711 284.91M660.779 297.588L652.869 309.524M660.779 297.588L669.18 284.91M660.779 297.588L615.649 297.588M696.68 309.524L652.869 309.524M696.68 309.524L740.492 309.524M696.68 309.524L687.975 320.784M652.869 309.524L645.407 320.784M652.869 309.524L609.057 309.524M671.969 341.487L631.687 341.487M671.969 341.487L664.593 351.027M671.969 341.487L712.25 341.487M671.969 341.487L679.751 331.421M631.687 341.487L625.365 351.027M631.687 341.487L638.358 331.421M631.687 341.487L591.406 341.487M664.593 351.027L625.365 351.027M664.593 351.027L703.821 351.027M664.593 351.027L657.593 360.08M625.365 351.027L619.366 360.08M625.365 351.027L586.138 351.027M644.613 376.869L608.24 376.869M644.613 376.869L638.584 384.667M644.613 376.869L680.987 376.869M644.613 376.869L650.942 368.683M608.24 376.869L603.072 384.667M608.24 376.869L613.665 368.683M608.24 376.869L571.867 376.869M638.584 384.667L603.072 384.667M638.584 384.667L674.096 384.667M638.584 384.667L632.834 392.104M603.072 384.667L598.143 392.104M603.072 384.667L567.56 384.667M622.096 405.993L588.939 405.993M622.096 405.993L617.076 412.486M622.096 405.993L655.253 405.993M622.096 405.993L627.344 399.205M588.939 405.993L584.637 412.486M588.939 405.993L593.437 399.205M588.939 405.993L555.783 405.993M617.076 412.486L584.637 412.486M617.076 412.486L649.516 412.486M617.076 412.486L612.268 418.704M584.637 412.486L580.515 418.704M584.637 412.486L552.197 412.486M603.239 430.384L572.776 430.384M603.239 430.384L598.993 435.874M603.239 430.384L633.701 430.384M603.239 430.384L607.66 424.665M572.776 430.384L573.241 429.682L576.565 424.665M572.776 430.384L569.137 435.874M572.776 430.384L542.313 430.384M598.993 435.874L569.137 435.874M598.993 435.874L628.849 435.874M598.993 435.874L594.914 441.151M569.137 435.874L565.64 441.151M569.137 435.874L539.281 435.874M587.215 451.109L559.041 451.109M587.215 451.109L583.578 455.812M587.215 451.109L615.388 451.109M587.215 451.109L590.99 446.226M559.041 451.109L555.924 455.812M559.041 451.109L560.24 449.299L561.05 448.078L562.277 446.226M559.041 451.109L530.868 451.109M583.578 455.812L555.924 455.812M583.578 455.812L611.232 455.812M583.578 455.812L580.074 460.346M555.924 455.812L554.784 457.532L554.033 458.665L552.92 460.346M555.924 455.812L528.27 455.812M573.431 468.937L547.227 468.937M573.431 468.937L571.058 472.006L570.281 473.012M573.431 468.937L599.635 468.937M573.431 468.937L576.279 465.254L576.693 464.718M547.227 468.937L545.192 472.006L544.859 472.51L544.526 473.012M547.227 468.937L548.612 466.847L550.023 464.718M547.227 468.937L521.022 468.937M570.281 473.012L544.526 473.012M570.281 473.012L567.237 476.948M570.281 473.012L596.035 473.012M544.526 473.012L518.772 473.012M544.526 473.012L541.918 476.948M601.914 66.6382L531.276 66.6382M601.914 66.6382L592.382 95.4068M601.914 66.6382L672.552 66.6382M601.914 66.6382L612.389 35.0251M531.276 66.6382L524.921 95.4068M531.276 66.6382L538.259 35.0251M531.276 66.6382L460.638 66.6382M592.382 95.4068L524.921 95.4068M592.382 95.4068L659.842 95.4068M592.382 95.4068L583.67 121.699M524.921 95.4068L519.113 121.699M524.921 95.4068L457.46 95.4068M568.318 168.03L508.879 168.03M568.318 168.03L561.52 188.547M568.318 168.03L627.757 168.03M568.318 168.03L575.677 145.821M508.879 168.03L504.346 188.547M508.879 168.03L513.784 145.821M508.879 168.03L449.439 168.03M561.52 188.547L504.346 188.547M561.52 188.547L618.693 188.547M561.52 188.547L555.221 207.556M504.346 188.547L500.147 207.556M504.346 188.547L447.173 188.547M543.916 241.673L492.611 241.673M543.916 241.673L538.825 257.039M543.916 241.673L595.222 241.673M543.916 241.673L549.368 225.219M492.611 241.673L489.217 257.039M492.611 241.673L496.245 225.219M492.611 241.673L441.305 241.673M538.825 257.039L489.217 257.039M538.825 257.039L588.433 257.039M538.825 257.039L534.06 271.421M489.217 257.039L486.04 271.421M489.217 257.039L439.608 257.039M525.389 297.588L480.26 297.588M525.389 297.588L521.434 309.524M525.389 297.588L570.519 297.588M525.389 297.588L529.59 284.91M480.26 297.588L477.623 309.524M480.26 297.588L483.06 284.91M480.26 297.588L435.13 297.588M521.434 309.524L477.623 309.524M521.434 309.524L565.245 309.524M521.434 309.524L517.703 320.784M477.623 309.524L475.136 320.784M477.623 309.524L433.811 309.524M510.844 341.487L470.562 341.487M510.844 341.487L507.683 351.027M510.844 341.487L551.125 341.487M510.844 341.487L514.179 331.421M470.562 341.487L468.455 351.027M470.562 341.487L472.786 331.421M470.562 341.487L430.281 341.487M507.683 351.027L468.455 351.027M507.683 351.027L546.91 351.027M507.683 351.027L504.683 360.08M468.455 351.027L466.455 360.08M468.455 351.027L429.227 351.027M499.12 376.869L462.747 376.869M499.12 376.869L496.536 384.667M499.12 376.869L535.493 376.869M499.12 376.869L501.832 368.683M462.747 376.869L461.024 384.667M462.747 376.869L464.555 368.683M462.747 376.869L426.373 376.869M496.536 384.667L461.024 384.667M496.536 384.667L532.048 384.667M496.536 384.667L495.598 387.497L494.071 392.104M461.024 384.667L459.381 392.104M461.024 384.667L425.512 384.667M489.47 405.993L456.313 405.993M489.47 405.993L487.318 412.486M489.47 405.993L522.627 405.993M489.47 405.993L491.147 400.931L491.719 399.205M456.313 405.993L455.768 408.461L454.879 412.486M456.313 405.993L457.812 399.205M456.313 405.993L423.156 405.993M487.318 412.486L487.056 413.278L485.258 418.704M487.318 412.486L454.879 412.486M487.318 412.486L519.758 412.486M454.879 412.486L454.356 414.849L454.185 415.629L454.013 416.403L453.505 418.704M454.879 412.486L422.439 412.486M481.388 430.384L450.925 430.384M481.388 430.384L480.469 433.157L480.242 433.841L480.017 434.522L479.792 435.2L479.569 435.874M481.388 430.384L511.85 430.384M481.388 430.384L483.283 424.665M450.925 430.384L450.011 434.522L449.861 435.2L449.712 435.874M450.925 430.384L452.188 424.665M450.925 430.384L420.462 430.384M479.569 435.874L449.712 435.874M479.569 435.874L509.425 435.874M479.569 435.874L478.467 439.197L478.251 439.851L477.82 441.151M449.712 435.874L448.979 439.197L448.833 439.851L448.69 440.503L448.547 441.151M449.712 435.874L419.856 435.874M474.52 451.109L446.347 451.109M474.52 451.109L472.962 455.812M474.52 451.109L502.694 451.109M474.52 451.109L474.92 449.906L475.525 448.078L476.139 446.226M446.347 451.109L446.48 450.509L447.289 446.846L447.426 446.226M446.347 451.109L445.308 455.812M446.347 451.109L418.173 451.109M472.962 455.812L445.308 455.812M472.962 455.812L500.616 455.812M472.962 455.812L471.46 460.346M445.308 455.812L444.928 457.532L444.803 458.1L444.677 458.665L444.306 460.346M445.308 455.812L417.654 455.812M468.613 468.937L442.409 468.937M468.613 468.937L467.596 472.006L467.263 473.012M468.613 468.937L494.818 468.937M468.613 468.937L469.132 467.373L469.306 466.847L469.481 466.318L470.011 464.718M442.409 468.937L442.294 469.454L442.068 470.482L441.842 471.5L441.509 473.012M442.409 468.937L442.871 466.847L442.987 466.318L443.222 465.254L443.34 464.718M442.409 468.937L416.204 468.937M467.263 473.012L441.509 473.012M467.263 473.012L466.12 476.464L465.958 476.948M467.263 473.012L493.018 473.012M441.509 473.012L441.398 473.511L441.288 474.009L441.179 474.504L441.07 474.997L440.746 476.464L440.639 476.948M441.509 473.012L415.754 473.012M319.362 66.6382L248.724 66.6382M319.362 66.6382L322.539 95.4068M319.362 66.6382L390 66.6382M319.362 66.6382L315.87 35.0251M248.724 66.6382L255.078 95.4068M248.724 66.6382L241.741 35.0251M248.724 66.6382L178.086 66.6382M322.539 95.4068L255.078 95.4068M322.539 95.4068L390 95.4068M322.539 95.4068L325.443 121.699M255.078 95.4068L260.887 121.699M255.078 95.4068L187.618 95.4068M330.561 168.03L271.121 168.03M330.561 168.03L332.826 188.547M330.561 168.03L390 168.03M330.561 168.03L328.107 145.821M271.121 168.03L275.653 188.547M271.121 168.03L266.215 145.821M271.121 168.03L211.682 168.03M332.826 188.547L275.653 188.547M332.826 188.547L390 188.547M332.826 188.547L334.926 207.556M275.653 188.547L279.852 207.556M275.653 188.547L218.48 188.547M338.694 241.673L287.388 241.673M338.694 241.673L340.391 257.039M338.694 241.673L390 241.673M338.694 241.673L336.877 225.219M287.388 241.673L290.783 257.039M287.388 241.673L283.754 225.219M287.388 241.673L236.083 241.673M340.391 257.039L290.783 257.039M340.391 257.039L390 257.039M340.391 257.039L341.98 271.421M290.783 257.039L293.96 271.421M290.783 257.039L241.175 257.039M344.87 297.588L299.74 297.588M344.87 297.588L346.188 309.524M344.87 297.588L390 297.588M344.87 297.588L343.47 284.91M299.74 297.588L302.377 309.524M299.74 297.588L296.94 284.91M299.74 297.588L254.61 297.588M346.188 309.524L302.377 309.524M346.188 309.524L390 309.524M346.188 309.524L347.432 320.784M302.377 309.524L304.864 320.784M302.377 309.524L258.565 309.524M349.719 341.487L309.438 341.487M349.719 341.487L350.772 351.027M349.719 341.487L390 341.487M349.719 341.487L348.607 331.421M309.438 341.487L311.544 351.027M309.438 341.487L307.214 331.421M309.438 341.487L269.156 341.487M350.772 351.027L311.544 351.027M350.772 351.027L390 351.027M350.772 351.027L351.772 360.08M311.544 351.027L313.544 360.08M311.544 351.027L272.317 351.027M353.627 376.869L317.253 376.869M353.627 376.869L354.488 384.667M353.627 376.869L390 376.869M353.627 376.869L352.722 368.683M317.253 376.869L318.976 384.667M317.253 376.869L315.445 368.683M317.253 376.869L280.88 376.869M354.488 384.667L318.976 384.667M354.488 384.667L390 384.667M354.488 384.667L355.309 392.104M318.976 384.667L320.619 392.104M318.976 384.667L283.463 384.667M356.843 405.993L323.686 405.993M356.843 405.993L357.56 412.486M356.843 405.993L390 405.993M356.843 405.993L356.093 399.205M323.686 405.993L324.945 411.689L325.121 412.486M323.686 405.993L322.187 399.205M323.686 405.993L290.53 405.993M357.56 412.486L357.647 413.278L358.247 418.704M357.56 412.486L325.121 412.486M357.56 412.486L390 412.486M325.121 412.486L325.643 414.849L325.815 415.629L325.986 416.403L326.494 418.704M325.121 412.486L292.682 412.486M359.537 430.384L329.074 430.384M359.537 430.384L360.144 435.874M359.537 430.384L390 430.384M359.537 430.384L359.303 428.267L359.224 427.554L359.146 426.837L358.986 425.393L358.905 424.665M329.074 430.384L329.989 434.522L330.288 435.874M329.074 430.384L327.811 424.665M329.074 430.384L298.612 430.384M360.144 435.874L330.288 435.874M360.144 435.874L390 435.874M360.144 435.874L360.726 441.151M330.288 435.874L331.021 439.197L331.166 439.851L331.309 440.503L331.453 441.151M330.288 435.874L300.431 435.874M361.826 451.109L333.653 451.109M361.826 451.109L362.346 455.812M361.826 451.109L390 451.109M361.826 451.109L361.287 446.225M333.653 451.109L333.52 450.509L332.711 446.846L332.574 446.225M333.653 451.109L334.692 455.812M333.653 451.109L305.479 451.109M362.346 455.812L334.692 455.812M362.346 455.812L390 455.812M362.346 455.812L362.846 460.346M334.692 455.812L335.072 457.532L335.197 458.1L335.322 458.665L335.693 460.346M334.692 455.812L307.038 455.812M363.795 468.937L337.591 468.937M363.795 468.937L364.245 473.012M363.795 468.937L390 468.937M363.795 468.937L363.329 464.718M337.591 468.937L337.705 469.454L337.932 470.482L338.045 470.992L338.269 472.006L338.38 472.51L338.491 473.012M337.591 468.937L337.129 466.847L337.012 466.318L336.777 465.254L336.659 464.718M337.591 468.937L311.387 468.937M364.245 473.012L364.3 473.511L364.356 474.009L364.41 474.504L364.68 476.948M364.245 473.012L338.491 473.012M364.245 473.012L390 473.012M338.491 473.012L312.736 473.012M338.491 473.012L338.711 474.009L338.821 474.504L338.929 474.997L339.253 476.464L339.361 476.948M36.8094 66.6382L-33.8285 66.6382M36.8094 66.6382L52.697 95.4068M36.8094 66.6382L107.447 66.6382M36.8094 66.6382L19.3511 35.025M-33.8285 66.6382L-14.7634 95.4068M-33.8285 66.6382L-54.7781 35.025M-33.8285 66.6382L-104.467 66.6382M52.697 95.4068L-14.7634 95.4068M52.697 95.4068L120.157 95.4068M52.697 95.4068L67.2165 121.699M-14.7634 95.4068L2.65994 121.699M-14.7634 95.4068L-82.2245 95.4068M92.803 168.03L33.3634 168.03M92.803 168.03L104.133 188.547M92.803 168.03L152.242 168.03M92.803 168.03L80.5376 145.821M33.3634 168.03L46.9597 188.547M33.3634 168.03L18.6455 145.821M33.3634 168.03L-26.0757 168.03M104.133 188.547L46.9597 188.547M104.133 188.547L161.306 188.547M104.133 188.547L114.631 207.556M46.9597 188.547L59.5574 207.556M46.9597 188.547L-10.2136 188.547M133.472 241.673L82.1665 241.673M133.472 241.673L141.958 257.039M133.472 241.673L184.778 241.673M133.472 241.673L124.385 225.219M82.1665 241.673L92.3489 257.039M82.1665 241.673L71.2624 225.219M82.1665 241.673L30.8611 241.673M141.958 257.039L92.3489 257.039M141.958 257.039L191.566 257.039M141.958 257.039L149.9 271.421M92.3489 257.039L101.88 271.421M92.3489 257.039L42.7411 257.039M164.35 297.588L119.22 297.588M164.35 297.588L170.942 309.524M164.35 297.588L209.48 297.588M164.35 297.588L157.349 284.91M119.22 297.588L127.131 309.524M119.22 297.588L110.819 284.91M119.22 297.588L74.0903 297.588M170.942 309.524L127.131 309.524M170.942 309.524L214.754 309.524M170.942 309.524L177.16 320.784M127.131 309.524L134.592 320.784M127.131 309.524L83.3196 309.524M188.594 341.487L148.313 341.487M188.594 341.487L193.862 351.027M188.594 341.487L228.875 341.487M188.594 341.487L183.035 331.421M148.313 341.487L154.634 351.027M148.313 341.487L141.642 331.421M148.313 341.487L108.031 341.487M193.862 351.027L154.634 351.027M193.862 351.027L233.09 351.027M193.862 351.027L198.861 360.08M154.634 351.027L160.633 360.08M154.634 351.027L115.407 351.027M208.133 376.869L171.76 376.869M208.133 376.869L212.44 384.667M208.133 376.869L244.507 376.869M208.133 376.869L203.612 368.683M171.76 376.869L176.928 384.667M171.76 376.869L166.335 368.683M171.76 376.869L135.386 376.869M212.44 384.667L176.928 384.667M212.44 384.667L247.951 384.667M212.44 384.667L216.547 392.104M176.928 384.667L181.856 392.104M176.928 384.667L141.416 384.667M224.216 405.993L223.757 405.161L223.295 404.324L220.469 399.205M224.216 405.993L191.06 405.993M224.216 405.993L227.803 412.486M224.216 405.993L257.373 405.993M191.06 405.993L195.363 412.486M191.06 405.993L186.562 399.205M191.06 405.993L157.903 405.993M227.803 412.486L195.363 412.486M227.803 412.486L260.242 412.486M227.803 412.486L231.236 418.704M195.363 412.486L199.484 418.704M195.363 412.486L162.924 412.486M237.686 430.384L207.223 430.384M237.686 430.384L240.719 435.874M237.686 430.384L268.149 430.384M237.686 430.384L234.528 424.665M207.223 430.384L209.515 433.841L210.862 435.874M207.223 430.384L203.434 424.665M207.223 430.384L176.761 430.384M240.719 435.874L210.862 435.874M240.719 435.874L270.575 435.874M240.719 435.874L243.274 440.503L243.633 441.151M210.862 435.874L214.359 441.151M210.862 435.874L181.006 435.874M249.132 451.109L220.958 451.109M249.132 451.109L249.79 452.302L251.729 455.812M249.132 451.109L277.305 451.109M249.132 451.109L248.467 449.906L247.118 447.464L246.435 446.225M220.958 451.109L224.075 455.812M220.958 451.109L219.759 449.299L218.95 448.078L217.722 446.225M220.958 451.109L192.785 451.109M251.729 455.812L224.075 455.812M251.729 455.812L279.384 455.812M251.729 455.812L253.616 459.229L254.233 460.346M224.075 455.812L225.215 457.532L225.966 458.665L227.08 460.346M224.075 455.812L196.421 455.812M258.977 468.937L232.773 468.937M258.977 468.937L260.393 471.5L261.228 473.012M258.977 468.937L285.182 468.937M258.977 468.937L256.647 464.718M232.773 468.937L234.807 472.006L235.14 472.51L235.473 473.012M232.773 468.937L231.387 466.847L229.977 464.718M232.773 468.937L206.569 468.937M261.228 473.012L235.473 473.012M261.228 473.012L262.324 474.997L262.865 475.977L263.134 476.464L263.401 476.948M261.228 473.012L286.982 473.012M235.473 473.012L209.718 473.012M235.473 473.012L238.082 476.948M-124.56 188.547L-67.387 188.547M-124.56 188.547L-105.664 207.556M-124.56 188.547L-141.691 188.547M-124.56 188.547L-141.691 171.314M-71.7502 241.673L-123.056 241.673M-71.7502 241.673L-56.4763 257.039M-71.7502 241.673L-20.4448 241.673M-71.7502 241.673L-88.1063 225.219M-123.056 241.673L-106.085 257.039M-123.056 241.673L-141.229 225.219M-123.056 241.673L-141.691 241.673M-56.4763 257.039L-106.085 257.039M-56.4763 257.039L-6.86786 257.039M-56.4763 257.039L-42.1799 271.421M-106.085 257.039L-90.1999 271.421M-106.085 257.039L-141.691 257.039M-16.1692 297.588L-61.2992 297.588M-16.1692 297.588L-4.30356 309.524M-16.1692 297.588L28.9608 297.588M-16.1692 297.588L-28.7713 284.91M-61.2992 297.588L-48.1154 309.524M-61.2992 297.588L-75.3014 284.91M-61.2992 297.588L-106.429 297.588M-4.30356 309.524L-48.1154 309.524M-4.30356 309.524L39.5077 309.524M-4.30356 309.524L6.88853 320.784M-48.1154 309.524L-35.6794 320.784M-48.1154 309.524L-91.9267 309.524M27.4688 341.487L-12.8123 341.487M27.4688 341.487L36.9511 351.027M27.4688 341.487L67.7499 341.487M27.4688 341.487L17.4625 331.421M-12.8123 341.487L-2.27594 351.027M-12.8123 341.487L-23.9307 331.421M-12.8123 341.487L-53.0939 341.487M36.9511 351.027L-2.27594 351.027M36.9511 351.027L76.1788 351.027M36.9511 351.027L45.9506 360.08M-2.27594 351.027L7.72314 360.08M-2.27594 351.027L-41.5036 351.027M62.6396 376.869L26.2664 376.869M62.6396 376.869L70.3912 384.667M62.6396 376.869L99.0127 376.869M62.6396 376.869L54.5025 368.683M26.2664 376.869L34.8792 384.667M26.2664 376.869L17.2249 368.683M26.2664 376.869L-10.1068 376.869M70.3912 384.667L34.8792 384.667M70.3912 384.667L105.903 384.667M70.3912 384.667L77.7844 392.104M34.8792 384.667L43.0939 392.104M34.8792 384.667L-0.632728 384.667M91.5896 405.993L58.4332 405.993M91.5896 405.993L98.0446 412.486M91.5896 405.993L124.747 405.993M91.5896 405.993L84.8432 399.205M58.4332 405.993L65.6054 412.486M58.4332 405.993L50.9369 399.205M58.4332 405.993L25.2767 405.993M98.0446 412.486L65.6054 412.486M98.0446 412.486L130.484 412.486M98.0446 412.486L104.226 418.704M65.6054 412.486L72.4736 418.704M65.6054 412.486L33.1656 412.486M115.836 430.384L85.3732 430.384M115.836 430.384L121.294 435.874M115.836 430.384L146.298 430.384M115.836 430.384L110.151 424.665M85.3732 430.384L91.4373 435.874M85.3732 430.384L79.0566 424.665M85.3732 430.384L54.9101 430.384M121.294 435.874L91.4373 435.874M121.294 435.874L151.15 435.874M121.294 435.874L126.539 441.151M91.4373 435.874L97.2653 441.151M91.4373 435.874L61.5812 435.874M136.438 451.109L108.264 451.109M136.438 451.109L141.113 455.812M136.438 451.109L164.611 451.109M136.438 451.109L135.241 449.906L134.639 449.299L131.583 446.225M108.264 451.109L113.459 455.812M108.264 451.109L102.87 446.225M108.264 451.109L80.0906 451.109M141.113 455.812L113.459 455.812M141.113 455.812L168.767 455.812M141.113 455.812L145.619 460.346M113.459 455.812L118.466 460.346M113.459 455.812L85.8052 455.812M154.16 468.937L127.955 468.937M154.16 468.937L158.21 473.012M154.16 468.937L180.364 468.937M154.16 468.937L149.965 464.718M127.955 468.937L131.345 472.006L131.901 472.51L132.456 473.012M127.955 468.937L123.295 464.718M127.955 468.937L101.751 468.937M158.21 473.012L132.456 473.012M158.21 473.012L161.641 476.464L162.123 476.948M158.21 473.012L183.964 473.012M132.456 473.012L106.701 473.012M132.456 473.012L136.803 476.948M-133.656 341.487L-119.959 351.027M-133.656 341.487L-93.375 341.487M-133.656 341.487L-141.691 335.892M-133.656 341.487L-141.691 341.487M-119.959 351.027L-80.7313 351.027M-119.959 351.027L-106.96 360.08M-119.959 351.027L-141.691 351.027M-82.8537 376.869L-119.227 376.869M-82.8537 376.869L-71.6566 384.667M-82.8537 376.869L-46.4805 376.869M-82.8537 376.869L-94.6074 368.683M-119.227 376.869L-107.169 384.667M-119.227 376.869L-131.885 368.683M-119.227 376.869L-141.691 376.869M-71.6566 384.667L-107.169 384.667M-71.6566 384.667L-36.1447 384.667M-71.6566 384.667L-60.9779 392.104M-107.169 384.667L-95.6685 392.104M-107.169 384.667L-141.691 384.667M-41.0367 405.993L-74.1938 405.993M-41.0367 405.993L-31.7133 412.486M-41.0367 405.993L-7.8803 405.993M-41.0367 405.993L-50.7822 399.205M-74.1938 405.993L-64.1526 412.486M-74.1938 405.993L-84.688 399.205M-74.1938 405.993L-107.35 405.993M-31.7133 412.486L-64.1526 412.486M-31.7133 412.486L0.726392 412.486M-31.7133 412.486L-22.7843 418.704M-64.1526 412.486L-54.5373 418.704M-64.1526 412.486L-96.5923 412.486M-6.015 430.384L-36.4775 430.384M-6.015 430.384L1.86903 435.874M-6.015 430.384L24.4476 430.384M-6.015 430.384L-14.2257 424.665M-36.4775 430.384L-27.9876 435.874M-36.4775 430.384L-45.3202 424.665M-36.4775 430.384L-66.9406 430.384M1.86903 435.874L-27.9876 435.874M1.86903 435.874L31.7251 435.874M1.86903 435.874L9.44504 441.151M-27.9876 435.874L-19.8284 441.151M-27.9876 435.874L-57.8437 435.874M23.7431 451.109L-4.43041 451.109M23.7431 451.109L30.4967 455.812M23.7431 451.109L51.9166 451.109M23.7431 451.109L16.7309 446.225M-4.43041 451.109L2.84265 455.812M-4.43041 451.109L-11.9821 446.225M-4.43041 451.109L-32.6039 451.109M30.4967 455.812L2.84265 455.812M30.4967 455.812L58.1512 455.812M30.4967 455.812L37.006 460.346M2.84265 455.812L9.85265 460.346M2.84265 455.812L-24.8114 455.812M49.3418 468.937L23.1372 468.937M49.3418 468.937L55.192 473.012M49.3418 468.937L75.5463 468.937M49.3418 468.937L43.2838 464.718M23.1372 468.937L29.4377 473.012M23.1372 468.937L16.6129 464.718M23.1372 468.937L-3.06743 468.937M55.192 473.012L29.4377 473.012M55.192 473.012L60.8445 476.948M55.192 473.012L80.9463 473.012M29.4377 473.012L3.68281 473.012M29.4377 473.012L35.525 476.948M-127.866 430.384L-117.556 435.874M-127.866 430.384L-97.4032 430.384M-127.866 430.384L-138.603 424.665M-127.866 430.384L-141.691 430.384M-117.556 435.874L-87.6998 435.874M-117.556 435.874L-107.649 441.151M-117.556 435.874L-141.691 435.874M-88.951 451.109L-117.124 451.109M-88.951 451.109L-80.1193 455.812M-88.951 451.109L-60.7774 451.109M-88.951 451.109L-98.121 446.225M-117.124 451.109L-107.773 455.812M-117.124 451.109L-126.834 446.225M-117.124 451.109L-141.691 451.109M-80.1193 455.812L-107.773 455.812M-80.1193 455.812L-52.4653 455.812M-80.1193 455.812L-71.6073 460.346M-107.773 455.812L-98.7607 460.346M-107.773 455.812L-135.427 455.812M-55.476 468.937L-81.6806 468.937M-55.476 468.937L-47.8258 473.012M-55.476 468.937L-29.2715 468.937M-55.476 468.937L-63.3982 464.718M-81.6806 468.937L-73.5801 473.012M-81.6806 468.937L-90.0686 464.718M-81.6806 468.937L-107.885 468.937M-47.8258 473.012L-73.5801 473.012M-47.8258 473.012L-40.4342 476.948M-47.8258 473.012L-22.0715 473.012M-73.5801 473.012L-99.335 473.012M-73.5801 473.012L-65.7537 476.948M-90.0686 464.718L-98.7607 460.346M-90.0686 464.718L-116.74 464.718M-90.0686 464.718L-63.3982 464.718M-107.885 468.937L-99.335 473.012M-107.885 468.937L-116.74 464.718M-107.885 468.937L-134.089 468.937M-99.335 473.012L-125.089 473.012M-99.335 473.012L-91.0733 476.948M-65.7537 476.948L-40.4342 476.948M-65.7537 476.948L-91.0733 476.948M-65.7537 476.948L-58.1871 480.755M-116.74 464.718L-125.915 460.346M-116.74 464.718L-141.691 464.718M-134.089 468.937L-125.089 473.012M-134.089 468.937L-141.691 465.496M-134.089 468.937L-141.691 468.937M-125.089 473.012L-116.393 476.948M-125.089 473.012L-141.691 473.012M-91.0733 476.948L-116.393 476.948M-91.0733 476.948L-83.0863 480.755M-116.393 476.948L-107.985 480.755M-116.393 476.948L-141.691 476.948M-98.7607 460.346L-125.915 460.346M-98.7607 460.346L-71.6073 460.346M-135.427 455.812L-125.915 460.346M-135.427 455.812L-141.691 452.828M-135.427 455.812L-141.691 455.812M-125.915 460.346L-141.691 460.346M-71.6073 460.346L-44.454 460.346M-71.6073 460.346L-63.3982 464.718M-63.3982 464.718L-36.7279 464.718M-126.834 446.225L-136.922 441.151M-126.834 446.225L-98.121 446.225M-126.834 446.225L-141.691 446.225M-141.777 451.109L-141.691 451.109M-136.922 441.151L-107.649 441.151M-136.922 441.151L-141.691 438.752M-136.922 441.151L-141.691 441.151M-107.649 441.151L-78.3753 441.151M-107.649 441.151L-98.121 446.225M-98.121 446.225L-69.408 446.225M16.6129 464.718L9.85265 460.346M16.6129 464.718L-10.0575 464.718M16.6129 464.718L43.2838 464.718M-3.06743 468.937L3.68281 473.012M-3.06743 468.937L-10.0575 464.718M-3.06743 468.937L-29.2715 468.937M3.68281 473.012L-22.0715 473.012M3.68281 473.012L10.2055 476.948M35.525 476.948L10.2055 476.948M35.525 476.948L41.4101 480.755M35.525 476.948L60.8445 476.948M-10.0575 464.718L-17.3007 460.346M-10.0575 464.718L-36.7279 464.718M-29.2715 468.937L-22.0715 473.012M-29.2715 468.937L-36.7279 464.718M-22.0715 473.012L-15.1146 476.948M10.2055 476.948L-15.1146 476.948M10.2055 476.948L16.5109 480.755M-36.7279 464.718L-44.454 460.346M-40.4342 476.948L-15.1146 476.948M-40.4342 476.948L-33.2874 480.755M-15.1146 476.948L-8.38818 480.755M9.85265 460.346L-17.3007 460.346M9.85265 460.346L37.006 460.346M-24.8114 455.812L-17.3007 460.346M-24.8114 455.812L-32.6039 451.109M-24.8114 455.812L-52.4653 455.812M-17.3007 460.346L-44.454 460.346M37.006 460.346L64.1593 460.346M37.006 460.346L43.2838 464.718M-44.454 460.346L-52.4653 455.812M43.2838 464.718L69.9541 464.718M-32.6039 451.109L-40.695 446.225M-32.6039 451.109L-60.7774 451.109M-52.4653 455.812L-60.7774 451.109M-60.7774 451.109L-69.408 446.225M-11.9821 446.225L-19.8284 441.151M-11.9821 446.225L-40.695 446.225M-11.9821 446.225L16.7309 446.225M-40.695 446.225L-49.1018 441.151M-40.695 446.225L-69.408 446.225M-69.408 446.225L-78.3753 441.151M-19.8284 441.151L-49.1018 441.151M-19.8284 441.151L9.44504 441.151M-57.8437 435.874L-49.1018 441.151M-57.8437 435.874L-66.9406 430.384M-57.8437 435.874L-87.6998 435.874M-49.1018 441.151L-78.3753 441.151M9.44504 441.151L38.7185 441.151M9.44504 441.151L16.7309 446.225M-78.3753 441.151L-87.6998 435.874M16.7309 446.225L45.4438 446.225M-66.9406 430.384L-76.4147 424.665M-66.9406 430.384L-97.4032 430.384M-87.6998 435.874L-97.4032 430.384M-97.4032 430.384L-107.509 424.665M-45.3202 424.665L-54.5373 418.704M-45.3202 424.665L-76.4147 424.665M-45.3202 424.665L-14.2257 424.665M-76.4147 424.665L-86.2897 418.704M-76.4147 424.665L-107.509 424.665M-107.509 424.665L-118.042 418.704M-107.509 424.665L-138.603 424.665M-138.603 424.665L-141.691 424.665M-138.603 424.665L-141.691 423.021M-54.5373 418.704L-86.2897 418.704M-54.5373 418.704L-22.7843 418.704M-96.5923 412.486L-86.2897 418.704M-96.5923 412.486L-107.35 405.993M-96.5923 412.486L-129.032 412.486M-86.2897 418.704L-118.042 418.704M-22.7843 418.704L8.96821 418.704M-22.7843 418.704L-14.2257 424.665M-118.042 418.704L-129.032 412.486M-118.042 418.704L-141.691 418.704M-14.2257 424.665L16.8682 424.665M-107.35 405.993L-118.594 399.205M-107.35 405.993L-140.507 405.993M-129.032 412.486L-140.507 405.993M-129.032 412.486L-141.691 412.486M-141.857 418.704L-141.691 418.704M-140.507 405.993L-141.691 405.323M-140.507 405.993L-141.691 405.993M-84.688 399.205L-95.6685 392.104M-84.688 399.205L-118.594 399.205M-84.688 399.205L-50.7822 399.205M-118.594 399.205L-130.359 392.104M-118.594 399.205L-141.691 399.205M-141.977 405.161L-141.691 405.323M-95.6685 392.104L-130.359 392.104M-95.6685 392.104L-60.9779 392.104M-130.359 392.104L-141.691 392.104M-130.359 392.104L-141.691 385.265M-60.9779 392.104L-26.2873 392.104M-60.9779 392.104L-50.7822 399.205M-50.7822 399.205L-16.8759 399.205M-131.885 368.683L-94.6074 368.683M-131.885 368.683L-141.691 362.341M-131.885 368.683L-141.691 368.683M-141.961 376.869L-141.691 376.869M-94.6074 368.683L-57.3298 368.683M-94.6074 368.683L-106.96 360.08M-141.799 362.272L-141.691 362.341M123.295 464.718L118.466 460.346M123.295 464.718L96.6245 464.718M123.295 464.718L149.965 464.718M101.751 468.937L106.701 473.012M101.751 468.937L96.6245 464.718M101.751 468.937L75.5463 468.937M106.701 473.012L80.9463 473.012M106.701 473.012L111.484 476.948M136.803 476.948L111.484 476.948M136.803 476.948L138.397 478.391L141.007 480.755M136.803 476.948L162.123 476.948M96.6245 464.718L91.3126 460.346M96.6245 464.718L69.9541 464.718M75.5463 468.937L80.9463 473.012M75.5463 468.937L69.9541 464.718M80.9463 473.012L86.1641 476.948M111.484 476.948L86.1641 476.948M111.484 476.948L116.108 480.755M69.9541 464.718L64.1593 460.346M60.8445 476.948L66.3093 480.755M60.8445 476.948L86.1641 476.948M86.1641 476.948L86.8038 477.432L88.076 478.391L91.2085 480.755M118.466 460.346L91.3126 460.346M118.466 460.346L145.619 460.346M85.8052 455.812L91.3126 460.346M85.8052 455.812L80.0906 451.109M85.8052 455.812L58.1512 455.812M91.3126 460.346L64.1593 460.346M145.619 460.346L172.773 460.346M145.619 460.346L149.965 464.718M64.1593 460.346L58.1512 455.812M149.965 464.718L176.636 464.718M80.0906 451.109L74.1567 446.225M80.0906 451.109L51.9166 451.109M58.1512 455.812L57.3841 455.235L51.9166 451.109M51.9166 451.109L45.4438 446.225M102.87 446.225L102.181 445.601L97.2653 441.151M102.87 446.225L74.1567 446.225M102.87 446.225L131.583 446.225M74.1567 446.225L67.9919 441.151M74.1567 446.225L45.4438 446.225M45.4438 446.225L38.7185 441.151M97.2653 441.151L67.9919 441.151M97.2653 441.151L126.539 441.151M61.5812 435.874L67.9919 441.151M61.5812 435.874L54.9101 430.384M61.5812 435.874L31.7251 435.874M67.9919 441.151L38.7185 441.151M126.539 441.151L155.812 441.151M126.539 441.151L131.583 446.225M38.7185 441.151L31.7251 435.874M131.583 446.225L160.296 446.225M54.9101 430.384L47.9627 424.665M54.9101 430.384L24.4476 430.384M31.7251 435.874L24.4476 430.384M24.4476 430.384L16.8682 424.665M79.0566 424.665L72.4736 418.704M79.0566 424.665L47.9627 424.665M79.0566 424.665L110.151 424.665M47.9627 424.665L40.7206 418.704M47.9627 424.665L16.8682 424.665M16.8682 424.665L8.96821 418.704M72.4736 418.704L40.7206 418.704M72.4736 418.704L104.226 418.704M33.1656 412.486L40.7206 418.704M33.1656 412.486L25.2767 405.993M33.1656 412.486L0.726392 412.486M40.7206 418.704L8.96821 418.704M104.226 418.704L135.979 418.704M104.226 418.704L110.151 424.665M8.96821 418.704L0.726392 412.486M110.151 424.665L141.246 424.665M25.2767 405.993L17.0305 399.205M25.2767 405.993L-7.8803 405.993M0.726392 412.486L-7.8803 405.993M-7.8803 405.993L-16.8759 399.205M50.9369 399.205L43.0939 392.104M50.9369 399.205L17.0305 399.205M50.9369 399.205L84.8432 399.205M17.0305 399.205L8.40328 392.104M17.0305 399.205L-16.8759 399.205M-16.8759 399.205L-26.2873 392.104M43.0939 392.104L8.40328 392.104M43.0939 392.104L77.7844 392.104M-0.632728 384.667L8.40328 392.104M-0.632728 384.667L-10.1068 376.869M-0.632728 384.667L-36.1447 384.667M8.40328 392.104L-26.2873 392.104M77.7844 392.104L112.475 392.104M77.7844 392.104L84.8432 399.205M-26.2873 392.104L-36.1447 384.667M84.8432 399.205L118.75 399.205M-10.1068 376.869L-20.0522 368.683M-10.1068 376.869L-46.4805 376.869M-36.1447 384.667L-46.4805 376.869M-46.4805 376.869L-57.3298 368.683M17.2249 368.683L7.72314 360.08M17.2249 368.683L-20.0522 368.683M17.2249 368.683L54.5025 368.683M-20.0522 368.683L-30.5048 360.08M-20.0522 368.683L-57.3298 368.683M-57.3298 368.683L-68.7323 360.08M7.72314 360.08L-30.5048 360.08M7.72314 360.08L45.9506 360.08M-41.5036 351.027L-30.5048 360.08M-41.5036 351.027L-53.0939 341.487M-41.5036 351.027L-80.7313 351.027M-30.5048 360.08L-68.7323 360.08M45.9506 360.08L84.1786 360.08M45.9506 360.08L54.5025 368.683M-68.7323 360.08L-80.7313 351.027M-68.7323 360.08L-106.96 360.08M54.5025 368.683L91.7801 368.683M-53.0939 341.487L-65.3234 331.421M-53.0939 341.487L-93.375 341.487M-80.7313 351.027L-93.375 341.487M-106.96 360.08L-141.691 360.08M-93.375 341.487L-106.717 331.421M-23.9307 331.421L-35.6794 320.784M-23.9307 331.421L-65.3234 331.421M-23.9307 331.421L17.4625 331.421M-65.3234 331.421L-78.2473 320.784M-65.3234 331.421L-106.717 331.421M-106.717 331.421L-120.815 320.784M-106.717 331.421L-141.691 331.421M-35.6794 320.784L-78.2473 320.784M-35.6794 320.784L6.88853 320.784M-91.9267 309.524L-78.2473 320.784M-91.9267 309.524L-106.429 297.588M-91.9267 309.524L-135.738 309.524M-78.2473 320.784L-120.815 320.784M6.88853 320.784L49.4564 320.784M6.88853 320.784L17.4625 331.421M-120.815 320.784L-135.738 309.524M-120.815 320.784L-141.691 320.784M17.4625 331.421L58.8557 331.421M-106.429 297.588L-121.832 284.91M-106.429 297.588L-141.691 297.588M-135.738 309.524L-141.691 309.524M-135.738 309.524L-141.691 305.033M-75.3014 284.91L-90.1999 271.421M-75.3014 284.91L-121.832 284.91M-75.3014 284.91L-28.7713 284.91M-121.832 284.91L-138.22 271.421M-121.832 284.91L-141.691 284.91M-90.1999 271.421L-138.22 271.421M-90.1999 271.421L-42.1799 271.421M-138.22 271.421L-141.691 268.564M-138.22 271.421L-141.691 271.421M-42.1799 271.421L5.84007 271.421M-42.1799 271.421L-28.7713 284.91M-28.7713 284.91L17.7588 284.91M-141.229 225.219L-88.1063 225.219M-141.229 225.219L-141.691 225.219M-141.229 225.219L-141.691 224.802M-88.1063 225.219L-34.9838 225.219M-88.1063 225.219L-105.664 207.556M229.977 464.718L228.903 463.097L228.541 462.551L227.08 460.346M229.977 464.718L203.307 464.718M229.977 464.718L256.647 464.718M206.569 468.937L208.941 472.006L209.718 473.012M206.569 468.937L203.72 465.254L203.307 464.718M206.569 468.937L180.364 468.937M209.718 473.012L183.964 473.012M209.718 473.012L212.762 476.948M238.082 476.948L212.762 476.948M238.082 476.948L239.038 478.391L240.604 480.755M238.082 476.948L263.401 476.948M203.307 464.718L202.472 463.64L199.926 460.346M203.307 464.718L176.636 464.718M180.364 468.937L183.964 473.012M180.364 468.937L176.636 464.718M183.964 473.012L186.584 475.977L187.443 476.948M212.762 476.948L187.443 476.948M212.762 476.948L215.705 480.755M176.636 464.718L172.773 460.346M162.123 476.948L162.603 477.432L165.907 480.755M162.123 476.948L187.443 476.948M187.443 476.948L188.717 478.391L190.806 480.755M227.08 460.346L199.926 460.346M227.08 460.346L254.233 460.346M196.421 455.812L199.926 460.346M196.421 455.812L192.785 451.109M196.421 455.812L168.767 455.812M199.926 460.346L172.773 460.346M254.233 460.346L281.386 460.346M254.233 460.346L256.647 464.718M172.773 460.346L168.767 455.812M256.647 464.718L283.318 464.718M192.785 451.109L190.442 448.078L189.966 447.464L189.009 446.225M192.785 451.109L164.611 451.109M168.767 455.812L164.611 451.109M164.611 451.109L160.296 446.225M217.722 446.225L214.359 441.151M217.722 446.225L189.009 446.225M217.722 446.225L246.435 446.225M189.009 446.225L185.086 441.151M189.009 446.225L160.296 446.225M160.296 446.225L155.812 441.151M214.359 441.151L185.086 441.151M214.359 441.151L243.633 441.151M181.006 435.874L183.575 439.197L184.08 439.851L185.086 441.151M181.006 435.874L176.761 430.384M181.006 435.874L151.15 435.874M185.086 441.151L155.812 441.151M243.633 441.151L272.906 441.151M243.633 441.151L246.435 446.225M155.812 441.151L151.15 435.874M246.435 446.225L275.148 446.225M176.761 430.384L172.339 424.665M176.761 430.384L146.298 430.384M151.15 435.874L146.298 430.384M146.298 430.384L141.246 424.665M203.434 424.665L201.479 421.716L200.985 420.969L199.484 418.704M203.434 424.665L172.339 424.665M203.434 424.665L234.528 424.665M172.339 424.665L167.732 418.704M172.339 424.665L141.246 424.665M141.246 424.665L135.979 418.704M199.484 418.704L167.732 418.704M199.484 418.704L231.236 418.704M162.924 412.486L167.732 418.704M162.924 412.486L157.903 405.993M162.924 412.486L130.484 412.486M167.732 418.704L135.979 418.704M231.236 418.704L262.989 418.704M231.236 418.704L232.073 420.218L234.528 424.665M135.979 418.704L130.484 412.486M234.528 424.665L265.622 424.665M157.903 405.993L152.656 399.205M157.903 405.993L124.747 405.993M130.484 412.486L124.747 405.993M124.747 405.993L118.75 399.205M186.562 399.205L181.856 392.104M186.562 399.205L152.656 399.205M186.562 399.205L220.469 399.205M152.656 399.205L147.166 392.104M152.656 399.205L118.75 399.205M118.75 399.205L112.475 392.104M181.856 392.104L147.166 392.104M181.856 392.104L216.547 392.104M141.416 384.667L147.166 392.104M141.416 384.667L135.386 376.869M141.416 384.667L105.903 384.667M147.166 392.104L112.475 392.104M216.547 392.104L251.237 392.104M216.547 392.104L220.469 399.205M112.475 392.104L105.903 384.667M220.469 399.205L254.374 399.205M135.386 376.869L129.058 368.683M135.386 376.869L99.0127 376.869M105.903 384.667L99.0127 376.869M99.0127 376.869L91.7801 368.683M166.335 368.683L160.633 360.08M166.335 368.683L129.058 368.683M166.335 368.683L203.612 368.683M129.058 368.683L122.406 360.08M129.058 368.683L91.7801 368.683M91.7801 368.683L84.1786 360.08M160.633 360.08L122.406 360.08M160.633 360.08L198.861 360.08M115.407 351.027L122.406 360.08M115.407 351.027L108.031 341.487M115.407 351.027L76.1788 351.027M122.406 360.08L84.1786 360.08M198.861 360.08L237.089 360.08M198.861 360.08L203.612 368.683M84.1786 360.08L76.1788 351.027M203.612 368.683L240.89 368.683M108.031 341.487L100.248 331.421M108.031 341.487L67.7499 341.487M76.1788 351.027L67.7499 341.487M67.7499 341.487L58.8557 331.421M141.642 331.421L134.592 320.784M141.642 331.421L100.248 331.421M141.642 331.421L183.035 331.421M100.248 331.421L92.0244 320.784M100.248 331.421L58.8557 331.421M58.8557 331.421L49.4564 320.784M134.592 320.784L92.0244 320.784M134.592 320.784L177.16 320.784M83.3196 309.524L92.0244 320.784M83.3196 309.524L74.0903 297.588M83.3196 309.524L39.5077 309.524M92.0244 320.784L49.4564 320.784M177.16 320.784L219.728 320.784M177.16 320.784L183.035 331.421M49.4564 320.784L39.5077 309.524M183.035 331.421L224.427 331.421M74.0903 297.588L64.289 284.91M74.0903 297.588L28.9608 297.588M39.5077 309.524L28.9608 297.588M28.9608 297.588L17.7588 284.91M110.819 284.91L101.88 271.421M110.819 284.91L64.289 284.91M110.819 284.91L157.349 284.91M64.289 284.91L53.86 271.421M64.289 284.91L17.7588 284.91M17.7588 284.91L5.84007 271.421M101.88 271.421L53.86 271.421M101.88 271.421L149.9 271.421M42.7411 257.039L53.86 271.421M42.7411 257.039L30.8611 241.673M42.7411 257.039L-6.86786 257.039M53.86 271.421L5.84007 271.421M149.9 271.421L197.92 271.421M149.9 271.421L157.349 284.91M5.84007 271.421L-6.86786 257.039M157.349 284.91L203.879 284.91M30.8611 241.673L18.1393 225.219M30.8611 241.673L-20.4448 241.673M-6.86786 257.039L-20.4448 241.673M-20.4448 241.673L-34.9838 225.219M71.2624 225.219L59.5574 207.556M71.2624 225.219L18.1393 225.219M71.2624 225.219L124.385 225.219M18.1393 225.219L4.48372 207.556M18.1393 225.219L-34.9838 225.219M-34.9838 225.219L-50.5905 207.556M59.5574 207.556L4.48372 207.556M59.5574 207.556L114.631 207.556M-10.2136 188.547L4.48372 207.556M-10.2136 188.547L-26.0757 168.03M-10.2136 188.547L-67.387 188.547M4.48372 207.556L-50.5905 207.556M114.631 207.556L169.705 207.556M114.631 207.556L124.385 225.219M-50.5905 207.556L-67.387 188.547M-50.5905 207.556L-105.664 207.556M124.385 225.219L177.508 225.219M-26.0757 168.03L-43.2471 145.821M-26.0757 168.03L-85.5149 168.03M-67.387 188.547L-85.5149 168.03M-105.664 207.556L-141.691 207.556M-85.5149 168.03L-105.14 145.821M-85.5149 168.03L-141.691 168.03M18.6455 145.821L2.65994 121.699M18.6455 145.821L-43.2471 145.821M18.6455 145.821L80.5376 145.821M-43.2471 145.821L-61.8967 121.699M-43.2471 145.821L-105.14 145.821M-105.14 145.821L-126.453 121.699M-105.14 145.821L-141.691 145.82M2.65994 121.699L-61.8967 121.699M2.65994 121.699L67.2165 121.699M-82.2245 95.4068L-61.8967 121.699M-82.2245 95.4068L-104.467 66.6382M-82.2245 95.4068L-141.691 95.4068M-61.8967 121.699L-126.453 121.699M67.2165 121.699L131.773 121.699M67.2165 121.699L80.5376 145.821M-126.453 121.699L-141.691 121.699M-126.453 121.699L-141.691 104.454M80.5376 145.821L142.43 145.821M-104.467 66.6382L-128.908 35.025M-104.467 66.6382L-141.691 66.6382M-54.7781 35.025L-77.9067 0.124002M-54.7781 35.025L-128.908 35.025M-54.7781 35.025L19.3511 35.025M-128.908 35.025L-141.691 18.4911M-128.908 35.025L-141.691 35.025M-141.691 0.124637L-77.9067 0.124002L0.0779329 0.124008M0.0779329 0.124008L78.0619 0.124015M0.0779329 0.124008L19.3511 35.025M19.3511 35.025L93.4809 35.025M336.659 464.718L336.54 464.18L336.421 463.64L336.301 463.097L336.181 462.551L335.815 460.901L335.693 460.346M336.659 464.718L309.988 464.718M336.659 464.718L363.329 464.718M311.387 468.937L312.403 472.006L312.736 473.012M311.387 468.937L310.518 466.318L309.988 464.718M311.387 468.937L285.182 468.937M312.736 473.012L286.982 473.012M312.736 473.012L313.719 475.977L314.041 476.948M339.361 476.948L339.467 477.432L339.889 479.342L340.201 480.755M339.361 476.948L314.041 476.948M339.361 476.948L364.68 476.948M309.988 464.718L309.81 464.18L309.631 463.64L309.451 463.097L309.27 462.551L308.54 460.346M309.988 464.718L283.318 464.718M285.182 468.937L286.538 472.006L286.982 473.012M285.182 468.937L283.318 464.718M286.982 473.012L287.859 474.997L288.507 476.464L288.721 476.948M314.041 476.948L314.201 477.432L314.519 478.391L314.834 479.342L314.99 479.815L315.302 480.755M314.041 476.948L288.721 476.948M283.318 464.718L281.876 461.454L281.386 460.346M263.401 476.948L264.984 479.815L265.503 480.755M263.401 476.948L288.721 476.948M288.721 476.948L290.195 480.286L290.403 480.755M335.693 460.346L308.54 460.346M335.693 460.346L362.846 460.346M307.038 455.812L308.54 460.346M307.038 455.812L305.479 451.109M307.038 455.812L279.384 455.812M308.54 460.346L281.386 460.346M362.846 460.346L390 460.346M362.846 460.346L363.329 464.718M281.386 460.346L279.384 455.812M363.329 464.718L390 464.718M305.479 451.109L305.08 449.906L304.475 448.078L303.861 446.225M305.479 451.109L277.305 451.109M279.384 455.812L279.128 455.235L277.305 451.109M277.305 451.109L277.04 450.509L276.773 449.906L276.506 449.299L275.148 446.225M332.574 446.225L331.453 441.151M332.574 446.225L303.861 446.225M332.574 446.225L361.287 446.225M303.861 446.225L302.179 441.151M303.861 446.225L275.148 446.225M275.148 446.225L273.475 442.438L273.191 441.796L272.906 441.151M331.453 441.151L302.179 441.151M331.453 441.151L360.726 441.151M300.431 435.874L300.208 435.2L299.983 434.522L299.757 433.841L298.612 430.384M300.431 435.874L301.314 438.539L301.532 439.197L301.749 439.851L302.179 441.151M300.431 435.874L270.575 435.874M302.179 441.151L272.906 441.151M360.726 441.151L390 441.151M360.726 441.151L361.287 446.225M272.906 441.151L270.575 435.874M361.287 446.225L390 446.225M298.612 430.384L296.958 425.393L296.717 424.665M298.612 430.384L268.149 430.384M270.575 435.874L269.977 434.522L268.149 430.384M268.149 430.384L267.214 428.267L265.622 424.665M327.811 424.665L327.159 421.716L326.995 420.969L326.494 418.704M327.811 424.665L296.717 424.665M327.811 424.665L358.905 424.665M296.717 424.665L294.742 418.704M296.717 424.665L265.622 424.665M265.622 424.665L262.989 418.704M326.494 418.704L294.742 418.704M326.494 418.704L358.247 418.704M292.682 412.486L294.742 418.704M292.682 412.486L290.53 405.993M292.682 412.486L260.242 412.486M294.742 418.704L262.989 418.704M358.247 418.704L390 418.704M358.247 418.704L358.414 420.218L358.743 423.198L358.905 424.665M262.989 418.704L260.242 412.486M358.905 424.665L390 424.665M290.53 405.993L288.853 400.931L288.281 399.205M290.53 405.993L257.373 405.993M260.242 412.486L257.373 405.993M257.373 405.993L255.891 402.637L254.374 399.205M322.187 399.205L320.619 392.104M322.187 399.205L288.281 399.205M322.187 399.205L356.093 399.205M288.281 399.205L285.928 392.104M288.281 399.205L254.374 399.205M254.374 399.205L251.237 392.104M320.619 392.104L285.928 392.104M320.619 392.104L355.309 392.104M283.463 384.667L284.091 386.559L285.928 392.104M283.463 384.667L280.88 376.869M283.463 384.667L247.951 384.667M285.928 392.104L251.237 392.104M355.309 392.104L390 392.104M355.309 392.104L356.093 399.205M251.237 392.104L247.951 384.667M356.093 399.205L390 399.205M280.88 376.869L278.167 368.683M280.88 376.869L244.507 376.869M247.951 384.667L244.507 376.869M244.507 376.869L240.89 368.683M315.445 368.683L313.544 360.08M315.445 368.683L278.167 368.683M315.445 368.683L352.722 368.683M278.167 368.683L275.317 360.08M278.167 368.683L240.89 368.683M240.89 368.683L237.089 360.08M313.544 360.08L275.317 360.08M313.544 360.08L351.772 360.08M272.317 351.027L275.317 360.08M272.317 351.027L269.156 341.487M272.317 351.027L233.09 351.027M275.317 360.08L237.089 360.08M351.772 360.08L390 360.08M351.772 360.08L352.606 367.631L352.722 368.683M237.089 360.08L233.09 351.027M352.722 368.683L390 368.683M269.156 341.487L265.821 331.421M269.156 341.487L228.875 341.487M233.09 351.027L229.95 343.919L228.875 341.487M228.875 341.487L224.427 331.421M307.214 331.421L304.864 320.784M307.214 331.421L265.821 331.421M307.214 331.421L348.607 331.421M265.821 331.421L262.296 320.784M265.821 331.421L224.427 331.421M224.427 331.421L219.728 320.784M304.864 320.784L262.296 320.784M304.864 320.784L347.432 320.784M258.565 309.524L262.296 320.784M258.565 309.524L254.61 297.588M258.565 309.524L214.754 309.524M262.296 320.784L219.728 320.784M347.432 320.784L390 320.784M347.432 320.784L348.607 331.421M219.728 320.784L214.754 309.524M348.607 331.421L390 331.421M254.61 297.588L250.409 284.91M254.61 297.588L209.48 297.588M214.754 309.524L209.48 297.588M209.48 297.588L203.879 284.91M296.94 284.91L293.96 271.421M296.94 284.91L250.409 284.91M296.94 284.91L343.47 284.91M250.409 284.91L245.94 271.421M250.409 284.91L203.879 284.91M203.879 284.91L197.92 271.421M293.96 271.421L245.94 271.421M293.96 271.421L341.98 271.421M241.175 257.039L245.94 271.421M241.175 257.039L236.083 241.673M241.175 257.039L191.566 257.039M245.94 271.421L197.92 271.421M341.98 271.421L390 271.421M341.98 271.421L343.47 284.91M197.92 271.421L191.566 257.039M343.47 284.91L390 284.91M236.083 241.673L230.631 225.219M236.083 241.673L184.778 241.673M191.566 257.039L184.778 241.673M184.778 241.673L177.508 225.219M283.754 225.219L279.852 207.556M283.754 225.219L230.631 225.219M283.754 225.219L336.877 225.219M230.631 225.219L224.779 207.556M230.631 225.219L177.508 225.219M177.508 225.219L169.705 207.556M279.852 207.556L224.779 207.556M279.852 207.556L334.926 207.556M218.48 188.547L224.779 207.556M218.48 188.547L211.682 168.03M218.48 188.547L161.306 188.547M224.779 207.556L169.705 207.556M334.926 207.556L390 207.556M334.926 207.556L336.877 225.219M169.705 207.556L161.306 188.547M336.877 225.219L390 225.219M211.682 168.03L204.322 145.821M211.682 168.03L152.242 168.03M161.306 188.547L152.242 168.03M152.242 168.03L142.43 145.821M266.215 145.821L260.887 121.699M266.215 145.821L204.322 145.821M266.215 145.821L328.107 145.821M204.322 145.821L196.33 121.699M204.322 145.821L142.43 145.821M142.43 145.821L131.773 121.699M260.887 121.699L196.33 121.699M260.887 121.699L325.443 121.699M187.618 95.4068L196.33 121.699M187.618 95.4068L178.086 66.6382M187.618 95.4068L120.157 95.4068M196.33 121.699L131.773 121.699M325.443 121.699L390 121.699M325.443 121.699L328.107 145.821M131.773 121.699L120.157 95.4068M328.107 145.821L390 145.821M178.086 66.6382L167.611 35.0251M178.086 66.6382L107.447 66.6382M120.157 95.4068L107.447 66.6382M107.447 66.6382L93.4809 35.025M241.741 35.0251L234.031 0.124029M241.741 35.0251L167.611 35.0251M241.741 35.0251L315.87 35.0251M167.611 35.0251L156.047 0.124022M167.611 35.0251L93.4809 35.025M93.4809 35.025L78.0619 0.124015M156.047 0.124022L234.031 0.124029M156.047 0.124022L78.0619 0.124015M234.031 0.124029L312.015 0.124036M312.015 0.124036L390 0.124042M312.015 0.124036L315.87 35.0251M315.87 35.0251L390 35.0251M443.34 464.718L443.46 464.18L443.579 463.64L443.699 463.097L443.819 462.551L444.062 461.454L444.184 460.901L444.306 460.346M443.34 464.718L416.67 464.718M443.34 464.718L470.011 464.718M416.204 468.937L415.754 473.012M416.204 468.937L416.67 464.718M416.204 468.937L390 468.937M415.754 473.012L415.699 473.511L415.644 474.009L415.59 474.504L415.319 476.948M415.754 473.012L390 473.012M440.639 476.948L440.532 477.432L440.11 479.342L439.798 480.755M440.639 476.948L415.319 476.948M440.639 476.948L465.958 476.948M416.67 464.718L416.73 464.18L416.789 463.64L416.85 463.097L417.153 460.346M416.67 464.718L390 464.718M390 468.937L390 473.012M390 468.937L390 464.718M390 473.012L390 476.948M415.319 476.948L390 476.948M415.319 476.948L415.16 478.391L415.107 478.868L414.899 480.755M390 464.718L390 460.346M364.68 476.948L364.839 478.391L364.892 478.868L364.944 479.342L364.997 479.815L365.048 480.286L365.101 480.755M364.68 476.948L390 476.948M390 476.948L390 480.755M444.306 460.346L417.153 460.346M444.306 460.346L471.46 460.346M417.654 455.812L417.718 455.235L417.782 454.653L418.173 451.109M417.654 455.812L417.153 460.346M417.654 455.812L390 455.812M417.153 460.346L390 460.346M471.46 460.346L498.613 460.346M471.46 460.346L471.093 461.454L470.91 462.004L470.729 462.551L470.548 463.097L470.369 463.64L470.189 464.18L470.011 464.718M390 460.346L390 455.812M470.011 464.718L496.682 464.718M418.173 451.109L418.713 446.225M418.173 451.109L390 451.109M390 455.812L390 451.109M390 451.109L390 446.225M447.426 446.226L448.547 441.151M447.426 446.226L418.713 446.225M447.426 446.226L476.139 446.226M418.713 446.225L419.273 441.151M418.713 446.225L390 446.225M390 446.225L390 441.151M448.547 441.151L419.273 441.151M448.547 441.151L477.82 441.151M419.856 435.874L419.273 441.151M419.856 435.874L420.462 430.384M419.856 435.874L390 435.874M419.273 441.151L390 441.151M477.82 441.151L507.093 441.151M477.82 441.151L476.139 446.226M390 441.151L390 435.874M476.139 446.226L504.852 446.226M420.462 430.384L420.696 428.267L420.934 426.117L421.094 424.665M420.462 430.384L390 430.384M390 435.874L390 430.384M390 430.384L390 424.665M452.188 424.665L452.84 421.716L453.004 420.969L453.505 418.704M452.188 424.665L421.094 424.665M452.188 424.665L483.283 424.665M421.094 424.665L421.256 423.198L421.585 420.218L421.752 418.704M421.094 424.665L390 424.665M390 424.665L390 418.704M453.505 418.704L421.752 418.704M453.505 418.704L485.258 418.704M422.439 412.486L422.352 413.278L421.752 418.704M422.439 412.486L423.156 405.993M422.439 412.486L390 412.486M421.752 418.704L390 418.704M485.258 418.704L517.01 418.704M485.258 418.704L483.283 424.665M390 418.704L390 412.486M483.283 424.665L514.377 424.665M423.156 405.993L423.906 399.205M423.156 405.993L390 405.993M390 412.486L390 405.993M390 405.993L390 399.205M457.812 399.205L459.381 392.104M457.812 399.205L423.906 399.205M457.812 399.205L491.719 399.205M423.906 399.205L424.69 392.104M423.906 399.205L390 399.205M390 399.205L390 392.104M459.381 392.104L424.69 392.104M459.381 392.104L494.071 392.104M425.512 384.667L424.69 392.104M425.512 384.667L426.373 376.869M425.512 384.667L390 384.667M424.69 392.104L390 392.104M494.071 392.104L528.762 392.104M494.071 392.104L491.719 399.205M390 392.104L390 384.667M491.719 399.205L525.625 399.205M426.373 376.869L427.277 368.683M426.373 376.869L390 376.869M390 384.667L390 376.869M390 376.869L390 368.683M464.555 368.683L466.455 360.08M464.555 368.683L427.277 368.683M464.555 368.683L501.832 368.683M427.277 368.683L428.227 360.08M427.277 368.683L390 368.683M390 368.683L390 360.08M466.455 360.08L428.227 360.08M466.455 360.08L504.683 360.08M429.227 351.027L428.227 360.08M429.227 351.027L430.281 341.487M429.227 351.027L390 351.027M428.227 360.08L390 360.08M504.683 360.08L542.911 360.08M504.683 360.08L501.832 368.683M390 360.08L390 351.027M501.832 368.683L539.11 368.683M430.281 341.487L431.393 331.421M430.281 341.487L390 341.487M390 351.027L390 341.487M390 341.487L390 331.421M472.786 331.421L475.136 320.784M472.786 331.421L431.393 331.421M472.786 331.421L514.179 331.421M431.393 331.421L432.568 320.784M431.393 331.421L390 331.421M390 331.421L390 320.784M475.136 320.784L432.568 320.784M475.136 320.784L517.703 320.784M433.811 309.524L432.568 320.784M433.811 309.524L435.13 297.588M433.811 309.524L390 309.524M432.568 320.784L390 320.784M517.703 320.784L560.271 320.784M517.703 320.784L514.179 331.421M390 320.784L390 309.524M514.179 331.421L555.572 331.421M435.13 297.588L436.53 284.91M435.13 297.588L390 297.588M390 309.524L390 297.588M390 297.588L390 284.91M483.06 284.91L486.04 271.421M483.06 284.91L436.53 284.91M483.06 284.91L529.59 284.91M436.53 284.91L438.02 271.421M436.53 284.91L390 284.91M390 284.91L390 271.421M486.04 271.421L438.02 271.421M486.04 271.421L534.06 271.421M439.608 257.039L438.02 271.421M439.608 257.039L441.305 241.673M439.608 257.039L390 257.039M438.02 271.421L390 271.421M534.06 271.421L582.08 271.421M534.06 271.421L529.59 284.91M390 271.421L390 257.039M529.59 284.91L576.12 284.91M441.305 241.673L443.123 225.219M441.305 241.673L390 241.673M390 257.039L390 241.673M390 241.673L390 225.219M496.245 225.219L500.147 207.556M496.245 225.219L443.123 225.219M496.245 225.219L549.368 225.219M443.123 225.219L445.073 207.556M443.123 225.219L390 225.219M390 225.219L390 207.556M500.147 207.556L445.073 207.556M500.147 207.556L555.221 207.556M447.173 188.547L445.073 207.556M447.173 188.547L449.439 168.03M447.173 188.547L390 188.547M445.073 207.556L390 207.556M555.221 207.556L610.295 207.556M555.221 207.556L549.368 225.219M390 207.556L390 188.547M549.368 225.219L602.491 225.219M449.439 168.03L451.892 145.821M449.439 168.03L390 168.03M390 188.547L390 168.03M390 168.03L390 145.821M513.784 145.821L519.113 121.699M513.784 145.821L451.892 145.821M513.784 145.821L575.677 145.821M451.892 145.821L454.556 121.699M451.892 145.821L390 145.821M390 145.821L390 121.699M519.113 121.699L454.556 121.699M519.113 121.699L583.67 121.699M457.46 95.4068L454.556 121.699M457.46 95.4068L460.638 66.6382M457.46 95.4068L390 95.4068M454.556 121.699L390 121.699M583.67 121.699L648.226 121.699M583.67 121.699L575.677 145.821M390 121.699L390 95.4068M575.677 145.821L637.569 145.821M460.638 66.6382L464.13 35.0251M460.638 66.6382L390 66.6382M390 95.4068L390 66.6382M390 66.6382L390 35.0251M538.259 35.0251L545.968 0.124056M538.259 35.0251L464.13 35.0251M538.259 35.0251L612.389 35.0251M464.13 35.0251L467.984 0.124049M464.13 35.0251L390 35.0251M390 35.0251L390 0.124042M467.984 0.124049L545.968 0.124056M467.984 0.124049L390 0.124042M545.968 0.124056L623.953 0.124063M623.953 0.124063L701.938 0.12407M623.953 0.124063L612.389 35.0251M612.389 35.0251L686.519 35.0251M550.023 464.718L551.458 462.551L552.92 460.346M550.023 464.718L523.352 464.718M550.023 464.718L576.693 464.718M521.022 468.937L518.772 473.012M521.022 468.937L523.352 464.718M521.022 468.937L494.818 468.937M518.772 473.012L493.018 473.012M518.772 473.012L517.135 475.977L516.598 476.948M541.918 476.948L516.598 476.948M541.918 476.948L540.962 478.391L539.395 480.755M541.918 476.948L567.237 476.948M523.352 464.718L525.766 460.346M523.352 464.718L496.682 464.718M494.818 468.937L493.018 473.012M494.818 468.937L496.682 464.718M493.018 473.012L492.14 474.997L491.492 476.464L491.278 476.948M516.598 476.948L491.278 476.948M516.598 476.948L515.015 479.815L514.496 480.755M496.682 464.718L498.124 461.454L498.613 460.346M465.958 476.948L465.799 477.432L465.481 478.391L465.009 479.815L464.697 480.755M465.958 476.948L491.278 476.948M491.278 476.948L491.065 477.432L490.641 478.391L489.597 480.755M552.92 460.346L525.766 460.346M552.92 460.346L580.074 460.346M528.27 455.812L527.952 456.388L527.636 456.962L526.384 459.229L525.766 460.346M528.27 455.812L530.209 452.302L530.868 451.109M528.27 455.812L500.616 455.812M525.766 460.346L498.613 460.346M580.074 460.346L607.227 460.346M580.074 460.346L577.527 463.64L576.693 464.718M498.613 460.346L500.616 455.812M576.693 464.718L603.364 464.718M530.868 451.109L531.199 450.509L531.532 449.906L532.541 448.078L532.881 447.464L533.564 446.226M530.868 451.109L502.694 451.109M500.616 455.812L500.872 455.235L502.694 451.109M502.694 451.109L502.959 450.509L503.226 449.906L503.493 449.299L504.852 446.226M562.277 446.226L565.64 441.151M562.277 446.226L533.564 446.226M562.277 446.226L590.99 446.226M533.564 446.226L536.367 441.151M533.564 446.226L504.852 446.226M504.852 446.226L507.093 441.151M565.64 441.151L536.367 441.151M565.64 441.151L594.914 441.151M539.281 435.874L536.367 441.151M539.281 435.874L542.313 430.384M539.281 435.874L509.425 435.874M536.367 441.151L507.093 441.151M594.914 441.151L624.187 441.151M594.914 441.151L590.99 446.226M507.093 441.151L509.425 435.874M590.99 446.226L619.704 446.226M542.313 430.384L545.471 424.665M542.313 430.384L511.85 430.384M509.425 435.874L510.022 434.522L511.85 430.384M511.85 430.384L512.786 428.267L513.736 426.117L514.377 424.665M576.565 424.665L578.52 421.716L580.515 418.704M576.565 424.665L545.471 424.665M576.565 424.665L607.66 424.665M545.471 424.665L548.763 418.704M545.471 424.665L514.377 424.665M514.377 424.665L517.01 418.704M580.515 418.704L548.763 418.704M580.515 418.704L612.268 418.704M552.197 412.486L548.763 418.704M552.197 412.486L555.783 405.993M552.197 412.486L519.758 412.486M548.763 418.704L517.01 418.704M612.268 418.704L644.021 418.704M612.268 418.704L607.66 424.665M517.01 418.704L519.758 412.486M607.66 424.665L638.754 424.665M555.783 405.993L556.705 404.324L559.531 399.205M555.783 405.993L522.627 405.993M519.758 412.486L522.627 405.993M522.627 405.993L522.994 405.161L524.109 402.637L525.625 399.205M593.437 399.205L598.143 392.104M593.437 399.205L559.531 399.205M593.437 399.205L627.344 399.205M559.531 399.205L563.453 392.104M559.531 399.205L525.625 399.205M525.625 399.205L528.762 392.104M598.143 392.104L563.453 392.104M598.143 392.104L632.834 392.104M567.56 384.667L564.97 389.356L563.453 392.104M567.56 384.667L571.867 376.869M567.56 384.667L532.048 384.667M563.453 392.104L528.762 392.104M632.834 392.104L667.524 392.104M632.834 392.104L627.344 399.205M528.762 392.104L532.048 384.667M627.344 399.205L661.25 399.205M571.867 376.869L576.387 368.683M571.867 376.869L535.493 376.869M532.048 384.667L535.493 376.869M535.493 376.869L539.11 368.683M613.665 368.683L619.366 360.08M613.665 368.683L576.387 368.683M613.665 368.683L650.942 368.683M576.387 368.683L581.138 360.08M576.387 368.683L539.11 368.683M539.11 368.683L542.911 360.08M619.366 360.08L581.138 360.08M619.366 360.08L657.593 360.08M586.138 351.027L581.138 360.08M586.138 351.027L591.406 341.487M586.138 351.027L546.91 351.027M581.138 360.08L542.911 360.08M657.593 360.08L695.821 360.08M657.593 360.08L650.942 368.683M542.911 360.08L546.91 351.027M650.942 368.683L688.219 368.683M591.406 341.487L596.965 331.421M591.406 341.487L551.125 341.487M546.91 351.027L551.125 341.487M551.125 341.487L555.572 331.421M638.358 331.421L645.407 320.784M638.358 331.421L596.965 331.421M638.358 331.421L679.751 331.421M596.965 331.421L602.839 320.784M596.965 331.421L555.572 331.421M555.572 331.421L560.271 320.784M645.407 320.784L602.839 320.784M645.407 320.784L687.975 320.784M609.057 309.524L602.839 320.784M609.057 309.524L615.649 297.588M609.057 309.524L565.245 309.524M602.839 320.784L560.271 320.784M687.975 320.784L730.543 320.784M687.975 320.784L679.751 331.421M560.271 320.784L565.245 309.524M679.751 331.421L721.144 331.421M615.649 297.588L622.65 284.91M615.649 297.588L570.519 297.588M565.245 309.524L570.519 297.588M570.519 297.588L576.12 284.91M669.18 284.91L678.12 271.421M669.18 284.91L622.65 284.91M669.18 284.91L715.711 284.91M622.65 284.91L630.1 271.421M622.65 284.91L576.12 284.91M576.12 284.91L582.08 271.421M678.12 271.421L630.1 271.421M678.12 271.421L726.139 271.421M638.042 257.039L630.1 271.421M638.042 257.039L646.528 241.674M638.042 257.039L588.433 257.039M630.1 271.421L582.08 271.421M726.139 271.421L774.159 271.421M726.139 271.421L715.711 284.91M582.08 271.421L588.433 257.039M715.711 284.91L762.241 284.91M646.528 241.674L655.614 225.219M646.528 241.674L595.222 241.673M588.433 257.039L595.222 241.673M595.222 241.673L602.491 225.219M708.737 225.219L720.442 207.556M708.737 225.219L655.614 225.219M708.737 225.219L761.86 225.219M655.614 225.219L665.368 207.556M655.614 225.219L602.491 225.219M602.491 225.219L610.295 207.556M720.442 207.556L665.368 207.556M720.442 207.556L775.516 207.556M675.866 188.547L665.368 207.556M675.866 188.547L687.196 168.03M675.866 188.547L618.693 188.547M665.368 207.556L610.295 207.556M775.516 207.556L830.59 207.556M775.516 207.556L761.86 225.219M610.295 207.556L618.693 188.547M761.86 225.219L814.983 225.219M687.196 168.03L699.462 145.821M687.196 168.03L627.757 168.03M618.693 188.547L627.757 168.03M627.757 168.03L637.569 145.821M761.354 145.821L777.34 121.699M761.354 145.821L699.462 145.821M761.354 145.821L823.247 145.821M699.462 145.821L712.783 121.699M699.462 145.821L637.569 145.821M637.569 145.821L648.226 121.699M777.34 121.699L712.783 121.699M777.34 121.699L841.896 121.699M727.303 95.4068L712.783 121.699M727.303 95.4068L743.19 66.6382M727.303 95.4068L659.842 95.4068M712.783 121.699L648.226 121.699M841.896 121.699L906.453 121.699M841.896 121.699L823.247 145.821M648.226 121.699L659.842 95.4068M823.247 145.821L885.139 145.821M743.19 66.6382L760.648 35.0251M743.19 66.6382L672.552 66.6382M659.842 95.4068L672.552 66.6382M672.552 66.6382L686.519 35.0251M834.778 35.0251L857.906 0.124083M834.778 35.0251L760.648 35.0251M834.778 35.0251L908.908 35.0251M760.648 35.0251L779.922 0.124076M760.648 35.0251L686.519 35.0251M686.519 35.0251L701.938 0.12407M921.69 0.12473L857.906 0.124083L779.922 0.124076M779.922 0.124076L701.938 0.12407M908.908 35.0251L921.69 18.4912M908.908 35.0251L921.69 35.0251M656.705 464.718L661.534 460.346M656.705 464.718L630.034 464.718M656.705 464.718L683.375 464.718M625.84 468.937L621.79 473.012M625.84 468.937L630.034 464.718M625.84 468.937L599.635 468.937M621.79 473.012L596.035 473.012M621.79 473.012L617.876 476.948M643.196 476.948L617.876 476.948M643.196 476.948L641.603 478.391L638.992 480.755M643.196 476.948L668.516 476.948M630.034 464.718L634.38 460.346M630.034 464.718L603.364 464.718M599.635 468.937L596.035 473.012M599.635 468.937L603.364 464.718M596.035 473.012L593.415 475.977L592.557 476.948M617.876 476.948L617.397 477.432L614.093 480.755M617.876 476.948L592.557 476.948M603.364 464.718L607.227 460.346M567.237 476.948L564.295 480.755M567.237 476.948L592.557 476.948M592.557 476.948L591.282 478.391L589.194 480.755M661.534 460.346L634.38 460.346M661.534 460.346L688.687 460.346M638.886 455.812L634.38 460.346M638.886 455.812L643.562 451.109M638.886 455.812L611.232 455.812M634.38 460.346L607.227 460.346M688.687 460.346L715.84 460.346M688.687 460.346L683.375 464.718M607.227 460.346L611.232 455.812M683.375 464.718L710.045 464.718M643.562 451.109L644.759 449.906L648.417 446.226M643.562 451.109L615.388 451.109M611.232 455.812L615.388 451.109M615.388 451.109L619.704 446.226M677.13 446.226L677.818 445.601L682.734 441.151M677.13 446.226L648.417 446.226M677.13 446.226L705.843 446.226M648.417 446.226L653.461 441.151M648.417 446.226L619.704 446.226M619.704 446.226L620.254 445.601L624.187 441.151M682.734 441.151L653.461 441.151M682.734 441.151L712.008 441.151M658.706 435.874L653.461 441.151M658.706 435.874L664.164 430.384M658.706 435.874L628.849 435.874M653.461 441.151L624.187 441.151M712.008 441.151L741.281 441.151M712.008 441.151L705.843 446.226M624.187 441.151L628.849 435.874M705.843 446.226L734.556 446.226M664.164 430.384L669.848 424.665M664.164 430.384L633.701 430.384M628.849 435.874L633.701 430.384M633.701 430.384L638.754 424.665M700.942 424.665L707.526 418.704M700.942 424.665L669.848 424.665M700.942 424.665L732.037 424.665M669.848 424.665L675.773 418.704M669.848 424.665L638.754 424.665M638.754 424.665L644.021 418.704M707.526 418.704L675.773 418.704M707.526 418.704L739.279 418.704M681.955 412.486L675.773 418.704M681.955 412.486L688.41 405.993M681.955 412.486L649.516 412.486M675.773 418.704L644.021 418.704M739.279 418.704L771.031 418.704M739.279 418.704L732.037 424.665M644.021 418.704L649.516 412.486M732.037 424.665L763.131 424.665M688.41 405.993L695.156 399.205M688.41 405.993L655.253 405.993M649.516 412.486L655.253 405.993M655.253 405.993L661.25 399.205M729.063 399.205L736.906 392.104M729.063 399.205L695.156 399.205M729.063 399.205L762.969 399.205M695.156 399.205L702.215 392.104M695.156 399.205L661.25 399.205M661.25 399.205L667.524 392.104M736.906 392.104L702.215 392.104M736.906 392.104L771.596 392.104M709.608 384.667L702.215 392.104M709.608 384.667L717.36 376.869M709.608 384.667L674.096 384.667M702.215 392.104L667.524 392.104M771.596 392.104L806.287 392.104M771.596 392.104L762.969 399.205M667.524 392.104L674.096 384.667M762.969 399.205L796.875 399.205M717.36 376.869L725.497 368.683M717.36 376.869L680.987 376.869M674.096 384.667L680.987 376.869M680.987 376.869L688.219 368.683M762.775 368.683L772.276 360.08M762.775 368.683L725.497 368.683M762.775 368.683L800.052 368.683M725.497 368.683L734.049 360.08M725.497 368.683L688.219 368.683M688.219 368.683L695.821 360.08M772.276 360.08L734.049 360.08M772.276 360.08L810.504 360.08M743.048 351.027L734.049 360.08M743.048 351.027L752.531 341.487M743.048 351.027L703.821 351.027M734.049 360.08L695.821 360.08M810.504 360.08L848.732 360.08M810.504 360.08L800.052 368.683M695.821 360.08L703.821 351.027M800.052 368.683L837.329 368.683M752.531 341.487L762.537 331.421M752.531 341.487L712.25 341.487M703.821 351.027L712.25 341.487M712.25 341.487L721.144 331.421M803.93 331.421L815.679 320.784M803.93 331.421L762.537 331.421M803.93 331.421L845.323 331.421M762.537 331.421L773.111 320.784M762.537 331.421L721.144 331.421M721.144 331.421L730.543 320.784M815.679 320.784L773.111 320.784M815.679 320.784L858.247 320.784M784.303 309.524L773.111 320.784M784.303 309.524L796.169 297.588M784.303 309.524L740.492 309.524M773.111 320.784L730.543 320.784M858.247 320.784L900.815 320.784M858.247 320.784L845.323 331.421M730.543 320.784L740.492 309.524M845.323 331.421L886.716 331.421M796.169 297.588L808.771 284.91M796.169 297.588L751.039 297.588M740.492 309.524L751.039 297.588M751.039 297.588L762.241 284.91M855.301 284.91L870.199 271.421M855.301 284.91L808.771 284.91M855.301 284.91L901.831 284.91M808.771 284.91L822.179 271.421M808.771 284.91L762.241 284.91M762.241 284.91L774.159 271.421M870.199 271.421L822.179 271.421M870.199 271.421L918.219 271.421M836.476 257.039L822.179 271.421M836.476 257.039L851.75 241.674M836.476 257.039L786.867 257.039M822.179 271.421L774.159 271.421M918.219 271.421L901.831 284.91M918.219 271.421L921.69 271.421M918.219 271.421L921.69 268.564M774.159 271.421L786.867 257.039M901.831 284.91L921.69 284.91M851.75 241.674L868.106 225.219M851.75 241.674L800.444 241.674M786.867 257.039L800.444 241.674M800.444 241.674L814.983 225.219M921.229 225.219L868.106 225.219M921.229 225.219L921.69 225.219M921.229 225.219L921.69 224.802M868.106 225.219L885.664 207.556M868.106 225.219L814.983 225.219M814.983 225.219L830.59 207.556M904.56 188.547L885.664 207.556M904.56 188.547L847.387 188.547M904.56 188.547L921.69 188.547M904.56 188.547L921.69 171.314M885.664 207.556L830.59 207.556M885.664 207.556L921.69 207.556M830.59 207.556L847.387 188.547M847.387 188.547L865.514 168.03M865.514 168.03L885.139 145.821M865.514 168.03L921.69 168.03M885.139 145.821L906.453 121.699M885.139 145.821L921.69 145.821M906.453 121.699L921.69 121.699M906.453 121.699L921.69 104.454M763.387 464.718L770.147 460.346M763.387 464.718L736.716 464.718M763.387 464.718L790.057 464.718M730.658 468.937L724.807 473.012M730.658 468.937L736.716 464.718M730.658 468.937L704.453 468.937M724.807 473.012L699.053 473.012M724.807 473.012L719.155 476.948M744.474 476.948L719.155 476.948M744.474 476.948L738.589 480.755M744.474 476.948L769.794 476.948M736.716 464.718L742.993 460.346M736.716 464.718L710.045 464.718M704.453 468.937L699.053 473.012M704.453 468.937L710.045 464.718M699.053 473.012L693.835 476.948M719.155 476.948L718.462 477.432L713.69 480.755M719.155 476.948L693.835 476.948M710.045 464.718L715.84 460.346M668.516 476.948L663.892 480.755M668.516 476.948L693.835 476.948M693.835 476.948L693.196 477.432L688.791 480.755M770.147 460.346L742.993 460.346M770.147 460.346L797.3 460.346M749.503 455.812L742.993 460.346M749.503 455.812L756.256 451.109M749.503 455.812L721.848 455.812M742.993 460.346L715.84 460.346M797.3 460.346L824.453 460.346M797.3 460.346L790.057 464.718M715.84 460.346L721.848 455.812M790.057 464.718L816.727 464.718M756.256 451.109L763.269 446.226M756.256 451.109L728.083 451.109M721.848 455.812L722.615 455.235L728.083 451.109M728.083 451.109L734.556 446.226M791.982 446.226L799.828 441.151M791.982 446.226L763.269 446.226M791.982 446.226L820.694 446.226M763.269 446.226L770.554 441.151M763.269 446.226L734.556 446.226M734.556 446.226L741.281 441.151M799.828 441.151L770.554 441.151M799.828 441.151L829.101 441.151M778.13 435.874L770.554 441.151M778.13 435.874L786.014 430.384M778.13 435.874L748.274 435.874M770.554 441.151L741.281 441.151M829.101 441.151L858.375 441.151M829.101 441.151L820.694 446.226M741.281 441.151L748.274 435.874M820.694 446.226L849.407 446.226M786.014 430.384L794.225 424.665M786.014 430.384L755.552 430.384M748.274 435.874L755.552 430.384M755.552 430.384L763.131 424.665M825.32 424.665L834.537 418.704M825.32 424.665L794.225 424.665M825.32 424.665L856.414 424.665M794.225 424.665L802.784 418.704M794.225 424.665L763.131 424.665M763.131 424.665L771.031 418.704M834.537 418.704L802.784 418.704M834.537 418.704L866.289 418.704M811.713 412.486L802.784 418.704M811.713 412.486L821.036 405.993M811.713 412.486L779.273 412.486M802.784 418.704L771.031 418.704M866.289 418.704L898.042 418.704M866.289 418.704L856.414 424.665M771.031 418.704L779.273 412.486M856.414 424.665L887.508 424.665M821.036 405.993L830.782 399.205M821.036 405.993L787.88 405.993M779.273 412.486L787.88 405.993M787.88 405.993L796.875 399.205M864.688 399.205L875.668 392.104M864.688 399.205L830.782 399.205M864.688 399.205L898.594 399.205M830.782 399.205L840.977 392.104M830.782 399.205L796.875 399.205M796.875 399.205L806.287 392.104M875.668 392.104L840.977 392.104M851.657 384.667L840.977 392.104M851.657 384.667L862.853 376.869M851.657 384.667L816.144 384.667M840.977 392.104L806.287 392.104M806.287 392.104L816.144 384.667M898.594 399.205L921.69 399.205M862.853 376.869L874.607 368.683M862.853 376.869L826.48 376.869M816.144 384.667L826.48 376.869M826.48 376.869L837.329 368.683M911.884 368.683L874.607 368.683M911.884 368.683L921.69 368.683M911.884 368.683L921.69 362.342M874.607 368.683L886.96 360.08M874.607 368.683L837.329 368.683M837.329 368.683L848.732 360.08M899.958 351.027L886.96 360.08M899.958 351.027L913.656 341.487M899.958 351.027L860.731 351.027M899.958 351.027L921.69 351.027M886.96 360.08L848.732 360.08M886.96 360.08L921.69 360.08M848.732 360.08L860.731 351.027M921.798 362.272L921.69 362.342M913.656 341.487L873.375 341.487M913.656 341.487L921.69 341.487M913.656 341.487L921.69 335.892M860.731 351.027L873.375 341.487M873.375 341.487L886.716 331.421M886.716 331.421L900.815 320.784M886.716 331.421L921.69 331.421M915.738 309.524L900.815 320.784M915.738 309.524L921.69 309.524M915.738 309.524L921.69 305.033M900.815 320.784L921.69 320.784M870.068 464.718L878.76 460.346M870.068 464.718L843.398 464.718M870.068 464.718L896.739 464.718M835.475 468.937L827.825 473.012M835.475 468.937L843.398 464.718M835.475 468.937L809.271 468.937M827.825 473.012L802.071 473.012M827.825 473.012L820.434 476.948M845.753 476.948L820.434 476.948M845.753 476.948L838.187 480.755M845.753 476.948L871.073 476.948M843.398 464.718L851.607 460.346M843.398 464.718L816.727 464.718M809.271 468.937L802.071 473.012M809.271 468.937L816.727 464.718M802.071 473.012L795.114 476.948M820.434 476.948L795.114 476.948M820.434 476.948L813.287 480.755M816.727 464.718L824.453 460.346M769.794 476.948L763.488 480.755M769.794 476.948L795.114 476.948M795.114 476.948L788.388 480.755M878.76 460.346L851.607 460.346M878.76 460.346L905.913 460.346M860.119 455.812L851.607 460.346M860.119 455.812L868.95 451.109M860.119 455.812L832.465 455.812M851.607 460.346L824.453 460.346M905.913 460.346L896.739 464.718M905.913 460.346L921.69 460.346M824.453 460.346L832.465 455.812M896.739 464.718L921.69 464.718M868.95 451.109L878.12 446.226M868.95 451.109L840.777 451.109M832.465 455.812L840.777 451.109M840.777 451.109L849.407 446.226M906.833 446.226L916.922 441.151M906.833 446.226L878.12 446.226M906.833 446.226L921.69 446.226M878.12 446.226L887.648 441.151M878.12 446.226L849.407 446.226M849.407 446.226L858.375 441.151M897.555 435.874L887.648 441.151M897.555 435.874L907.865 430.384M897.555 435.874L867.699 435.874M897.555 435.874L921.69 435.874M887.648 441.151L916.922 441.151M887.648 441.151L858.375 441.151M916.922 441.151L921.69 438.753M916.922 441.151L921.69 441.151M858.375 441.151L867.699 435.874M907.865 430.384L918.603 424.665M907.865 430.384L877.403 430.384M907.865 430.384L921.69 430.384M867.699 435.874L877.403 430.384M877.403 430.384L887.508 424.665M918.603 424.665L887.508 424.665M918.603 424.665L921.69 423.021M918.603 424.665L921.69 424.665M887.508 424.665L898.042 418.704M909.031 412.486L898.042 418.704M909.031 412.486L920.506 405.993M909.031 412.486L921.69 412.486M898.042 418.704L921.69 418.704M921.856 418.704L921.69 418.704M920.506 405.993L921.69 405.993M920.506 405.993L921.69 405.323M921.977 405.161L921.69 405.323M914.089 468.937L905.089 473.012M914.089 468.937L921.69 468.937M914.089 468.937L921.69 465.496M905.089 473.012L896.392 476.948M905.089 473.012L921.69 473.012M871.073 476.948L863.086 480.755M871.073 476.948L896.392 476.948M896.392 476.948L887.985 480.755M896.392 476.948L921.69 476.948M41.4101 480.755L16.5109 480.755M41.4101 480.755L66.3093 480.755M22.6105 484.436L21.1046 483.527L16.5109 480.755M22.6105 484.436L-1.8822 484.436M16.5109 480.755L-8.38818 480.755M-1.8822 484.436L-3.48836 483.527L-4.29695 483.07L-8.38818 480.755M-8.38818 480.755L-33.2874 480.755M-33.2874 480.755L-58.1871 480.755M66.3093 480.755L91.2085 480.755M-58.1871 480.755L-83.0863 480.755M-83.0863 480.755L-75.3596 484.436M-83.0863 480.755L-107.985 480.755M-75.3596 484.436L-99.8523 484.436M141.007 480.755L116.108 480.755M141.007 480.755L165.907 480.755M120.581 484.436L119.477 483.527L118.921 483.07L116.108 480.755M120.581 484.436L96.0884 484.436M116.108 480.755L91.2085 480.755M96.0884 484.436L91.2085 480.755M165.907 480.755L190.806 480.755M240.604 480.755L215.705 480.755M240.604 480.755L265.503 480.755M218.552 484.436L218.201 483.983L217.849 483.527L217.495 483.07L215.705 480.755M218.552 484.436L194.059 484.436M215.705 480.755L190.806 480.755M194.059 484.436L190.806 480.755M265.503 480.755L290.403 480.755M340.201 480.755L315.302 480.755M340.201 480.755L365.101 480.755M316.522 484.436L315.302 480.755M316.522 484.436L292.029 484.436M315.302 480.755L290.403 480.755M292.029 484.436L291.829 483.983L291.628 483.527L291.425 483.07L290.403 480.755M365.101 480.755L390 480.755M439.798 480.755L414.899 480.755M439.798 480.755L464.697 480.755M414.492 484.436L414.899 480.755M414.492 484.436L390 484.436M414.899 480.755L390 480.755M390 484.436L390 480.755M464.697 480.755L489.597 480.755M539.395 480.755L514.496 480.755M539.395 480.755L564.295 480.755M512.463 484.436L512.965 483.527L513.982 481.687L514.496 480.755M512.463 484.436L487.97 484.436M514.496 480.755L489.597 480.755M487.97 484.436L488.171 483.983L488.372 483.527L488.574 483.07L489.597 480.755M564.295 480.755L589.194 480.755M638.992 480.755L614.093 480.755M638.992 480.755L663.892 480.755M610.433 484.436L611.337 483.527L611.792 483.07L614.093 480.755M610.433 484.436L585.94 484.436M614.093 480.755L589.194 480.755M585.94 484.436L586.341 483.983L589.194 480.755M663.892 480.755L688.791 480.755M738.589 480.755L713.69 480.755M738.589 480.755L763.488 480.755M708.404 484.436L709.709 483.527L710.366 483.07L713.69 480.755M708.404 484.436L683.911 484.436M713.69 480.755L688.791 480.755M683.911 484.436L684.513 483.983L688.791 480.755M763.488 480.755L788.388 480.755M838.187 480.755L813.287 480.755M838.187 480.755L863.086 480.755M806.374 484.436L813.287 480.755M806.374 484.436L781.882 484.436M813.287 480.755L788.388 480.755M781.882 484.436L783.488 483.527L784.296 483.07L788.388 480.755M863.086 480.755L887.985 480.755M904.344 484.436L912.884 480.755M904.344 484.436L879.852 484.436M904.344 484.436L921.69 484.436M912.884 480.755L887.985 480.755M912.884 480.755L921.69 476.958M912.884 480.755L921.69 480.755M879.852 484.436L881.86 483.527L887.985 480.755M-99.8523 484.436L-101.86 483.527L-107.985 480.755M-107.985 480.755L-132.885 480.755M-132.885 480.755L-141.691 476.958M-132.885 480.755L-141.691 480.755M-141.691 305.033L-141.691 309.524M-141.691 305.033L-141.691 297.588M-141.691 309.524L-141.691 320.784M-141.691 297.588L-141.691 295.363L-141.691 284.91M-141.691 284.91L-141.691 271.421M-141.691 392.104L-141.691 399.205M-141.691 392.104L-141.691 385.265M-141.691 484.436L-141.691 480.755M-141.691 480.755L-141.691 476.958M-141.691 476.958L-141.712 476.948L-141.691 476.948M-141.691 476.958L-141.691 476.948M-141.691 476.948L-141.691 473.012M-141.691 473.012L-141.691 468.937M-141.691 468.937L-141.691 465.496M-141.691 465.496L-141.691 464.718M-141.691 464.718L-141.691 460.346M-141.691 460.346L-141.691 455.812M-141.691 455.812L-141.691 452.828M-141.691 452.828L-141.691 451.109M-141.691 451.109L-141.691 446.225M-141.691 446.225L-141.691 441.151M-141.691 441.151L-141.691 438.752M-141.691 438.752L-141.691 435.874M-141.691 435.874L-141.691 430.384M-141.691 430.384L-141.691 424.665M-141.691 424.665L-141.691 423.021M-141.691 423.021L-141.691 418.704M-141.691 418.704L-141.691 412.486M-141.691 412.486L-141.691 405.993M-141.691 405.993L-141.691 405.323M-141.691 405.323L-141.691 399.205M-141.691 384.667L-141.691 376.869M-141.691 384.667L-141.691 385.265M-141.691 376.869L-141.691 368.683M-141.691 368.683L-141.691 362.341M-141.691 362.341L-141.691 360.08M-141.691 360.08L-141.691 351.027M-141.691 351.027L-141.691 341.487M-141.691 341.487L-141.691 335.892M-141.691 335.892L-141.691 331.421M-141.691 331.421L-141.691 320.784M-141.691 271.421L-141.691 268.564M-141.691 268.564L-141.691 257.039M-141.691 257.039L-141.691 241.673M-141.691 241.673L-141.691 225.219M-141.691 225.219L-141.691 224.802M-141.691 224.802L-141.691 207.556M-141.691 207.556L-141.691 188.547M-141.691 188.547L-141.691 171.314M-141.691 171.314L-141.691 168.03M-141.691 168.03L-141.691 145.82M-141.691 145.82L-141.691 121.699M-141.691 121.699L-141.691 104.454M-141.691 104.454L-141.691 95.4068M-141.691 95.4068L-141.691 66.6382M-141.691 66.6382L-141.691 35.025M-141.691 35.025L-141.691 18.4911M-141.691 18.4911L-141.691 0.124637M-141.691 0.124637L-141.691 1.6003e-05L921.69 0.000108967L921.69 0.12473M921.69 384.667L921.69 376.869M921.69 384.667L921.69 385.265M921.69 385.265L921.69 392.104M921.69 392.104L921.69 399.205M921.69 399.205L921.69 405.323M921.69 405.323L921.69 405.993M921.69 405.993L921.69 412.486M921.69 412.486L921.69 418.704M921.69 418.704L921.69 423.021M921.69 423.021L921.69 424.665M921.69 424.665L921.69 430.384M921.69 430.384L921.69 435.874M921.69 435.874L921.69 438.753M921.69 438.753L921.69 441.151M921.69 441.151L921.69 446.226M921.69 446.226L921.69 451.109M921.69 451.109L921.69 452.829M921.69 452.829L921.69 455.813M921.69 455.813L921.69 460.346M921.69 460.346L921.69 464.718M921.69 464.718L921.69 465.496M921.69 465.496L921.69 468.937M921.69 468.937L921.69 473.012M921.69 473.012L921.69 476.948M921.69 476.948L921.712 476.948L921.69 476.958M921.69 476.948L921.69 476.958M921.69 476.958L921.69 480.755M921.69 480.755L921.69 484.436M921.69 0.12473L921.69 18.4912M921.69 18.4912L921.69 35.0251M921.69 35.0251L921.69 66.6376M921.69 66.6376L921.69 95.4068M921.69 95.4068L921.69 104.454M921.69 104.454L921.69 121.699M921.69 121.699L921.69 145.821M921.69 145.821L921.69 168.03M921.69 168.03L921.69 171.314M921.69 171.314L921.69 188.547M921.69 188.547L921.69 207.556M921.69 207.556L921.69 224.802M921.69 224.802L921.69 225.219M921.69 225.219L921.69 241.674M921.69 241.674L921.69 257.039M921.69 257.039L921.69 268.564M921.69 268.564L921.69 271.421M921.69 271.421L921.69 284.91M921.69 284.91L921.69 297.588M921.69 297.588L921.69 305.033M921.69 305.033L921.69 309.524M921.69 309.524L921.69 320.784M921.69 320.784L921.69 331.421M921.69 331.421L921.69 335.892M921.69 335.892L921.69 341.487M921.69 341.487L921.69 351.027M921.69 351.027L921.69 360.08M921.69 360.08L921.69 362.342M921.69 362.342L921.69 368.683M921.69 368.683L921.69 376.869" stroke="url(#paint0_radial_39_5184)" stroke-opacity="0.25" stroke-width="1.8895" stroke-miterlimit="10" stroke-linecap="round" stroke-linejoin="round"/>
<defs>
<radialGradient id="paint0_radial_39_5184" cx="0" cy="0" r="1" gradientUnits="userSpaceOnUse" gradientTransform="translate(390 17.9862) rotate(90) scale(763.9 1665.48)">
<stop stop-color="#AC63E6"/>
<stop offset="0.489074" stop-color="#CED2DF" stop-opacity="0"/>
</radialGradient>
</defs>
</svg>
