<svg width="765" height="371" viewBox="0 0 765 371" fill="none" xmlns="http://www.w3.org/2000/svg">
<path d="M749.31 3.64011L741.955 0.945312M749.31 3.64011H727.515M749.31 3.64011L756.909 6.4239M749.31 3.64011H764.746M720.51 0.945312H741.955L744.631 0.946363L747.28 0.952198L749.873 0.968604L752.386 1.00091L754.789 1.05335L757.057 1.13227L759.164 1.24191L761.12 1.38172L762.798 1.57505L764.326 1.79909L764.746 1.87756V3.64011M720.51 0.945312H699.065M720.51 0.945312L727.515 3.64011M699.065 0.945312H677.62M699.065 0.945312L705.719 3.64011M677.62 0.945312H656.175M677.62 0.945312L683.924 3.64011M656.175 0.945312H634.73M656.175 0.945312L662.129 3.64011M634.73 0.945312H613.284M634.73 0.945312L640.334 3.64011M613.284 0.945312H591.839M613.284 0.945312L618.538 3.64011M591.839 0.945312H570.394M591.839 0.945312L596.743 3.64011M570.394 0.945312H548.949M570.394 0.945312L574.947 3.64011M548.949 0.945312H527.504M548.949 0.945312L553.152 3.64011M527.504 0.945312H506.059M527.504 0.945312L531.357 3.64011M506.059 0.945312H484.614M506.059 0.945312L509.561 3.64011M484.614 0.945312H463.169M484.614 0.945312L485.392 1.61106L486.572 2.61897L487.766 3.64011M463.169 0.945312H441.724M463.169 0.945312L463.86 1.61106L465.97 3.64011M441.724 0.945312H420.279M441.724 0.945312L444.175 3.64011M420.279 0.945312H398.833M420.279 0.945312L421.058 1.94579L421.848 2.95793L422.113 3.29849L422.38 3.64011M398.833 0.945312H377.388M398.833 0.945312L399.483 1.94579L399.702 2.28158L399.921 2.61897L400.585 3.64011M377.388 0.945312H355.943M377.388 0.945312L378.789 3.64011M355.943 0.945312L356.073 1.27739L356.202 1.61106L356.86 3.29849L356.994 3.64011M355.943 0.945312H334.498M334.498 0.945312H313.053M334.498 0.945312L335.199 3.64011M313.053 0.945312H291.608M313.053 0.945312L313.183 1.94579L313.403 3.64011M291.608 0.945312H270.163M291.608 0.945312V3.64011M270.163 0.945312H248.717M270.163 0.945312L270.033 1.94579L269.812 3.64011M248.717 0.945312H227.272M248.717 0.945312L248.017 3.64011M227.272 0.945312L227.143 1.27739L227.013 1.61106L226.355 3.29849L226.221 3.64011M227.272 0.945312H205.827M205.827 0.945312H184.382M205.827 0.945312L204.604 3.29849L204.426 3.64011M184.382 0.945312H162.937M184.382 0.945312L183.732 1.94579L183.513 2.28158L183.074 2.95793L182.853 3.29849L182.631 3.64011M162.937 0.945312H141.492M162.937 0.945312L162.157 1.94579L161.367 2.95793L161.102 3.29849L160.835 3.64011M141.492 0.945312H120.047M141.492 0.945312L139.04 3.64011M120.047 0.945312H98.6013M120.047 0.945312L119.355 1.61106L117.245 3.64011M98.6013 0.945312H77.1564M98.6013 0.945312L95.4496 3.64011M77.1564 0.945312H55.7114M77.1564 0.945312L73.6542 3.64011M55.7114 0.945312H34.2659M55.7114 0.945312L51.8588 3.64011M34.2659 0.945312H12.821M34.2659 0.945312L30.0634 3.64011M12.821 0.945312H-8.62402M12.821 0.945312L8.26797 3.64011M-8.62402 0.945312H-30.069M-8.62402 0.945312L-13.5274 3.64011M-30.069 0.945312H-51.5145M-30.069 0.945312L-35.3228 3.64011M-51.5145 0.945312H-72.9595M-51.5145 0.945312L-57.1182 3.64011M-72.9595 0.945312H-94.4044M-72.9595 0.945312L-78.9136 3.64011M-94.4044 0.945312H-115.85M-94.4044 0.945312L-100.709 3.64011M-115.85 0.945312H-137.295M-115.85 0.945312L-122.504 3.64011M-181.53 3.64011V1.87758L-181.11 1.79909L-179.583 1.57505L-177.904 1.38172L-175.949 1.24191L-173.842 1.13227L-171.573 1.05335L-169.17 1.00091L-166.658 0.968604L-164.065 0.952198L-161.416 0.946363L-158.74 0.945312H-137.295M-137.295 0.945312L-144.299 3.64011M-158.74 0.945312L-166.095 3.64011M-122.504 3.64011H-100.709M-122.504 3.64011H-144.299M-122.504 3.64011L-129.38 6.4239M-100.709 3.64011L-107.223 6.4239M-100.709 3.64011H-78.9136M-35.3228 3.64011H-13.5274M-35.3228 3.64011H-57.1182M-35.3228 3.64011L-36.6629 4.32758L-40.7506 6.4239M-13.5274 3.64011L-18.5934 6.4239M-13.5274 3.64011H8.26797M51.8588 3.64011H73.6542M51.8588 3.64011H30.0634M51.8588 3.64011L50.876 4.32758L50.3812 4.67291L47.878 6.4239M73.6542 3.64011L73.2082 3.98278L72.7606 4.32758L70.0356 6.4239M73.6542 3.64011H95.4496M139.04 3.64011L138.728 3.98278L136.507 6.4239M139.04 3.64011H160.835M139.04 3.64011H117.245M160.835 3.64011L160.3 4.32758L160.029 4.67291L159.759 5.02035L158.664 6.4239M160.835 3.64011H182.631M226.221 3.64011H248.017M226.221 3.64011H204.426M226.221 3.64011L225.136 6.4239M248.017 3.64011L247.928 3.98278L247.839 4.32758L247.748 4.67291L247.476 5.71895L247.293 6.4239M248.017 3.64011H269.812M313.403 3.64011H335.199M313.403 3.64011H291.608M313.403 3.64011L313.765 6.4239M335.199 3.64011L335.288 3.98278L335.377 4.32758L335.467 4.67291L335.922 6.4239M335.199 3.64011H356.994M400.585 3.64011H422.38M400.585 3.64011H378.789M400.585 3.64011L401.031 4.32758L401.936 5.71895L402.164 6.07063L402.394 6.4239M422.38 3.64011L422.916 4.32758L423.186 4.67291L423.456 5.02035L424.551 6.4239M422.38 3.64011H444.175M487.766 3.64011H509.561M487.766 3.64011H465.97M487.766 3.64011L488.57 4.32758L488.975 4.67291L491.023 6.4239M509.561 3.64011L510.007 3.98278L510.455 4.32758L513.18 6.4239M509.561 3.64011H531.357M574.947 3.64011H596.743M574.947 3.64011H553.152M574.947 3.64011L576.109 4.32758L576.694 4.67291L579.652 6.4239M596.743 3.64011L601.809 6.4239M596.743 3.64011H618.538M662.129 3.64011H683.924M662.129 3.64011H640.334M662.129 3.64011L668.28 6.4239M683.924 3.64011L690.438 6.4239M683.924 3.64011H705.719M-181.607 28.8403H-181.53M-159.669 28.8403L-151.348 25.2838M-159.669 28.8403L-168.31 32.533M-159.669 28.8403H-134.599M-159.669 28.8403H-181.53M-151.348 25.2838H-175.957M-151.348 25.2838L-143.328 21.856M-151.348 25.2838H-126.739M-175.957 25.2838L-167.491 21.856M-175.957 25.2838H-181.53M-175.957 25.2838L-181.53 27.5401M-151.448 15.3594H-128.129M-151.448 15.3594L-143.839 12.2785M-151.448 15.3594H-174.766M-151.448 15.3594L-159.327 18.55M-128.129 15.3594L-120.92 12.2785M-128.129 15.3594L-135.593 18.55M-128.129 15.3594H-104.81M-143.839 12.2785H-120.92M-143.839 12.2785L-136.487 9.30195M-143.839 12.2785H-166.757M-120.92 12.2785H-98.0023M-120.92 12.2785L-113.956 9.30195M-181.77 84.9767H-181.53M-161.541 84.9767L-150.81 79.0803M-161.541 84.9767L-172.804 91.1667M-161.541 84.9767H-129.173M-161.541 84.9767H-181.53M-150.81 79.0803L-140.576 73.4566M-150.81 79.0803H-119.209M-150.81 79.0803H-181.53M-171.447 73.4566H-140.576M-171.447 73.4566L-160.977 68.0871M-171.447 73.4566H-181.53M-171.447 73.4566L-181.53 78.6283M-150.972 62.9549H-121.466M-150.972 62.9549L-141.398 58.0452M-150.972 62.9549H-180.477M-150.972 62.9549L-160.977 68.0871M-121.466 62.9549L-112.531 58.0452M-121.466 62.9549L-130.806 68.0871M-121.466 62.9549H-91.9609M-141.398 58.0452H-112.531M-141.398 58.0452H-170.265M-141.398 58.0452L-132.23 53.343M-112.531 58.0452L-103.975 53.343M-112.531 58.0452H-83.6642M-115.012 44.5118H-87.9042M-115.012 44.5118L-106.917 40.36M-115.012 44.5118H-142.12M-115.012 44.5118L-123.443 48.8358M-87.9042 44.5118L-80.3488 40.36M-87.9042 44.5118L-95.7726 48.8358M-87.9042 44.5118H-60.7959M-106.917 40.36H-80.3488M-106.917 40.36H-133.485M-106.917 40.36L-99.1378 36.3702M-80.3488 40.36L-73.0881 36.3702M-80.3488 40.36H-53.7801M-84.4567 28.8403H-59.3858M-84.4567 28.8403L-77.5223 25.2838M-84.4567 28.8403H-109.528M-84.4567 28.8403L-91.6568 32.533M-59.3858 28.8403L-52.9137 25.2838M-59.3858 28.8403L-66.1059 32.533M-59.3858 28.8403H-34.3149M-77.5223 25.2838H-52.9137M-77.5223 25.2838H-102.131M-77.5223 25.2838L-70.8387 21.856M-52.9137 25.2838L-46.6757 21.856M-52.9137 25.2838H-28.3051M-58.1729 15.3594H-34.8541M-58.1729 15.3594L-52.166 12.2785M-58.1729 15.3594H-81.4912M-58.1729 15.3594L-64.3932 18.55M-34.8541 15.3594L-29.2479 12.2785M-34.8541 15.3594L-40.6599 18.55M-34.8541 15.3594H-11.5353M-52.166 12.2785H-29.2479M-52.166 12.2785L-46.3617 9.30195M-52.166 12.2785H-75.0841M-29.2479 12.2785H-6.3293M-29.2479 12.2785L-23.8305 9.30195M-164.947 187.205L-149.845 175.586M-164.947 187.205L-181.12 199.646M-164.947 187.205H-119.292M-164.947 187.205H-181.53M-149.845 175.586L-135.71 164.711M-149.845 175.586H-105.7M-149.845 175.586H-181.53M-150.152 144.925H-109.992M-150.152 144.925L-137.247 135.899M-150.152 144.925L-163.858 154.511M-150.152 144.925H-181.53M-109.992 144.925L-98.26 135.899M-109.992 144.925L-122.452 154.511M-109.992 144.925H-69.8318M-137.247 135.899H-98.26M-137.247 135.899H-176.233M-137.247 135.899L-125.074 127.385M-98.26 135.899L-87.1935 127.385M-98.26 135.899H-59.273M-102.69 111.73H-66.8447M-102.69 111.73L-92.3764 104.517M-102.69 111.73H-138.535M-102.69 111.73L-113.573 119.342M-66.8447 111.73L-57.4686 104.517M-66.8447 111.73L-76.7386 119.342M-66.8447 111.73H-30.9995M-92.3764 104.517H-57.4686M-92.3764 104.517H-127.284M-92.3764 104.517L-82.5888 97.6717M-57.4686 104.517L-48.5707 97.6717M-57.4686 104.517H-22.5614M-64.4376 84.9767H-32.0695M-64.4376 84.9767L-56.0063 79.0803M-64.4376 84.9767H-96.8051M-64.4376 84.9767L-73.2872 91.1667M-32.0695 84.9767L-24.4052 79.0803M-32.0695 84.9767L-40.1153 91.1667M-32.0695 84.9767H0.29808M-56.0063 79.0803H-24.4052M-56.0063 79.0803H-87.6075M-56.0063 79.0803L-47.9655 73.4566M-24.4052 79.0803L-17.0952 73.4566M-24.4052 79.0803H7.19603M-32.9502 62.9549H-3.44514M-32.9502 62.9549L-25.93 58.0452M-32.9502 62.9549H-62.4558M-32.9502 62.9549L-40.2883 68.0871M-3.44514 62.9549L2.9373 58.0452M-3.44514 62.9549L-10.1159 68.0871M-3.44514 62.9549H26.06M-25.93 58.0452H2.9373M-25.93 58.0452H-54.7969M-25.93 58.0452L-19.207 53.343M2.9373 58.0452L9.04916 53.343M2.9373 58.0452H31.8041M-6.58017 44.5118H20.5277M-6.58017 44.5118L-0.643768 40.36M-6.58017 44.5118H-33.688M-6.58017 44.5118L-12.7625 48.8358M20.5277 44.5118L21.2147 43.9838L25.9244 40.36M20.5277 44.5118L14.9077 48.8358M20.5277 44.5118H47.636M-0.643768 40.36H25.9244M-0.643768 40.36H-27.2119M-0.643768 40.36L5.061 36.3702M25.9244 40.36L31.1107 36.3702M25.9244 40.36H52.4931M15.8269 28.8403H40.8982M15.8269 28.8403L20.9126 25.2838M15.8269 28.8403H-9.24403M15.8269 28.8403L10.5469 32.533M40.8982 28.8403L45.5212 25.2838M40.8982 28.8403L39.1196 30.2089L36.0979 32.533M40.8982 28.8403H65.9691M20.9126 25.2838H45.5212M20.9126 25.2838H-3.696M20.9126 25.2838L25.8135 21.856M45.5212 25.2838L49.9766 21.856M45.5212 25.2838H70.1298M35.1018 15.3594H58.4206M35.1018 15.3594L39.5069 12.2785M35.1018 15.3594H11.7835M35.1018 15.3594L30.5405 18.55M58.4206 15.3594L61.4373 13.0391L61.9322 12.6577L62.4255 12.2785M58.4206 15.3594L54.2738 18.55M58.4206 15.3594H81.7394M39.5069 12.2785H62.4255M39.5069 12.2785L43.7632 9.30195M39.5069 12.2785H16.5888M62.4255 12.2785H85.3437M62.4255 12.2785L66.2944 9.30195M-148.406 319.557H-85.5464M-148.406 319.557L-128.613 297.804M-148.406 319.557L-170.155 343.461M-148.406 319.557L-181.53 319.557M-85.5464 319.557L-68.581 297.804M-85.5464 319.557L-104.189 343.461M-85.5464 319.557H-22.6876M-128.613 297.804H-68.581M-128.613 297.804L-110.524 277.923M-128.613 297.804H-181.53M-68.581 297.804L-53.0763 277.923M-68.581 297.804H-8.54959M-78.6475 242.89H-25.7536M-78.6475 242.89L-64.5322 227.376M-78.6475 242.89H-131.541M-78.6475 242.89L-93.9278 259.683M-25.7536 242.89L-13.6551 227.376M-25.7536 242.89L-38.8511 259.683M-25.7536 242.89H27.1398M-64.5322 227.376H-13.6551M-64.5322 227.376H-115.409M-64.5322 227.376L-51.4534 213.002M-13.6551 227.376L-2.44466 213.002M-13.6551 227.376H37.222M-27.9808 187.205H17.6746M-27.9808 187.205L-17.4091 175.586M-27.9808 187.205H-73.6366M-27.9808 187.205L-39.3016 199.646M17.6746 187.205L26.7361 175.586M17.6746 187.205L7.97128 199.646M17.6746 187.205H63.3299M-17.4091 175.586H26.7361M-17.4091 175.586H-61.5549M-17.4091 175.586L-7.51462 164.711M26.7361 175.586L35.2171 164.711M26.7361 175.586H70.8814M10.4878 144.925H50.6478M10.4878 144.925L18.7007 135.899M10.4878 144.925H-29.6718M10.4878 144.925L1.76579 154.511M50.6478 144.925L57.6872 135.899M50.6478 144.925L43.1718 154.511M50.6478 144.925H90.8079M18.7007 135.899H57.6872M18.7007 135.899H-20.2864M18.7007 135.899L26.4468 127.385M57.6872 135.899L64.327 127.385M57.6872 135.899H96.6738M40.6908 111.73H76.5364M40.6908 111.73L47.254 104.517M40.6908 111.73H4.84561M40.6908 111.73L33.7652 119.342M76.5364 111.73L82.1618 104.517M76.5364 111.73L70.6 119.342M76.5364 111.73H112.382M47.254 104.517H82.1618M47.254 104.517H12.3463M47.254 104.517L53.4827 97.6717M82.1618 104.517L87.5004 97.6717M82.1618 104.517H117.07M65.0337 84.9767H97.4012M65.0337 84.9767L70.3989 79.0803M65.0337 84.9767H32.6656M65.0337 84.9767L59.4019 91.1667M97.4012 84.9767L102 79.0803M97.4012 84.9767L92.5738 91.1667M97.4012 84.9767H129.769M70.3989 79.0803H102M70.3989 79.0803H38.7972M70.3989 79.0803L75.5157 73.4566M102 79.0803L106.386 73.4566M102 79.0803H133.601M85.0706 62.9549H114.576M85.0706 62.9549L89.5383 58.0452M85.0706 62.9549H55.5655M85.0706 62.9549L80.4013 68.0871M114.576 62.9549L118.405 58.0452M114.576 62.9549L110.574 68.0871M114.576 62.9549H144.081M89.5383 58.0452H118.405M89.5383 58.0452H60.671M89.5383 58.0452L93.8168 53.343M118.405 58.0452L122.073 53.343M118.405 58.0452H147.273M101.852 44.5118H128.96M101.852 44.5118L105.629 40.36M101.852 44.5118H74.7439M101.852 44.5118L97.9173 48.8358M128.96 44.5118L128.546 45.0425L125.587 48.8358M128.96 44.5118L132.198 40.36M128.96 44.5118H156.068M105.629 40.36H132.198M105.629 40.36H79.0613M105.629 40.36L109.26 36.3702M132.198 40.36L135.31 36.3702M132.198 40.36H158.766M116.111 28.8403H141.182M116.111 28.8403L119.347 25.2838M116.111 28.8403H91.04M116.111 28.8403L112.751 32.533M141.182 28.8403L143.956 25.2838M141.182 28.8403L140.115 30.2089L139.395 31.1321L138.302 32.533M141.182 28.8403H166.253M119.347 25.2838H143.956M119.347 25.2838H94.7384M119.347 25.2838L122.466 21.856M143.956 25.2838L144.97 23.9835L145.638 23.1266L146.629 21.856M143.956 25.2838H168.564M128.377 15.3594H151.695M128.377 15.3594L130.488 13.0391L131.18 12.2785M128.377 15.3594H105.058M128.377 15.3594L125.842 18.1448L125.474 18.55M151.695 15.3594L153.506 13.0391L153.802 12.6577L154.099 12.2785M151.695 15.3594L150.462 16.9404L149.207 18.55M151.695 15.3594H175.014M131.18 12.2785H154.099M131.18 12.2785L133.889 9.30195M131.18 12.2785H108.262M154.099 12.2785H177.017M154.099 12.2785L156.42 9.30195M103.031 319.557H165.889M103.031 319.557L111.513 297.804M103.031 319.557H40.1718M103.031 319.557L93.7094 343.461M165.889 319.557L171.545 297.804M165.889 319.557L159.676 343.461M165.889 319.557H228.749M111.513 297.804H171.545M111.513 297.804H51.4817M111.513 297.804L119.266 277.923M171.545 297.804L176.713 277.923M171.545 297.804H231.576M132.927 242.89H185.82M132.927 242.89L138.976 227.376M132.927 242.89H80.0332M132.927 242.89L126.378 259.683M185.82 242.89L189.853 227.376M185.82 242.89L181.455 259.683M185.82 242.89H238.714M138.976 227.376H189.853M138.976 227.376H88.0992M138.976 227.376L144.582 213.002M189.853 227.376L193.59 213.002M189.853 227.376H240.731M154.641 187.205H200.297M154.641 187.205L159.172 175.586M154.641 187.205H108.986M154.641 187.205L149.789 199.646M200.297 187.205L203.317 175.586M200.297 187.205L197.062 199.646M200.297 187.205H245.952M159.172 175.586H203.317M159.172 175.586H115.027M159.172 175.586L163.412 164.711M203.317 175.586L206.144 164.711M203.317 175.586H247.462M171.128 144.925H211.288M171.128 144.925L174.647 135.899M171.128 144.925H130.968M171.128 144.925L167.39 154.511M211.288 144.925L213.634 135.899M211.288 144.925L208.796 154.511M211.288 144.925H251.448M174.647 135.899H213.634M174.647 135.899H135.661M174.647 135.899L177.967 127.385M213.634 135.899L215.847 127.385M213.634 135.899H252.621M184.072 111.73H219.917M184.072 111.73L186.884 104.517M184.072 111.73H148.227M184.072 111.73L181.104 119.342M219.917 111.73L221.792 104.517M219.917 111.73L217.939 119.342M219.917 111.73H255.763M186.884 104.517H221.792M186.884 104.517H151.977M186.884 104.517L189.554 97.6717M221.792 104.517L223.572 97.6717M221.792 104.517H256.7M194.504 84.9767H226.872M194.504 84.9767L196.804 79.0803M194.504 84.9767H162.137M194.504 84.9767L192.091 91.1667M226.872 84.9767L228.405 79.0803M226.872 84.9767L225.263 91.1667M226.872 84.9767H259.24M196.804 79.0803H228.405M196.804 79.0803H165.202M196.804 79.0803L197.639 76.9406L198.997 73.4566M228.405 79.0803L229.867 73.4566M228.405 79.0803H260.007M203.092 62.9549H232.597M203.092 62.9549L205.007 58.0452M203.092 62.9549H173.586M203.092 62.9549L201.6 66.7826L201.09 68.0871M232.597 62.9549L233.082 61.0885L233.874 58.0452M232.597 62.9549L231.263 68.0871M232.597 62.9549H262.103M205.007 58.0452L205.24 57.4461L206.84 53.343M205.007 58.0452H233.874M205.007 58.0452H176.139M233.874 58.0452L234.338 56.2582L234.491 55.6687L234.644 55.0829L235.096 53.343M233.874 58.0452H262.741M210.284 44.5118H237.392M210.284 44.5118L211.101 42.415L211.303 41.8975L211.504 41.3822L211.704 40.87L211.903 40.36M210.284 44.5118H183.176M210.284 44.5118L208.598 48.8358M237.392 44.5118L238.205 41.3822L238.339 40.87L238.471 40.36M237.392 44.5118L236.268 48.8358M237.392 44.5118H264.5M211.903 40.36H238.471M211.903 40.36H185.334M211.903 40.36L212.882 37.8479L213.075 37.3527L213.459 36.3702M238.471 40.36L239.124 37.8479L239.253 37.3527L239.381 36.8601L239.508 36.3702M238.471 40.36H265.04M216.395 28.8403H241.466M216.395 28.8403L217.782 25.2838M216.395 28.8403H191.324M216.395 28.8403L216.04 29.7503L215.501 31.1321L214.955 32.533M241.466 28.8403L241.348 29.2942L240.628 32.0637L240.506 32.533M241.466 28.8403L242.391 25.2838M241.466 28.8403H266.537M217.782 25.2838H242.391M217.782 25.2838H193.173M217.782 25.2838L219.119 21.856M242.391 25.2838L242.729 23.9835L242.84 23.554L242.951 23.1266L243.282 21.856M242.391 25.2838H266.999M221.652 15.3594H244.97M221.652 15.3594L222.557 13.0391L222.853 12.2785M221.652 15.3594H198.333M221.652 15.3594L221.19 16.5426L221.035 16.9404L220.879 17.3403L220.407 18.55M244.97 15.3594L245.072 14.9686L245.274 14.1916L245.474 13.4215L245.771 12.2785M244.97 15.3594L244.559 16.9404L244.456 17.3403L244.246 18.1448L244.141 18.55M244.97 15.3594H268.289M222.853 12.2785H245.771M222.853 12.2785L223.871 9.66847L224.014 9.30195M222.853 12.2785H199.935M245.771 12.2785L245.87 11.9009L245.967 11.5248L246.065 11.1504L246.161 10.7775L246.45 9.66847L246.545 9.30195M245.771 12.2785H268.69M354.467 319.557H417.326M354.467 319.557L351.639 297.804M354.467 319.557H291.608M354.467 319.557L357.574 343.461M417.326 319.557L411.671 297.804M417.326 319.557L423.54 343.461M417.326 319.557H480.185M351.639 297.804H411.671M351.639 297.804H291.608M351.639 297.804L349.055 277.923M411.671 297.804L406.502 277.923M411.671 297.804H471.702M344.501 242.89H397.395M344.501 242.89L342.485 227.376M344.501 242.89H291.608M344.501 242.89L346.684 259.683M397.395 242.89L393.362 227.376M397.395 242.89L401.761 259.683M397.395 242.89H450.288M342.485 227.376H393.362M342.485 227.376H291.608M342.485 227.376L340.616 213.002M393.362 227.376L389.625 213.002M393.362 227.376H444.239M337.263 187.205H382.919M337.263 187.205L335.753 175.586M337.263 187.205H291.608M337.263 187.205L338.881 199.646M382.919 187.205L379.898 175.586M382.919 187.205L386.153 199.646M382.919 187.205H428.574M335.753 175.586H379.898M335.753 175.586H291.608M335.753 175.586L334.339 164.711M379.898 175.586L377.071 164.711M379.898 175.586H424.043M331.768 144.925H371.928M331.768 144.925L330.594 135.899M331.768 144.925H291.608M331.768 144.925L333.014 154.511M371.928 144.925L369.581 135.899M371.928 144.925L374.42 154.511M371.928 144.925H412.087M330.594 135.899H369.581M330.594 135.899H291.608M330.594 135.899L329.488 127.385M369.581 135.899L367.368 127.385M369.581 135.899H408.568M327.453 111.73H363.298M327.453 111.73L326.515 104.517M327.453 111.73H291.608M327.453 111.73L328.442 119.342M363.298 111.73L361.423 104.517M363.298 111.73L365.277 119.342M363.298 111.73H399.144M326.515 104.517H361.423M326.515 104.517H291.608M326.515 104.517L325.625 97.6717M361.423 104.517L359.643 97.6717M361.423 104.517H396.331M323.975 84.9767H356.343M323.975 84.9767L323.209 79.0803M323.975 84.9767H291.608M323.975 84.9767L324.78 91.1667M356.343 84.9767L354.81 79.0803M356.343 84.9767L357.952 91.1667M356.343 84.9767H388.711M323.209 79.0803H354.81M323.209 79.0803H291.608M323.209 79.0803L322.478 73.4566M354.81 79.0803L353.348 73.4566M354.81 79.0803H386.412M321.113 62.9549H350.618M321.113 62.9549L320.475 58.0452M321.113 62.9549H291.608M321.113 62.9549L321.78 68.0871M350.618 62.9549L349.498 58.6474L349.342 58.0452M350.618 62.9549L351.952 68.0871M350.618 62.9549H380.123M320.475 58.0452L320.397 57.4461L319.863 53.343M320.475 58.0452H349.342M320.475 58.0452H291.608M349.342 58.0452L348.877 56.2582L348.724 55.6687L348.571 55.0829L348.12 53.343M349.342 58.0452H378.209M318.716 44.5118H345.824M318.716 44.5118L318.176 40.36M318.716 44.5118H291.608M318.716 44.5118L318.924 46.1124L318.994 46.6516L319.064 47.1934L319.206 48.2855L319.278 48.8358M345.824 44.5118L345.01 41.3822L344.744 40.36M345.824 44.5118L346.948 48.8358M345.824 44.5118H372.932M318.176 40.36H344.744M318.176 40.36H291.608M318.176 40.36L317.657 36.3702M344.744 40.36L344.091 37.8479L343.962 37.3527L343.835 36.8601L343.707 36.3702M344.744 40.36H371.313M316.679 28.8403H341.749M316.679 28.8403L316.216 25.2838M316.679 28.8403H291.608M316.679 28.8403L317.159 32.533M341.749 28.8403L341.868 29.2942L342.588 32.0637L342.71 32.533M341.749 28.8403L340.825 25.2838M341.749 28.8403H366.82M316.216 25.2838H340.825M316.216 25.2838H291.608M316.216 25.2838L315.771 21.856M340.825 25.2838L340.487 23.9835L340.375 23.554L340.264 23.1266L339.934 21.856M340.825 25.2838H365.433M314.927 15.3594H338.245M314.927 15.3594L314.526 12.2785M314.927 15.3594H291.608M314.927 15.3594L315.341 18.55M338.245 15.3594L338.143 14.9686L337.941 14.1916L337.841 13.8055L337.642 13.0391L337.543 12.6577L337.444 12.2785M338.245 15.3594L338.656 16.9404L338.76 17.3403L338.969 18.1448L339.074 18.55M338.245 15.3594H361.564M314.526 12.2785L314.477 11.9009L314.428 11.5248L314.379 11.1504L314.139 9.30195M314.526 12.2785H337.444M314.526 12.2785H291.608M337.444 12.2785H360.363M337.444 12.2785L337.248 11.5248L337.151 11.1504L337.054 10.7775L336.766 9.66847L336.67 9.30195M605.903 319.557H668.762M605.903 319.557L591.765 297.804M605.903 319.557H543.044M605.903 319.557L621.439 343.461M668.762 319.557L651.796 297.804M668.762 319.557L687.404 343.461M668.762 319.557H731.621M591.765 297.804H651.796M591.765 297.804H531.734M591.765 297.804L578.844 277.923M651.796 297.804L636.292 277.923M651.796 297.804H711.828M556.076 242.89H608.969M556.076 242.89L545.993 227.376M556.076 242.89H503.182M556.076 242.89L566.99 259.683M608.969 242.89L596.87 227.376M608.969 242.89L622.067 259.683M608.969 242.89H661.863M545.993 227.376H596.87M545.993 227.376H495.116M545.993 227.376L536.651 213.002M596.87 227.376L585.66 213.002M596.87 227.376H647.748M519.885 187.205H565.541M519.885 187.205L512.334 175.586M519.885 187.205H474.23M519.885 187.205L527.972 199.646M565.541 187.205L556.48 175.586M565.541 187.205L575.244 199.646M565.541 187.205H611.196M512.334 175.586H556.48M512.334 175.586H468.189M512.334 175.586L505.266 164.711M556.48 175.586L547.998 164.711M556.48 175.586H600.624M492.407 144.925H532.568M492.407 144.925L486.542 135.899M492.407 144.925H452.247M492.407 144.925L498.638 154.511M532.568 144.925L525.528 135.899M532.568 144.925L540.044 154.511M532.568 144.925H572.728M486.542 135.899H525.528M486.542 135.899H447.554M486.542 135.899L481.008 127.385M525.528 135.899L518.888 127.385M525.528 135.899H564.515M470.834 111.73H506.679M470.834 111.73L466.146 104.517M470.834 111.73H434.989M470.834 111.73L475.781 119.342M506.679 111.73L501.054 104.517M506.679 111.73L512.615 119.342M506.679 111.73H542.525M466.146 104.517H501.054M466.146 104.517H431.238M466.146 104.517L461.697 97.6717M501.054 104.517L495.715 97.6717M501.054 104.517H535.961M453.446 84.9767H485.814M453.446 84.9767L449.614 79.0803M453.446 84.9767H421.078M453.446 84.9767L457.469 91.1667M485.814 84.9767L481.215 79.0803M485.814 84.9767L490.642 91.1667M485.814 84.9767H518.182M449.614 79.0803H481.215M449.614 79.0803H418.013M449.614 79.0803L445.959 73.4566M481.215 79.0803L476.829 73.4566M481.215 79.0803H512.816M439.134 62.9549L439.543 63.5841L439.954 64.2165L442.469 68.0871M439.134 62.9549H468.639M439.134 62.9549L435.943 58.0452M439.134 62.9549H409.629M468.639 62.9549L464.81 58.0452M468.639 62.9549L472.642 68.0871M468.639 62.9549H498.145M435.943 58.0452H464.81M435.943 58.0452H407.076M435.943 58.0452L432.887 53.343M464.81 58.0452L461.143 53.343M464.81 58.0452H493.677M427.147 44.5118H454.256M427.147 44.5118L424.449 40.36M427.147 44.5118H400.04M427.147 44.5118L429.958 48.8358M454.256 44.5118L452.216 41.8975L451.018 40.36M454.256 44.5118L457.628 48.8358M454.256 44.5118H481.364M424.449 40.36H451.018M424.449 40.36H397.881M424.449 40.36L422.175 36.8601L421.856 36.3702M451.018 40.36L447.906 36.3702M451.018 40.36H477.586M416.963 28.8403H442.034M416.963 28.8403L416.377 27.9384L414.651 25.2838M416.963 28.8403H391.892M416.963 28.8403L417.554 29.7503L418.754 31.5966L419.362 32.533M442.034 28.8403L439.26 25.2838M442.034 28.8403L443.101 30.2089L443.821 31.1321L444.913 32.533M442.034 28.8403H467.104M414.651 25.2838H439.26M414.651 25.2838H390.042M414.651 25.2838L412.973 22.7008L412.423 21.856M439.26 25.2838L438.245 23.9835L437.577 23.1266L436.586 21.856M439.26 25.2838H463.868M408.201 15.3594H431.52M408.201 15.3594L406.941 13.4215L406.199 12.2785M408.201 15.3594H384.882M408.201 15.3594L410.275 18.55M431.52 15.3594L429.71 13.0391L429.413 12.6577L429.117 12.2785M431.52 15.3594L432.753 16.9404L434.008 18.55M431.52 15.3594H454.838M406.199 12.2785H429.117M406.199 12.2785L405.223 10.7775L404.742 10.0366L404.502 9.66847L404.264 9.30195M406.199 12.2785H383.281M429.117 12.2785H452.035M429.117 12.2785L426.796 9.30195M749.502 227.376H698.625M749.502 227.376L732.687 213.002M749.502 227.376H764.746M749.502 227.376L764.746 240.407M702.507 187.205H748.163M702.507 187.205L688.915 175.586M702.507 187.205H656.852M702.507 187.205L717.062 199.646M748.163 187.205L733.061 175.586M748.163 187.205L764.335 199.646M748.163 187.205H764.746M688.915 175.586H733.061M688.915 175.586H644.77M688.915 175.586L676.193 164.711M733.061 175.586L718.925 164.711M733.061 175.586H764.746M653.047 144.925H693.207M653.047 144.925L642.488 135.899M653.047 144.925H612.887M653.047 144.925L664.262 154.511M693.207 144.925L681.475 135.899M693.207 144.925L705.668 154.511M693.207 144.925H733.367M642.488 135.899H681.475M642.488 135.899H603.502M642.488 135.899L632.529 127.385M681.475 135.899L670.409 127.385M681.475 135.899H720.462M614.215 111.73H650.06M614.215 111.73L605.777 104.517M614.215 111.73H578.37M614.215 111.73L623.119 119.342M650.06 111.73L640.684 104.517M650.06 111.73L659.954 119.342M650.06 111.73H685.906M605.777 104.517H640.684M605.777 104.517H570.869M605.777 104.517L597.768 97.6717M640.684 104.517L631.786 97.6717M640.684 104.517H675.592M582.917 84.9767H615.285M582.917 84.9767L576.019 79.0803M582.917 84.9767H550.55M582.917 84.9767L590.158 91.1667M615.285 84.9767L607.621 79.0803M615.285 84.9767L623.331 91.1667M615.285 84.9767H647.652M576.019 79.0803H607.621M576.019 79.0803H544.418M576.019 79.0803L569.44 73.4566M607.621 79.0803L600.311 73.4566M607.621 79.0803H639.222M557.155 62.9549H586.66M557.155 62.9549L551.411 58.0452M557.155 62.9549H527.65M557.155 62.9549L563.159 68.0871M586.66 62.9549L580.278 58.0452M586.66 62.9549L593.331 68.0871M586.66 62.9549H616.166M551.411 58.0452H580.278M551.411 58.0452H522.544M551.411 58.0452L545.911 53.343M580.278 58.0452L574.166 53.343M580.278 58.0452H609.145M535.579 44.5118H562.687M535.579 44.5118L530.722 40.36M535.579 44.5118H508.471M535.579 44.5118L540.638 48.8358M562.687 44.5118L557.291 40.36M562.687 44.5118L568.308 48.8358M562.687 44.5118H589.796M530.722 40.36H557.291M530.722 40.36H504.154M530.722 40.36L526.055 36.3702M557.291 40.36L552.105 36.3702M557.291 40.36H583.859M517.246 28.8403H542.317M517.246 28.8403L513.086 25.2838M517.246 28.8403H492.175M517.246 28.8403L518.311 29.7503L518.847 30.2089L521.567 32.533M542.317 28.8403L537.694 25.2838M542.317 28.8403L547.117 32.533M542.317 28.8403H567.388M513.086 25.2838H537.694M513.086 25.2838H488.477M513.086 25.2838L509.076 21.856M537.694 25.2838L533.239 21.856M537.694 25.2838H562.303M501.476 15.3594H524.795M501.476 15.3594L497.872 12.2785M501.476 15.3594H478.157M501.476 15.3594L505.208 18.55M524.795 15.3594L521.778 13.0391L521.283 12.6577L520.79 12.2785M524.795 15.3594L528.942 18.55M524.795 15.3594H548.113M497.872 12.2785H520.79M497.872 12.2785L494.818 9.66847L494.389 9.30195M497.872 12.2785H474.954M520.79 12.2785H543.708M520.79 12.2785L516.921 9.30195M757.596 111.73L745.407 104.517M757.596 111.73H721.751M757.596 111.73L764.746 115.962M757.596 111.73H764.746M745.407 104.517H710.499M745.407 104.517L733.84 97.6717M745.407 104.517H764.746M712.388 84.9767H744.756M712.388 84.9767L702.424 79.0803M712.388 84.9767H680.021M712.388 84.9767L722.847 91.1667M744.756 84.9767L734.026 79.0803M744.756 84.9767L756.02 91.1667M744.756 84.9767H764.746M702.424 79.0803H734.026M702.424 79.0803H670.823M702.424 79.0803L692.921 73.4566M734.026 79.0803L723.792 73.4566M734.026 79.0803H764.746M675.176 62.9549H704.682M675.176 62.9549L666.88 58.0452M675.176 62.9549H645.671M675.176 62.9549L683.848 68.0871M704.682 62.9549L695.746 58.0452M704.682 62.9549L714.02 68.0871M704.682 62.9549H734.187M666.88 58.0452H695.746M666.88 58.0452H638.012M666.88 58.0452L658.934 53.343M695.746 58.0452L687.19 53.343M695.746 58.0452H724.614M644.011 44.5118H671.119M644.011 44.5118L636.995 40.36M644.011 44.5118H616.903M644.011 44.5118L651.318 48.8358M671.119 44.5118L663.564 40.36M671.119 44.5118L678.988 48.8358M671.119 44.5118H698.227M636.995 40.36H663.564M636.995 40.36H610.427M636.995 40.36L630.254 36.3702M663.564 40.36L656.303 36.3702M663.564 40.36H690.132M617.53 28.8403H642.601M617.53 28.8403L611.52 25.2838M617.53 28.8403H592.459M617.53 28.8403L623.77 32.533M642.601 28.8403L636.129 25.2838M642.601 28.8403L649.321 32.533M642.601 28.8403H667.672M611.52 25.2838H636.129M611.52 25.2838H586.911M611.52 25.2838L605.728 21.856M636.129 25.2838L629.891 21.856M636.129 25.2838H660.738M594.751 15.3594H618.069M594.751 15.3594L589.545 12.2785M594.751 15.3594H571.432M594.751 15.3594L600.141 18.55M618.069 15.3594L612.463 12.2785M618.069 15.3594L623.875 18.55M618.069 15.3594H641.388M589.545 12.2785H612.463M589.545 12.2785L584.515 9.30195M589.545 12.2785H566.627M612.463 12.2785H635.381M612.463 12.2785L607.046 9.30195M752.443 44.5118L743.269 40.36M752.443 44.5118H725.335M752.443 44.5118L761.998 48.8358M752.443 44.5118H764.746M743.269 40.36H716.701M743.269 40.36L734.453 36.3702M743.269 40.36H764.746M717.814 28.8403H742.885M717.814 28.8403L709.955 25.2838M717.814 28.8403H692.743M717.814 28.8403L725.974 32.533M742.885 28.8403L734.563 25.2838M742.885 28.8403L751.525 32.533M742.885 28.8403H764.746M709.955 25.2838H734.563M709.955 25.2838H685.346M709.955 25.2838L702.38 21.856M734.563 25.2838L726.543 21.856M734.563 25.2838H759.172M688.025 15.3594H711.344M688.025 15.3594L681.218 12.2785M688.025 15.3594H664.707M688.025 15.3594L695.075 18.55M711.344 15.3594L704.136 12.2785M711.344 15.3594L718.808 18.55M711.344 15.3594H734.663M681.218 12.2785H704.136M681.218 12.2785L674.64 9.30195M681.218 12.2785H658.299M704.136 12.2785H727.054M704.136 12.2785L697.171 9.30195M718.808 18.55L726.543 21.856M718.808 18.55H742.542M718.808 18.55H695.075M734.663 15.3594L727.054 12.2785M734.663 15.3594L742.542 18.55M734.663 15.3594H757.981M727.054 12.2785H749.972M727.054 12.2785L719.703 9.30195M697.171 9.30195H674.64M697.171 9.30195H719.703M697.171 9.30195L690.438 6.4239M742.542 18.55L750.707 21.856M742.542 18.55H764.746M757.981 15.3594L749.972 12.2785M757.981 15.3594L764.746 17.9613M757.981 15.3594H764.746M749.972 12.2785L742.234 9.30195M749.972 12.2785H764.746M719.703 9.30195H742.234M719.703 9.30195L712.595 6.4239M742.234 9.30195L734.752 6.4239M742.234 9.30195H764.746M726.543 21.856H750.707M726.543 21.856H702.38M759.172 25.2838L750.707 21.856M759.172 25.2838L764.746 27.5401M759.172 25.2838H764.746M750.707 21.856H764.746M702.38 21.856H678.217M702.38 21.856L695.075 18.55M695.075 18.55H671.342M751.525 32.533L760.502 36.3702M751.525 32.533H725.974M751.525 32.533H764.746M764.822 28.8403H764.746M760.502 36.3702H734.453M760.502 36.3702L764.746 38.1837M760.502 36.3702H764.746M734.453 36.3702H708.403M734.453 36.3702L725.974 32.533M725.974 32.533H700.423M623.875 18.55L629.891 21.856M623.875 18.55H647.609M623.875 18.55H600.141M641.388 15.3594L635.381 12.2785M641.388 15.3594L647.609 18.55M641.388 15.3594H664.707M635.381 12.2785H658.299M635.381 12.2785L629.577 9.30195M607.046 9.30195H629.577M607.046 9.30195L601.809 6.4239M607.046 9.30195H584.515M647.609 18.55L654.054 21.856M647.609 18.55H671.342M664.707 15.3594L658.299 12.2785M664.707 15.3594L671.342 18.55M658.299 12.2785L652.109 9.30195M629.577 9.30195H652.109M629.577 9.30195L623.966 6.4239M671.342 18.55L678.217 21.856M674.64 9.30195H652.109M674.64 9.30195L668.28 6.4239M652.109 9.30195L646.123 6.4239M629.891 21.856H654.054M629.891 21.856H605.728M660.738 25.2838L654.054 21.856M660.738 25.2838L667.672 28.8403M660.738 25.2838H685.346M654.054 21.856H678.217M605.728 21.856H581.565M605.728 21.856L600.141 18.55M678.217 21.856L685.346 25.2838M600.141 18.55H576.408M667.672 28.8403L674.872 32.533M667.672 28.8403H692.743M685.346 25.2838L692.743 28.8403M692.743 28.8403L700.423 32.533M649.321 32.533L656.303 36.3702M649.321 32.533H674.872M649.321 32.533H623.77M674.872 32.533L682.353 36.3702M674.872 32.533H700.423M700.423 32.533L708.403 36.3702M656.303 36.3702H682.353M656.303 36.3702H630.254M690.132 40.36L682.353 36.3702M690.132 40.36L698.227 44.5118M690.132 40.36H716.701M682.353 36.3702H708.403M630.254 36.3702H604.204M630.254 36.3702L623.77 32.533M708.403 36.3702L716.701 40.36M623.77 32.533H598.219M698.227 44.5118L706.658 48.8358M698.227 44.5118H725.335M716.701 40.36L725.335 44.5118M725.335 44.5118L734.328 48.8358M678.988 48.8358L687.19 53.343M678.988 48.8358H706.658M678.988 48.8358H651.318M706.658 48.8358L715.446 53.343M706.658 48.8358H734.328M734.328 48.8358L743.701 53.343M734.328 48.8358H761.998M761.998 48.8358H764.746M761.998 48.8358L764.746 50.079M687.19 53.343H715.446M687.19 53.343H658.934M724.614 58.0452L715.446 53.343M724.614 58.0452L734.187 62.9549M724.614 58.0452H753.481M715.446 53.343H743.701M658.934 53.343H630.678M658.934 53.343L651.318 48.8358M743.701 53.343L753.481 58.0452M743.701 53.343H764.746M651.318 48.8358H623.648M734.187 62.9549L744.193 68.0871M734.187 62.9549H763.692M753.481 58.0452L763.692 62.9549M753.481 58.0452H764.746M764.894 53.343H764.746M763.692 62.9549L764.746 63.4616M763.692 62.9549H764.746M714.02 68.0871L723.792 73.4566M714.02 68.0871H744.193M714.02 68.0871H683.848M744.193 68.0871L754.662 73.4566M744.193 68.0871H764.746M765 63.5841L764.746 63.4616M723.792 73.4566H754.662M723.792 73.4566H692.921M754.662 73.4566H764.746M754.662 73.4566L764.746 78.6283M692.921 73.4566H662.051M692.921 73.4566L683.848 68.0871M683.848 68.0871H653.676M756.02 91.1667H722.847M756.02 91.1667L764.746 95.9616M756.02 91.1667H764.746M764.986 84.9767H764.746M722.847 91.1667H689.675M722.847 91.1667L733.84 97.6717M764.842 96.0144L764.746 95.9616M528.942 18.55L533.239 21.856M528.942 18.55H552.675M528.942 18.55H505.208M548.113 15.3594L543.708 12.2785M548.113 15.3594L552.675 18.55M548.113 15.3594H571.432M543.708 12.2785H566.627M543.708 12.2785L539.452 9.30195M516.921 9.30195H539.452M516.921 9.30195L515.503 8.21143L513.18 6.4239M516.921 9.30195H494.389M552.675 18.55L557.402 21.856M552.675 18.55H576.408M571.432 15.3594L566.627 12.2785M571.432 15.3594L576.408 18.55M566.627 12.2785L561.983 9.30195M539.452 9.30195H561.983M539.452 9.30195L535.337 6.4239M576.408 18.55L581.565 21.856M584.515 9.30195L579.652 6.4239M584.515 9.30195H561.983M561.983 9.30195L561.414 8.9365L560.282 8.21143L557.494 6.4239M533.239 21.856H557.402M533.239 21.856H509.076M562.303 25.2838L557.402 21.856M562.303 25.2838L567.388 28.8403M562.303 25.2838H586.911M557.402 21.856H581.565M509.076 21.856H484.913M509.076 21.856L505.208 18.55M581.565 21.856L586.911 25.2838M505.208 18.55H481.474M567.388 28.8403L572.668 32.533M567.388 28.8403H592.459M586.911 25.2838L587.594 25.7208L592.459 28.8403M592.459 28.8403L598.219 32.533M547.117 32.533L547.73 33.0049L552.105 36.3702M547.117 32.533H572.668M547.117 32.533H521.567M572.668 32.533L578.154 36.3702M572.668 32.533H598.219M598.219 32.533L604.204 36.3702M552.105 36.3702H578.154M552.105 36.3702H526.055M583.859 40.36L578.154 36.3702M583.859 40.36L589.796 44.5118M583.859 40.36H610.427M578.154 36.3702H604.204M526.055 36.3702H500.005M526.055 36.3702L521.567 32.533M604.204 36.3702L610.427 40.36M521.567 32.533H496.016M589.796 44.5118L595.978 48.8358M589.796 44.5118H616.903M610.427 40.36L616.903 44.5118M616.903 44.5118L623.648 48.8358M568.308 48.8358L574.166 53.343M568.308 48.8358H595.978M568.308 48.8358H540.638M595.978 48.8358L602.422 53.343M595.978 48.8358H623.648M623.648 48.8358L630.678 53.343M574.166 53.343H602.422M574.166 53.343H545.911M609.145 58.0452L602.422 53.343M609.145 58.0452L616.166 62.9549M609.145 58.0452H638.012M602.422 53.343H630.678M545.911 53.343H517.655M545.911 53.343L540.638 48.8358M630.678 53.343L638.012 58.0452M540.638 48.8358H512.968M616.166 62.9549L623.504 68.0871M616.166 62.9549H645.671M638.012 58.0452L645.671 62.9549M645.671 62.9549L653.676 68.0871M593.331 68.0871L600.311 73.4566M593.331 68.0871H623.504M593.331 68.0871H563.159M623.504 68.0871L631.181 73.4566M623.504 68.0871H653.676M653.676 68.0871L662.051 73.4566M600.311 73.4566H631.181M600.311 73.4566H569.44M639.222 79.0803L631.181 73.4566M639.222 79.0803L647.652 84.9767M639.222 79.0803H670.823M631.181 73.4566H662.051M569.44 73.4566H538.57M569.44 73.4566L563.159 68.0871M662.051 73.4566L670.823 79.0803M563.159 68.0871H532.986M647.652 84.9767L656.503 91.1667M647.652 84.9767H680.021M670.823 79.0803L680.021 84.9767M680.021 84.9767L689.675 91.1667M623.331 91.1667L631.786 97.6717M623.331 91.1667H656.503M623.331 91.1667H590.158M656.503 91.1667L665.804 97.6717M656.503 91.1667H689.675M689.675 91.1667L699.822 97.6717M631.786 97.6717H665.804M631.786 97.6717H597.768M675.592 104.517L665.804 97.6717M675.592 104.517L685.906 111.73M675.592 104.517H710.499M665.804 97.6717H699.822M597.768 97.6717H563.75M597.768 97.6717L590.158 91.1667M699.822 97.6717L710.499 104.517M699.822 97.6717H733.84M590.158 91.1667H556.986M685.906 111.73L696.788 119.342M685.906 111.73H721.751M710.499 104.517L721.751 111.73M733.84 97.6717H764.746M721.751 111.73L733.623 119.342M659.954 119.342L670.409 127.385M659.954 119.342H696.788M659.954 119.342H623.119M696.788 119.342L708.289 127.385M696.788 119.342H733.623M733.623 119.342L746.169 127.385M733.623 119.342H764.746M670.409 127.385H708.289M670.409 127.385H632.529M720.462 135.899L708.289 127.385M720.462 135.899L733.367 144.925M720.462 135.899H759.448M708.289 127.385H746.169M632.529 127.385H594.649M632.529 127.385L623.119 119.342M746.169 127.385L759.448 135.899M746.169 127.385H764.746M623.119 119.342H586.284M733.367 144.925L747.073 154.511M733.367 144.925H764.746M759.448 135.899H764.746M759.448 135.899L764.746 139.295M705.668 154.511L718.925 164.711M705.668 154.511H747.073M705.668 154.511H664.262M747.073 154.511L761.657 164.711M747.073 154.511H764.746M718.925 164.711H761.657M718.925 164.711H676.193M761.657 164.711L764.746 166.871M761.657 164.711H764.746M676.193 164.711H633.462M676.193 164.711L664.262 154.511M664.262 154.511H622.856M764.335 199.646H717.062M764.335 199.646H764.746M764.335 199.646L764.746 199.962M717.062 199.646H669.79M717.062 199.646L732.687 213.002M434.008 18.55L434.964 19.7756L435.285 20.1882L436.586 21.856M434.008 18.55H457.741M434.008 18.55H410.275M454.838 15.3594L452.727 13.0391L452.035 12.2785M454.838 15.3594L457.373 18.1448L457.741 18.55M454.838 15.3594H478.157M452.035 12.2785H474.954M452.035 12.2785L449.327 9.30195M426.796 9.30195H449.327M426.796 9.30195L425.945 8.21143L424.551 6.4239M426.796 9.30195H404.264M457.741 18.55L458.483 19.3651L460.75 21.856M457.741 18.55H481.474M478.157 15.3594L474.954 12.2785M478.157 15.3594L481.474 18.55M474.954 12.2785L472.622 10.0366L471.858 9.30195M449.327 9.30195H471.858M449.327 9.30195L446.708 6.4239M481.474 18.55L484.913 21.856M494.389 9.30195L493.962 8.9365L491.023 6.4239M494.389 9.30195H471.858M471.858 9.30195L470.724 8.21143L468.865 6.4239M436.586 21.856H460.75M436.586 21.856H412.423M463.868 25.2838L460.75 21.856M463.868 25.2838L467.104 28.8403M463.868 25.2838H488.477M460.75 21.856H484.913M412.423 21.856H388.26M412.423 21.856L410.275 18.55M484.913 21.856L488.477 25.2838M410.275 18.55H386.541M467.104 28.8403L469.189 31.1321L469.613 31.5966L470.464 32.533M467.104 28.8403H492.175M488.477 25.2838L492.175 28.8403M492.175 28.8403L496.016 32.533M444.913 32.533L447.906 36.3702M444.913 32.533H470.464M444.913 32.533H419.362M470.464 32.533L473.956 36.3702M470.464 32.533H496.016M496.016 32.533L500.005 36.3702M447.906 36.3702H473.956M447.906 36.3702H421.856M477.586 40.36L475.3 37.8479L474.85 37.3527L473.956 36.3702M477.586 40.36L481.364 44.5118M477.586 40.36H504.154M473.956 36.3702H500.005M421.856 36.3702H395.806M421.856 36.3702L419.362 32.533M500.005 36.3702L504.154 40.36M419.362 32.533H393.811M481.364 44.5118L485.298 48.8358M481.364 44.5118H508.471M504.154 40.36L508.471 44.5118M508.471 44.5118L512.968 48.8358M457.628 48.8358L459.367 51.0656L459.807 51.6307L461.143 53.343M457.628 48.8358H485.298M457.628 48.8358H429.958M485.298 48.8358L489.399 53.343M485.298 48.8358H512.968M512.968 48.8358L517.655 53.343M461.143 53.343H489.399M461.143 53.343H432.887M493.677 58.0452L489.399 53.343M493.677 58.0452L498.145 62.9549M493.677 58.0452H522.544M489.399 53.343H517.655M432.887 53.343H404.631M432.887 53.343L432.143 52.1985L429.958 48.8358M517.655 53.343L522.544 58.0452M429.958 48.8358H402.288M498.145 62.9549L502.814 68.0871M498.145 62.9549H527.65M522.544 58.0452L527.65 62.9549M527.65 62.9549L532.986 68.0871M472.642 68.0871L476.829 73.4566M472.642 68.0871H502.814M472.642 68.0871H442.469M502.814 68.0871L507.7 73.4566M502.814 68.0871H532.986M532.986 68.0871L538.57 73.4566M476.829 73.4566H507.7M476.829 73.4566H445.959M512.816 79.0803L507.7 73.4566M512.816 79.0803L518.182 84.9767M512.816 79.0803H544.418M507.7 73.4566H538.57M445.959 73.4566H415.089M445.959 73.4566L442.469 68.0871M538.57 73.4566L544.418 79.0803M442.469 68.0871H412.297M518.182 84.9767L523.813 91.1667M518.182 84.9767H550.55M544.418 79.0803L550.55 84.9767M550.55 84.9767L556.986 91.1667M490.642 91.1667L495.715 97.6717M490.642 91.1667H523.813M490.642 91.1667H457.469M523.813 91.1667L529.733 97.6717M523.813 91.1667H556.986M556.986 91.1667L563.75 97.6717M495.715 97.6717H529.733M495.715 97.6717H461.697M535.961 104.517L529.733 97.6717M535.961 104.517L542.525 111.73M535.961 104.517H570.869M529.733 97.6717H563.75M461.697 97.6717H427.679M461.697 97.6717L457.469 91.1667M563.75 97.6717L570.869 104.517M457.469 91.1667H424.297M542.525 111.73L549.45 119.342M542.525 111.73H578.37M570.869 104.517L578.37 111.73M578.37 111.73L586.284 119.342M512.615 119.342L518.888 127.385M512.615 119.342H549.45M512.615 119.342H475.781M549.45 119.342L556.768 127.385M549.45 119.342H586.284M586.284 119.342L594.649 127.385M518.888 127.385H556.768M518.888 127.385H481.008M564.515 135.899L556.768 127.385M564.515 135.899L572.728 144.925M564.515 135.899H603.502M556.768 127.385H594.649M481.008 127.385H443.128M481.008 127.385L475.781 119.342M594.649 127.385L603.502 135.899M475.781 119.342H438.946M572.728 144.925L581.45 154.511M572.728 144.925H612.887M603.502 135.899L612.887 144.925M612.887 144.925L622.856 154.511M540.044 154.511L547.998 164.711M540.044 154.511H581.45M540.044 154.511H498.638M581.45 154.511L590.73 164.711M581.45 154.511H622.856M622.856 154.511L633.462 164.711M547.998 164.711H590.73M547.998 164.711H505.266M600.624 175.586L590.73 164.711M600.624 175.586L611.196 187.205M600.624 175.586H644.77M590.73 164.711H633.462M505.266 164.711H462.535M505.266 164.711L498.638 154.511M633.462 164.711L644.77 175.586M498.638 154.511H457.232M611.196 187.205L622.517 199.646M611.196 187.205H656.852M644.77 175.586L656.852 187.205M656.852 187.205L669.79 199.646M575.244 199.646L585.66 213.002M575.244 199.646H622.517M575.244 199.646H527.972M622.517 199.646L634.669 213.002M622.517 199.646H669.79M669.79 199.646L683.678 213.002M585.66 213.002H634.669M585.66 213.002H536.651M647.748 227.376L634.669 213.002M647.748 227.376L661.863 242.89M647.748 227.376H698.625M634.669 213.002H683.678M536.651 213.002H487.643M536.651 213.002L527.972 199.646M683.678 213.002L698.625 227.376M683.678 213.002H732.687M527.972 199.646H480.699M661.863 242.89L677.143 259.683M661.863 242.89H714.756M698.625 227.376L714.756 242.89M732.687 213.002H764.746M714.756 242.89L732.22 259.683M714.756 242.89H764.746M622.067 259.683L636.292 277.923M622.067 259.683H677.143M622.067 259.683H566.99M677.143 259.683L693.739 277.923M677.143 259.683H732.22M732.22 259.683L751.186 277.923M732.22 259.683H764.746M636.292 277.923H693.739M636.292 277.923H578.844M711.828 297.804L693.739 277.923M711.828 297.804L731.621 319.557M711.828 297.804H764.746M693.739 277.923H751.186M578.844 277.923H521.397M578.844 277.923L566.99 259.683M751.186 277.923H764.746M751.186 277.923L764.746 290.963M566.99 259.683H511.914M731.621 319.557L753.371 343.461M731.621 319.557H764.746M687.404 343.461L707.986 369.852M687.404 343.461H753.371M687.404 343.461H621.439M753.371 343.461L764.746 355.963M753.371 343.461H764.746M764.746 369.851L707.986 369.852H638.589M638.589 369.852H569.193M638.589 369.852L621.439 343.461M621.439 343.461H555.472M339.074 18.55L339.18 18.9567L339.286 19.3651L339.393 19.7756L339.5 20.1882L339.825 21.436L339.934 21.856M339.074 18.55H362.808M339.074 18.55H315.341M361.564 15.3594L360.659 13.0391L360.363 12.2785M361.564 15.3594L362.336 17.3403L362.808 18.55M361.564 15.3594H384.882M360.363 12.2785H383.281M360.363 12.2785L359.488 10.0366L359.201 9.30195M336.67 9.30195L336.576 8.9365L336.2 7.49164L335.922 6.4239M336.67 9.30195H359.201M336.67 9.30195H314.139M362.808 18.55L362.966 18.9567L363.126 19.3651L363.286 19.7756L363.447 20.1882L364.097 21.856M362.808 18.55H386.541M384.882 15.3594L383.676 13.0391L383.281 12.2785M384.882 15.3594L386.541 18.55M383.281 12.2785L382.5 10.7775L381.923 9.66847L381.733 9.30195M359.201 9.30195L359.059 8.9365L358.776 8.21143L358.496 7.49164L358.357 7.13414L358.079 6.4239M359.201 9.30195H381.733M386.541 18.55L387.825 21.0181L388.26 21.856M404.264 9.30195L402.856 7.13414L402.394 6.4239M404.264 9.30195H381.733M381.733 9.30195L380.421 6.77823L380.236 6.4239M339.934 21.856H364.097M339.934 21.856H315.771M365.433 25.2838L364.097 21.856M365.433 25.2838L366.82 28.8403M365.433 25.2838H390.042M364.097 21.856H388.26M315.771 21.856H291.608M315.771 21.856L315.341 18.55M388.26 21.856L390.042 25.2838M315.341 18.55H291.608M366.82 28.8403L367.176 29.7503L367.714 31.1321L368.26 32.533M366.82 28.8403H391.892M390.042 25.2838L390.27 25.7208L391.892 28.8403M391.892 28.8403L392.127 29.2942L392.365 29.7503L392.603 30.2089L393.811 32.533M342.71 32.533L343.707 36.3702M342.71 32.533H368.26M342.71 32.533H317.159M368.26 32.533L369.757 36.3702M368.26 32.533H393.811M393.811 32.533L395.3 35.3967L395.553 35.8824L395.806 36.3702M343.707 36.3702H369.757M343.707 36.3702H317.657M371.313 40.36L371.511 40.87L371.711 41.3822L371.912 41.8975L372.932 44.5118M371.313 40.36L370.527 38.3452L370.333 37.8479L370.14 37.3527L369.757 36.3702M371.313 40.36H397.881M369.757 36.3702H395.806M317.657 36.3702H291.608M317.657 36.3702L317.159 32.533M395.806 36.3702L397.881 40.36M317.159 32.533H291.608M372.932 44.5118L374.403 48.2855L374.618 48.8358M372.932 44.5118H400.04M397.881 40.36L398.413 41.3822L400.04 44.5118M400.04 44.5118L400.872 46.1124L402.288 48.8358M346.948 48.8358L347.528 51.0656L347.674 51.6307L348.12 53.343M346.948 48.8358H374.618M346.948 48.8358H319.278M374.618 48.8358L376.375 53.343M374.618 48.8358H402.288M402.288 48.8358L404.631 53.343M348.12 53.343H376.375M348.12 53.343H319.863M378.209 58.0452L376.375 53.343M378.209 58.0452L380.123 62.9549M378.209 58.0452H407.076M376.375 53.343H404.631M319.863 53.343H291.608M319.863 53.343L319.715 52.1985L319.422 49.9449L319.278 48.8358M404.631 53.343L407.076 58.0452M319.278 48.8358H291.608M380.123 62.9549L381.616 66.7826L382.125 68.0871M380.123 62.9549H409.629M407.076 58.0452L409.629 62.9549M409.629 62.9549L410.948 65.4924L412.297 68.0871M351.952 68.0871L353.348 73.4566M351.952 68.0871H382.125M351.952 68.0871H321.78M382.125 68.0871L384.219 73.4566M382.125 68.0871H412.297M412.297 68.0871L415.089 73.4566M353.348 73.4566H384.219M353.348 73.4566H322.478M386.412 79.0803L385.853 77.6497L384.219 73.4566M386.412 79.0803L388.711 84.9767M386.412 79.0803H418.013M384.219 73.4566H415.089M322.478 73.4566H291.608M322.478 73.4566L321.78 68.0871M415.089 73.4566L418.013 79.0803M321.78 68.0871H291.608M388.711 84.9767L391.124 91.1667M388.711 84.9767H421.078M418.013 79.0803L421.078 84.9767M421.078 84.9767L424.297 91.1667M357.952 91.1667L359.643 97.6717M357.952 91.1667H391.124M357.952 91.1667H324.78M391.124 91.1667L393.661 97.6717M391.124 91.1667H424.297M424.297 91.1667L427.679 97.6717M359.643 97.6717H393.661M359.643 97.6717H325.625M396.331 104.517L393.661 97.6717M396.331 104.517L399.144 111.73M396.331 104.517H431.238M393.661 97.6717H427.679M325.625 97.6717H291.608M325.625 97.6717L324.883 91.9622L324.78 91.1667M427.679 97.6717L431.238 104.517M324.78 91.1667H291.608M399.144 111.73L402.112 119.342M399.144 111.73H434.989M431.238 104.517L434.032 109.892L434.989 111.73M434.989 111.73L438.946 119.342M365.277 119.342L367.368 127.385M365.277 119.342H402.112M365.277 119.342H328.442M402.112 119.342L405.248 127.385M402.112 119.342H438.946M438.946 119.342L443.128 127.385M367.368 127.385H405.248M367.368 127.385H329.488M408.568 135.899L405.248 127.385M408.568 135.899L412.087 144.925M408.568 135.899H447.554M405.248 127.385H443.128M329.488 127.385H291.608M329.488 127.385L328.442 119.342M443.128 127.385L447.554 135.899M328.442 119.342H291.608M412.087 144.925L415.826 154.511M412.087 144.925H452.247M447.554 135.899L452.247 144.925M452.247 144.925L457.232 154.511M374.42 154.511L377.071 164.711M374.42 154.511H415.826M374.42 154.511H333.014M415.826 154.511L419.803 164.711M415.826 154.511H457.232M457.232 154.511L462.535 164.711M377.071 164.711H419.803M377.071 164.711H334.339M424.043 175.586L419.803 164.711M424.043 175.586L428.574 187.205M424.043 175.586H468.189M419.803 164.711H462.535M334.339 164.711H291.608M334.339 164.711L333.014 154.511M462.535 164.711L468.189 175.586M333.014 154.511H291.608M428.574 187.205L433.426 199.646M428.574 187.205H474.23M468.189 175.586L474.23 187.205M474.23 187.205L480.699 199.646M386.153 199.646L389.625 213.002M386.153 199.646H433.426M386.153 199.646H338.881M433.426 199.646L438.634 213.002M433.426 199.646H480.699M480.699 199.646L487.643 213.002M389.625 213.002H438.634M389.625 213.002H340.616M444.239 227.376L438.634 213.002M444.239 227.376L450.288 242.89M444.239 227.376H495.116M438.634 213.002H487.643M340.616 213.002H291.608M340.616 213.002L338.881 199.646M487.643 213.002L495.116 227.376M338.881 199.646H291.608M450.288 242.89L456.837 259.683M450.288 242.89H503.182M495.116 227.376L503.182 242.89M503.182 242.89L511.914 259.683M401.761 259.683L406.502 277.923M401.761 259.683H456.837M401.761 259.683H346.684M456.837 259.683L463.95 277.923M456.837 259.683H511.914M511.914 259.683L521.397 277.923M406.502 277.923H463.95M406.502 277.923H349.055M471.702 297.804L463.95 277.923M471.702 297.804L480.185 319.557M471.702 297.804H531.734M463.95 277.923H521.397M349.055 277.923H291.608M349.055 277.923L346.684 259.683M521.397 277.923L531.734 297.804M346.684 259.683H291.608M480.185 319.557L489.506 343.461M480.185 319.557H543.044M531.734 297.804L543.044 319.557M543.044 319.557L555.472 343.461M423.54 343.461L430.4 369.852M423.54 343.461H489.506M423.54 343.461H357.574M489.506 343.461L499.797 369.852M489.506 343.461H555.472M555.472 343.461L569.193 369.852M499.797 369.852H430.4M499.797 369.852H569.193M430.4 369.852H361.004M361.004 369.852H291.608M361.004 369.852L357.574 343.461M357.574 343.461H291.608M244.141 18.55L244.035 18.9567L243.929 19.3651L243.822 19.7756L243.715 20.1882L243.499 21.0181L243.391 21.436L243.282 21.856M244.141 18.55H267.874M244.141 18.55H220.407M268.289 15.3594L268.69 12.2785M268.289 15.3594L267.874 18.55M268.289 15.3594H291.608M268.69 12.2785L268.738 11.9009L268.788 11.5248L268.836 11.1504L269.076 9.30195M268.69 12.2785H291.608M246.545 9.30195L246.64 8.9365L247.015 7.49164L247.293 6.4239M246.545 9.30195H269.076M246.545 9.30195H224.014M267.874 18.55L267.821 18.9567L267.768 19.3651L267.715 19.7756L267.445 21.856M267.874 18.55H291.608M291.608 15.3594V12.2785M291.608 15.3594V18.55M291.608 12.2785V9.30195M269.076 9.30195H291.608M269.076 9.30195L269.218 8.21143L269.265 7.85074L269.451 6.4239M291.608 18.55V21.856M314.139 9.30195L313.998 8.21143L313.95 7.85074L313.904 7.49164L313.857 7.13414L313.811 6.77823L313.765 6.4239M314.139 9.30195H291.608M291.608 9.30195V6.4239M243.282 21.856H267.445M243.282 21.856H219.119M266.999 25.2838L266.942 25.7208L266.885 26.1604L266.537 28.8403M266.999 25.2838L267.445 21.856M266.999 25.2838H291.608M267.445 21.856H291.608M219.119 21.856H194.955M219.119 21.856L219.445 21.0181L219.607 20.6023L219.769 20.1882L219.93 19.7756L220.089 19.3651L220.249 18.9567L220.407 18.55M291.608 21.856V25.2838M220.407 18.55H196.674M266.537 28.8403L266.057 32.533M266.537 28.8403H291.608M291.608 25.2838V28.8403M291.608 28.8403V32.533M240.506 32.533L239.508 36.3702M240.506 32.533H266.057M240.506 32.533H214.955M266.057 32.533L265.558 36.3702M266.057 32.533H291.608M291.608 32.533V36.3702M239.508 36.3702H265.558M239.508 36.3702H213.459M265.04 40.36L265.558 36.3702M265.04 40.36L264.5 44.5118M265.04 40.36H291.608M265.558 36.3702H291.608M213.459 36.3702H187.409M213.459 36.3702L214.955 32.533M291.608 36.3702V40.36M214.955 32.533H189.404M264.5 44.5118L264.292 46.1124L264.08 47.7379L263.938 48.8358M264.5 44.5118H291.608M291.608 40.36V44.5118M291.608 44.5118V48.8358M236.268 48.8358L235.688 51.0656L235.541 51.6307L235.096 53.343M236.268 48.8358H263.938M236.268 48.8358H208.598M263.938 48.8358L263.794 49.9449L263.501 52.1985L263.352 53.343M263.938 48.8358H291.608M291.608 48.8358V53.343M235.096 53.343H263.352M235.096 53.343H206.84M262.741 58.0452L262.818 57.4461L263.352 53.343M262.741 58.0452L262.103 62.9549M262.741 58.0452H291.608M263.352 53.343H291.608M206.84 53.343H178.584M206.84 53.343L208.598 48.8358M291.608 53.343V58.0452M208.598 48.8358H180.927M262.103 62.9549L261.435 68.0871M262.103 62.9549H291.608M291.608 58.0452V62.9549M291.608 62.9549V68.0871M231.263 68.0871L229.867 73.4566M231.263 68.0871H261.435M231.263 68.0871H201.09M261.435 68.0871L260.737 73.4566M261.435 68.0871H291.608M291.608 68.0871V73.4566M229.867 73.4566H260.737M229.867 73.4566H198.997M260.007 79.0803L260.737 73.4566M260.007 79.0803L259.24 84.9767M260.007 79.0803H291.608M260.737 73.4566H291.608M198.997 73.4566H168.127M198.997 73.4566L201.09 68.0871M291.608 73.4566V79.0803M201.09 68.0871H170.918M259.24 84.9767L258.435 91.1667M259.24 84.9767H291.608M291.608 79.0803V84.9767M291.608 84.9767V91.1667M225.263 91.1667L223.572 97.6717M225.263 91.1667H258.435M225.263 91.1667H192.091M258.435 91.1667L257.59 97.6717M258.435 91.1667H291.608M291.608 91.1667V97.6717M223.572 97.6717H257.59M223.572 97.6717H189.554M256.7 104.517L257.59 97.6717M256.7 104.517L255.763 111.73M256.7 104.517H291.608M257.59 97.6717H291.608M189.554 97.6717H155.536M189.554 97.6717L192.091 91.1667M291.608 97.6717V104.517M192.091 91.1667H158.919M255.763 111.73L254.773 119.342M255.763 111.73H291.608M291.608 104.517V111.73M291.608 111.73V119.342M217.939 119.342L215.847 127.385M217.939 119.342H254.773M217.939 119.342H181.104M254.773 119.342L253.728 127.385M254.773 119.342H291.608M291.608 119.342V127.385M215.847 127.385H253.728M215.847 127.385H177.967M252.621 135.899L253.728 127.385M252.621 135.899L251.448 144.925M252.621 135.899H291.608M253.728 127.385H291.608M177.967 127.385H140.087M177.967 127.385L181.104 119.342M291.608 127.385V135.899M181.104 119.342H144.269M251.448 144.925L250.202 154.511M251.448 144.925H291.608M291.608 135.899V144.925M291.608 144.925V154.511M208.796 154.511L206.144 164.711M208.796 154.511H250.202M208.796 154.511H167.39M250.202 154.511L248.876 164.711M250.202 154.511H291.608M291.608 154.511V164.711M206.144 164.711H248.876M206.144 164.711H163.412M247.462 175.586L248.876 164.711M247.462 175.586L245.952 187.205M247.462 175.586H291.608M248.876 164.711H291.608M163.412 164.711H120.681M163.412 164.711L167.39 154.511M291.608 164.711V175.586M167.39 154.511H125.984M245.952 187.205L244.335 199.646M245.952 187.205H291.608M291.608 175.586V187.205M291.608 187.205V199.646M197.062 199.646L193.59 213.002M197.062 199.646H244.335M197.062 199.646H149.789M244.335 199.646L242.599 213.002M244.335 199.646H291.608M291.608 199.646V213.002M193.59 213.002H242.599M193.59 213.002H144.582M240.731 227.376L242.599 213.002M240.731 227.376L238.714 242.89M240.731 227.376H291.608M242.599 213.002H291.608M144.582 213.002H95.5728M144.582 213.002L149.789 199.646M291.608 213.002V227.376M149.789 199.646H102.517M238.714 242.89L236.531 259.683M238.714 242.89H291.608M291.608 227.376V242.89M291.608 242.89V259.683M181.455 259.683L176.713 277.923M181.455 259.683H236.531M181.455 259.683H126.378M236.531 259.683L234.16 277.923M236.531 259.683H291.608M291.608 259.683V277.923M176.713 277.923H234.16M176.713 277.923H119.266M231.576 297.804L234.16 277.923M231.576 297.804L228.749 319.557M231.576 297.804H291.608M234.16 277.923H291.608M119.266 277.923H61.8183M119.266 277.923L126.378 259.683M291.608 277.923V297.804M126.378 259.683H71.3018M228.749 319.557L225.641 343.461M228.749 319.557H291.608M291.608 297.804V319.557M291.608 319.557V343.461M159.676 343.461L152.815 369.852M159.676 343.461H225.641M159.676 343.461H93.7094M225.641 343.461L222.211 369.852M225.641 343.461H291.608M291.608 343.461V369.852M222.211 369.852H152.815M222.211 369.852H291.608M152.815 369.852H83.4186M83.4186 369.852H14.022M83.4186 369.852L93.7094 343.461M93.7094 343.461H27.743M149.207 18.55L147.93 20.1882L146.629 21.856M149.207 18.55H172.941M149.207 18.55H125.474M175.014 15.3594L177.017 12.2785M175.014 15.3594L172.941 18.55M175.014 15.3594H198.333M177.017 12.2785H199.935M177.017 12.2785L178.474 10.0366L178.951 9.30195M156.42 9.30195H178.951M156.42 9.30195L157.271 8.21143L158.664 6.4239M156.42 9.30195H133.889M172.941 18.55L170.792 21.856M172.941 18.55H196.674M198.333 15.3594L199.935 12.2785M198.333 15.3594L196.674 18.55M199.935 12.2785L200.715 10.7775L201.292 9.66847L201.482 9.30195M178.951 9.30195H201.482M178.951 9.30195L180.36 7.13414L180.821 6.4239M196.674 18.55L195.391 21.0181L194.955 21.856M224.014 9.30195L224.156 8.9365L224.439 8.21143L224.859 7.13414L225.136 6.4239M224.014 9.30195H201.482M201.482 9.30195L201.672 8.9365L202.05 8.21143L202.979 6.4239M146.629 21.856H170.792M146.629 21.856H122.466M168.564 25.2838L168.848 24.8484L169.129 24.4147L170.243 22.7008L170.792 21.856M168.564 25.2838L166.839 27.9384L166.253 28.8403M168.564 25.2838H193.173M170.792 21.856H194.955M122.466 21.856H98.3027M122.466 21.856L124.732 19.3651L125.474 18.55M194.955 21.856L193.173 25.2838M125.474 18.55H101.74M166.253 28.8403L165.958 29.2942L165.661 29.7503L164.764 31.1321L164.461 31.5966L163.853 32.533M166.253 28.8403H191.324M193.173 25.2838L192.946 25.7208L191.324 28.8403M191.324 28.8403L191.088 29.2942L190.85 29.7503L190.612 30.2089L189.404 32.533M138.302 32.533L135.31 36.3702M138.302 32.533H163.853M138.302 32.533H112.751M163.853 32.533L161.359 36.3702M163.853 32.533H189.404M189.404 32.533L187.409 36.3702M135.31 36.3702H161.359M135.31 36.3702H109.26M158.766 40.36L161.359 36.3702M158.766 40.36L156.068 44.5118M158.766 40.36H185.334M161.359 36.3702H187.409M109.26 36.3702H83.2101M109.26 36.3702L112.751 32.533M187.409 36.3702L185.334 40.36M112.751 32.533H87.1997M156.068 44.5118L153.258 48.8358M156.068 44.5118H183.176M185.334 40.36L184.803 41.3822L183.176 44.5118M183.176 44.5118L182.343 46.1124L181.498 47.7379L180.927 48.8358M125.587 48.8358L123.848 51.0656L122.073 53.343M125.587 48.8358H153.258M125.587 48.8358H97.9173M153.258 48.8358L150.328 53.343M153.258 48.8358H180.927M180.927 48.8358L178.584 53.343M122.073 53.343H150.328M122.073 53.343H93.8168M147.273 58.0452L150.328 53.343M147.273 58.0452L144.081 62.9549M147.273 58.0452H176.139M150.328 53.343H178.584M93.8168 53.343H65.5605M93.8168 53.343L97.9173 48.8358M178.584 53.343L176.139 58.0452M97.9173 48.8358H70.2476M144.081 62.9549L143.261 64.2165L140.746 68.0871M144.081 62.9549H173.586M176.139 58.0452L173.586 62.9549M173.586 62.9549L173.26 63.5841L172.267 65.4924L170.918 68.0871M110.574 68.0871L106.386 73.4566M110.574 68.0871H140.746M110.574 68.0871H80.4013M140.746 68.0871L137.256 73.4566M140.746 68.0871H170.918M170.918 68.0871L168.127 73.4566M106.386 73.4566H137.256M106.386 73.4566H75.5157M133.601 79.0803L135.906 75.5349L137.256 73.4566M133.601 79.0803L129.769 84.9767M133.601 79.0803H165.202M137.256 73.4566H168.127M75.5157 73.4566H44.6454M75.5157 73.4566L80.4013 68.0871M168.127 73.4566L165.202 79.0803M80.4013 68.0871H50.2289M129.769 84.9767L125.746 91.1667M129.769 84.9767H162.137M165.202 79.0803L162.137 84.9767M162.137 84.9767L158.919 91.1667M92.5738 91.1667L87.5004 97.6717M92.5738 91.1667H125.746M92.5738 91.1667H59.4019M125.746 91.1667L121.519 97.6717M125.746 91.1667H158.919M158.919 91.1667L155.536 97.6717M87.5004 97.6717H121.519M87.5004 97.6717H53.4827M117.07 104.517L121.519 97.6717M117.07 104.517L112.382 111.73M117.07 104.517H151.977M121.519 97.6717H155.536M53.4827 97.6717H19.4651M53.4827 97.6717L59.4019 91.1667M155.536 97.6717L151.977 104.517M59.4019 91.1667H26.2295M112.382 111.73L107.435 119.342M112.382 111.73H148.227M151.977 104.517L148.227 111.73M148.227 111.73L144.269 119.342M70.6 119.342L64.327 127.385M70.6 119.342H107.435M70.6 119.342H33.7652M107.435 119.342L102.207 127.385M107.435 119.342H144.269M144.269 119.342L140.087 127.385M64.327 127.385H102.207M64.327 127.385H26.4468M96.6738 135.899L102.207 127.385M96.6738 135.899L90.8079 144.925M96.6738 135.899H135.661M102.207 127.385H140.087M26.4468 127.385H-11.4333M26.4468 127.385L33.7652 119.342M140.087 127.385L135.661 135.899M33.7652 119.342H-3.06909M90.8079 144.925L84.5778 154.511M90.8079 144.925H130.968M135.661 135.899L130.968 144.925M130.968 144.925L125.984 154.511M43.1718 154.511L35.2171 164.711M43.1718 154.511H84.5778M43.1718 154.511H1.76579M84.5778 154.511L77.9489 164.711M84.5778 154.511H125.984M125.984 154.511L120.681 164.711M35.2171 164.711H77.9489M35.2171 164.711H-7.51462M70.8814 175.586L77.9489 164.711M70.8814 175.586L63.3299 187.205M70.8814 175.586H115.027M77.9489 164.711H120.681M-7.51462 164.711H-50.2464M-7.51462 164.711L1.76579 154.511M120.681 164.711L115.027 175.586M1.76579 154.511H-39.6402M63.3299 187.205L55.2442 199.646M63.3299 187.205H108.986M115.027 175.586L108.986 187.205M108.986 187.205L102.517 199.646M7.97128 199.646L-2.44466 213.002M7.97128 199.646H55.2442M7.97128 199.646H-39.3016M55.2442 199.646L46.5641 213.002M55.2442 199.646H102.517M102.517 199.646L95.5728 213.002M-2.44466 213.002H46.5641M-2.44466 213.002H-51.4534M37.222 227.376L46.5641 213.002M37.222 227.376L27.1398 242.89M37.222 227.376H88.0992M46.5641 213.002H95.5728M-51.4534 213.002H-100.462M-51.4534 213.002L-39.3016 199.646M95.5728 213.002L88.0992 227.376M-39.3016 199.646H-86.5745M27.1398 242.89L16.2251 259.683M27.1398 242.89H80.0332M88.0992 227.376L80.0332 242.89M80.0332 242.89L71.3018 259.683M-38.8511 259.683L-53.0763 277.923M-38.8511 259.683H16.2251M-38.8511 259.683H-93.9278M16.2251 259.683L4.371 277.923M16.2251 259.683H71.3018M71.3018 259.683L61.8183 277.923M-53.0763 277.923H4.371M-53.0763 277.923H-110.524M-8.54959 297.804L4.371 277.923M-8.54959 297.804L-22.6876 319.557M-8.54959 297.804H51.4817M4.371 277.923H61.8183M-110.524 277.923H-167.971M-110.524 277.923L-93.9278 259.683M61.8183 277.923L51.4817 297.804M-93.9278 259.683H-149.004M-22.6876 319.557L-38.2227 343.461M-22.6876 319.557H40.1718M51.4817 297.804L40.1718 319.557M40.1718 319.557L27.743 343.461M-104.189 343.461L-124.771 369.852M-104.189 343.461H-38.2227M-104.189 343.461H-170.155M-38.2227 343.461L-55.374 369.852M-38.2227 343.461H27.743M27.743 343.461L14.022 369.852M-181.53 369.851L-124.771 369.852H-55.374M-55.374 369.852H14.022M-170.155 343.461L-181.53 355.963M-170.155 343.461H-181.53M54.2738 18.55L49.9766 21.856M54.2738 18.55H78.0071M54.2738 18.55H30.5405M81.7394 15.3594L85.3437 12.2785M81.7394 15.3594L78.0071 18.55M81.7394 15.3594H105.058M85.3437 12.2785H108.262M85.3437 12.2785L88.8261 9.30195M66.2944 9.30195H88.8261M66.2944 9.30195L67.7123 8.21143L70.0356 6.4239M66.2944 9.30195H43.7632M78.0071 18.55L74.1396 21.856M78.0071 18.55H101.74M105.058 15.3594L108.262 12.2785M105.058 15.3594L101.74 18.55M108.262 12.2785L110.593 10.0366L111.357 9.30195M88.8261 9.30195L89.253 8.9365L92.1928 6.4239M88.8261 9.30195H111.357M101.74 18.55L98.3027 21.856M133.889 9.30195L136.507 6.4239M133.889 9.30195H111.357M111.357 9.30195L112.491 8.21143L114.35 6.4239M49.9766 21.856H74.1396M49.9766 21.856H25.8135M70.1298 25.2838L74.1396 21.856M70.1298 25.2838L65.9691 28.8403M70.1298 25.2838H94.7384M74.1396 21.856H98.3027M25.8135 21.856H1.65045M25.8135 21.856L30.5405 18.55M98.3027 21.856L94.7384 25.2838M30.5405 18.55H6.80717M65.9691 28.8403L64.9041 29.7503L61.6488 32.533M65.9691 28.8403H91.04M94.7384 25.2838L91.04 28.8403M91.04 28.8403L87.1997 32.533M36.0979 32.533L35.4852 33.0049L31.1107 36.3702M36.0979 32.533H61.6488M36.0979 32.533H10.5469M61.6488 32.533L57.1604 36.3702M61.6488 32.533H87.1997M87.1997 32.533L86.7098 33.0049L83.2101 36.3702M31.1107 36.3702H57.1604M31.1107 36.3702H5.061M52.4931 40.36L57.1604 36.3702M52.4931 40.36L47.636 44.5118M52.4931 40.36H79.0613M57.1604 36.3702H83.2101M5.061 36.3702H-20.9887M5.061 36.3702L10.5469 32.533M83.2101 36.3702L79.0613 40.36M10.5469 32.533H-15.004M47.636 44.5118L42.5774 48.8358M47.636 44.5118H74.7439M79.0613 40.36L74.7439 44.5118M74.7439 44.5118L70.2476 48.8358M14.9077 48.8358L9.04916 53.343M14.9077 48.8358H42.5774M14.9077 48.8358H-12.7625M42.5774 48.8358L37.3049 53.343M42.5774 48.8358H70.2476M70.2476 48.8358L65.5605 53.343M9.04916 53.343H37.3049M9.04916 53.343H-19.207M31.8041 58.0452L37.3049 53.343M31.8041 58.0452L26.06 62.9549M31.8041 58.0452H60.671M37.3049 53.343H65.5605M-19.207 53.343H-47.4627M-19.207 53.343L-12.7625 48.8358M65.5605 53.343L60.671 58.0452M-12.7625 48.8358H-40.4327M26.06 62.9549L20.0565 68.0871M26.06 62.9549H55.5655M60.671 58.0452L55.5655 62.9549M55.5655 62.9549L50.2289 68.0871M-10.1159 68.0871L-17.0952 73.4566M-10.1159 68.0871H20.0565M-10.1159 68.0871H-40.2883M20.0565 68.0871L13.7751 73.4566M20.0565 68.0871H50.2289M50.2289 68.0871L44.6454 73.4566M-17.0952 73.4566H13.7751M-17.0952 73.4566H-47.9655M7.19603 79.0803L13.7751 73.4566M7.19603 79.0803L0.29808 84.9767M7.19603 79.0803H38.7972M13.7751 73.4566H44.6454M-47.9655 73.4566H-78.8357M-47.9655 73.4566L-40.2883 68.0871M44.6454 73.4566L38.7972 79.0803M-40.2883 68.0871H-70.4607M0.29808 84.9767L-6.9429 91.1667M0.29808 84.9767H32.6656M38.7972 79.0803L32.6656 84.9767M32.6656 84.9767L26.2295 91.1667M-40.1153 91.1667L-48.5707 97.6717M-40.1153 91.1667H-6.9429M-40.1153 91.1667H-73.2872M-6.9429 91.1667L-14.553 97.6717M-6.9429 91.1667H26.2295M26.2295 91.1667L19.4651 97.6717M-48.5707 97.6717H-14.553M-48.5707 97.6717H-82.5888M-22.5614 104.517L-14.553 97.6717M-22.5614 104.517L-30.9995 111.73M-22.5614 104.517H12.3463M-14.553 97.6717H19.4651M-82.5888 97.6717H-116.606M-82.5888 97.6717L-73.2872 91.1667M19.4651 97.6717L12.3463 104.517M-73.2872 91.1667H-106.46M-30.9995 111.73L-39.9039 119.342M-30.9995 111.73H4.84561M12.3463 104.517L4.84561 111.73M4.84561 111.73L-3.06909 119.342M-76.7386 119.342L-87.1935 127.385M-76.7386 119.342H-39.9039M-76.7386 119.342H-113.573M-39.9039 119.342L-49.3134 127.385M-39.9039 119.342H-3.06909M-3.06909 119.342L-11.4333 127.385M-87.1935 127.385H-49.3134M-87.1935 127.385H-125.074M-59.273 135.899L-49.3134 127.385M-59.273 135.899L-69.8318 144.925M-59.273 135.899H-20.2864M-49.3134 127.385H-11.4333M-125.074 127.385H-162.954M-125.074 127.385L-113.573 119.342M-11.4333 127.385L-20.2864 135.899M-113.573 119.342H-150.408M-69.8318 144.925L-81.0462 154.511M-69.8318 144.925H-29.6718M-20.2864 135.899L-29.6718 144.925M-29.6718 144.925L-39.6402 154.511M-122.452 154.511L-135.71 164.711M-122.452 154.511H-81.0462M-122.452 154.511H-163.858M-81.0462 154.511L-92.9781 164.711M-81.0462 154.511H-39.6402M-39.6402 154.511L-50.2464 164.711M-135.71 164.711H-92.9781M-135.71 164.711H-178.442M-105.7 175.586L-92.9781 164.711M-105.7 175.586L-119.292 187.205M-105.7 175.586H-61.5549M-92.9781 164.711H-50.2464M-178.442 164.711L-163.858 154.511M-178.442 164.711H-181.53M-178.442 164.711L-181.53 166.871M-50.2464 164.711L-61.5549 175.586M-163.858 154.511H-181.53M-119.292 187.205L-133.847 199.646M-119.292 187.205H-73.6366M-61.5549 175.586L-73.6366 187.205M-73.6366 187.205L-86.5745 199.646M-181.12 199.646H-133.847M-181.12 199.646H-181.53M-181.12 199.646L-181.53 199.962M-133.847 199.646L-149.471 213.002M-133.847 199.646H-86.5745M-86.5745 199.646L-100.462 213.002M-166.286 227.376L-149.471 213.002M-166.286 227.376H-115.409M-166.286 227.376H-181.53M-166.286 227.376L-181.53 240.407M-149.471 213.002H-100.462M-149.471 213.002H-181.53M-100.462 213.002L-115.409 227.376M-115.409 227.376L-131.541 242.89M-131.541 242.89L-149.004 259.683M-131.541 242.89H-181.53M-149.004 259.683L-167.971 277.923M-149.004 259.683H-181.53M-167.971 277.923H-181.53M-167.971 277.923L-181.53 290.963M-40.6599 18.55L-46.6757 21.856M-40.6599 18.55H-16.9261M-40.6599 18.55H-64.3932M-11.5353 15.3594L-6.3293 12.2785M-11.5353 15.3594L-16.9261 18.55M-11.5353 15.3594H11.7835M-6.3293 12.2785H16.5888M-6.3293 12.2785L-1.29926 9.30195M-23.8305 9.30195H-1.29926M-23.8305 9.30195L-18.5934 6.4239M-23.8305 9.30195H-46.3617M-16.9261 18.55L-22.5126 21.856M-16.9261 18.55H6.80717M11.7835 15.3594L16.5888 12.2785M11.7835 15.3594L6.80717 18.55M16.5888 12.2785L21.232 9.30195M-1.29926 9.30195L-0.682693 8.9365L3.56372 6.4239M-1.29926 9.30195H21.232M6.80717 18.55L1.65045 21.856M43.7632 9.30195L47.878 6.4239M43.7632 9.30195H21.232M21.232 9.30195L21.8012 8.9365L25.7209 6.4239M-46.6757 21.856H-22.5126M-46.6757 21.856H-70.8387M-28.3051 25.2838L-22.5126 21.856M-28.3051 25.2838L-34.3149 28.8403M-28.3051 25.2838H-3.696M-22.5126 21.856H1.65045M-70.8387 21.856H-95.0018M-70.8387 21.856L-64.3932 18.55M1.65045 21.856L-3.696 25.2838M-64.3932 18.55H-88.1265M-34.3149 28.8403L-40.5549 32.533M-34.3149 28.8403H-9.24403M-3.696 25.2838L-4.3786 25.7208L-9.24403 28.8403M-9.24403 28.8403L-15.004 32.533M-66.1059 32.533L-73.0881 36.3702M-66.1059 32.533H-40.5549M-66.1059 32.533H-91.6568M-40.5549 32.533L-47.0384 36.3702M-40.5549 32.533H-15.004M-15.004 32.533L-20.9887 36.3702M-73.0881 36.3702H-47.0384M-73.0881 36.3702H-99.1378M-53.7801 40.36L-47.0384 36.3702M-53.7801 40.36L-60.7959 44.5118M-53.7801 40.36H-27.2119M-47.0384 36.3702H-20.9887M-99.1378 36.3702H-125.187M-99.1378 36.3702L-91.6568 32.533M-20.9887 36.3702L-27.2119 40.36M-91.6568 32.533H-117.208M-60.7959 44.5118L-68.1024 48.8358M-60.7959 44.5118H-33.688M-27.2119 40.36L-33.688 44.5118M-33.688 44.5118L-40.4327 48.8358M-95.7726 48.8358L-103.975 53.343M-95.7726 48.8358H-68.1024M-95.7726 48.8358H-123.443M-68.1024 48.8358L-75.7185 53.343M-68.1024 48.8358H-40.4327M-40.4327 48.8358L-47.4627 53.343M-103.975 53.343H-75.7185M-103.975 53.343H-132.23M-83.6642 58.0452L-75.7185 53.343M-83.6642 58.0452L-91.9609 62.9549M-83.6642 58.0452H-54.7969M-75.7185 53.343H-47.4627M-132.23 53.343H-160.486M-132.23 53.343L-123.443 48.8358M-47.4627 53.343L-54.7969 58.0452M-123.443 48.8358H-151.113M-91.9609 62.9549L-100.633 68.0871M-91.9609 62.9549H-62.4558M-54.7969 58.0452L-62.4558 62.9549M-62.4558 62.9549L-70.4607 68.0871M-130.806 68.0871L-140.576 73.4566M-130.806 68.0871H-100.633M-130.806 68.0871H-160.977M-100.633 68.0871L-109.706 73.4566M-100.633 68.0871H-70.4607M-70.4607 68.0871L-78.8357 73.4566M-140.576 73.4566H-109.706M-119.209 79.0803L-109.706 73.4566M-119.209 79.0803L-129.173 84.9767M-119.209 79.0803H-87.6075M-109.706 73.4566H-78.8357M-78.8357 73.4566L-87.6075 79.0803M-160.977 68.0871H-181.53M-129.173 84.9767L-139.632 91.1667M-129.173 84.9767H-96.8051M-87.6075 79.0803L-96.8051 84.9767M-96.8051 84.9767L-106.46 91.1667M-172.804 91.1667H-139.632M-172.804 91.1667H-181.53M-172.804 91.1667L-181.53 95.9616M-139.632 91.1667L-150.625 97.6717M-139.632 91.1667H-106.46M-106.46 91.1667L-116.606 97.6717M-162.192 104.517L-150.625 97.6717M-162.192 104.517L-174.381 111.73M-162.192 104.517H-127.284M-162.192 104.517H-181.53M-150.625 97.6717H-116.606M-150.625 97.6717H-181.53M-116.606 97.6717L-127.284 104.517M-181.626 96.0144L-181.53 95.9616M-174.381 111.73H-138.535M-174.381 111.73H-181.53M-174.381 111.73L-181.53 115.962M-127.284 104.517L-138.535 111.73M-138.535 111.73L-150.408 119.342M-150.408 119.342L-162.954 127.385M-150.408 119.342H-181.53M-176.233 135.899L-162.954 127.385M-176.233 135.899H-181.53M-176.233 135.899L-181.53 139.295M-162.954 127.385H-181.53M-135.593 18.55L-143.328 21.856M-135.593 18.55H-111.86M-135.593 18.55H-159.327M-104.81 15.3594L-98.0023 12.2785M-104.81 15.3594L-111.86 18.55M-104.81 15.3594H-81.4912M-98.0023 12.2785H-75.0841M-98.0023 12.2785L-91.4247 9.30195M-113.956 9.30195H-91.4247M-113.956 9.30195L-107.223 6.4239M-113.956 9.30195H-136.487M-111.86 18.55L-119.165 21.856M-111.86 18.55H-88.1265M-81.4912 15.3594L-75.0841 12.2785M-81.4912 15.3594L-88.1265 18.55M-75.0841 12.2785L-68.8934 9.30195M-91.4247 9.30195H-68.8934M-91.4247 9.30195L-85.0649 6.4239M-88.1265 18.55L-95.0018 21.856M-46.3617 9.30195L-40.7506 6.4239M-46.3617 9.30195H-68.8934M-68.8934 9.30195L-62.9077 6.4239M-143.328 21.856H-119.165M-143.328 21.856H-167.491M-126.739 25.2838L-119.165 21.856M-126.739 25.2838L-134.599 28.8403M-126.739 25.2838H-102.131M-119.165 21.856H-95.0018M-167.491 21.856L-159.327 18.55M-167.491 21.856H-181.53M-95.0018 21.856L-102.131 25.2838M-159.327 18.55H-181.53M-134.599 28.8403L-142.759 32.533M-134.599 28.8403H-109.528M-102.131 25.2838L-109.528 28.8403M-109.528 28.8403L-117.208 32.533M-168.31 32.533L-177.287 36.3702M-168.31 32.533H-142.759M-168.31 32.533H-181.53M-142.759 32.533L-151.237 36.3702M-142.759 32.533H-117.208M-117.208 32.533L-125.187 36.3702M-160.053 40.36L-151.237 36.3702M-160.053 40.36L-169.228 44.5118M-160.053 40.36H-133.485M-160.053 40.36H-181.53M-151.237 36.3702H-177.287M-151.237 36.3702H-125.187M-177.287 36.3702L-181.53 38.1837M-177.287 36.3702H-181.53M-125.187 36.3702L-133.485 40.36M-169.228 44.5118L-178.783 48.8358M-169.228 44.5118H-142.12M-169.228 44.5118H-181.53M-133.485 40.36L-142.12 44.5118M-142.12 44.5118L-151.113 48.8358M-178.783 48.8358H-151.113M-178.783 48.8358L-181.53 50.079M-178.783 48.8358H-181.53M-151.113 48.8358L-160.486 53.343M-170.265 58.0452L-160.486 53.343M-170.265 58.0452L-180.477 62.9549M-170.265 58.0452H-181.53M-160.486 53.343H-181.53M-181.678 53.343H-181.53M-180.477 62.9549H-181.53M-180.477 62.9549L-181.53 63.4616M-181.785 63.5841L-181.53 63.4616M-174.766 15.3594L-166.757 12.2785M-174.766 15.3594H-181.53M-174.766 15.3594L-181.53 17.9613M-166.757 12.2785L-159.018 9.30195M-166.757 12.2785H-181.53M-136.487 9.30195L-129.38 6.4239M-136.487 9.30195H-159.018M-159.018 9.30195L-151.537 6.4239M-159.018 9.30195H-181.53M601.809 6.4239H623.966M601.809 6.4239H579.652M618.538 3.64011L619.878 4.32758L623.966 6.4239M618.538 3.64011H640.334M623.966 6.4239H646.123M640.334 3.64011L641.763 4.32758L642.482 4.67291L646.123 6.4239M646.123 6.4239H668.28M668.28 6.4239H690.438M579.652 6.4239H557.494M690.438 6.4239H712.595M712.595 6.4239L705.719 3.64011M712.595 6.4239H734.752M705.719 3.64011H727.515M513.18 6.4239H535.337M513.18 6.4239H491.023M531.357 3.64011L532.339 4.32758L532.834 4.67291L535.337 6.4239M531.357 3.64011H553.152M535.337 6.4239H557.494M553.152 3.64011L557.494 6.4239M491.023 6.4239H468.865M424.551 6.4239H446.708M424.551 6.4239H402.394M444.175 3.64011L444.487 3.98278L444.8 4.32758L445.115 4.67291L446.708 6.4239M444.175 3.64011H465.97M446.708 6.4239H468.865M465.97 3.64011L468.865 6.4239M402.394 6.4239H380.236M335.922 6.4239H358.079M335.922 6.4239H313.765M356.994 3.64011L358.079 6.4239M356.994 3.64011H378.789M358.079 6.4239H380.236M378.789 3.64011L378.968 3.98278L379.147 4.32758L379.326 4.67291L380.236 6.4239M313.765 6.4239H291.608M247.293 6.4239H269.451M247.293 6.4239H225.136M269.812 3.64011L269.451 6.4239M269.812 3.64011H291.608M269.451 6.4239H291.608M291.608 3.64011V6.4239M225.136 6.4239H202.979M158.664 6.4239H180.821M158.664 6.4239H136.507M182.631 3.64011L182.184 4.32758L181.279 5.71895L180.821 6.4239M182.631 3.64011H204.426M180.821 6.4239H202.979M204.426 3.64011L204.248 3.98278L204.069 4.32758L203.889 4.67291L202.979 6.4239M136.507 6.4239H114.35M70.0356 6.4239H92.1928M70.0356 6.4239H47.878M95.4496 3.64011L94.6453 4.32758L94.2406 4.67291L92.1928 6.4239M95.4496 3.64011H117.245M92.1928 6.4239H114.35M117.245 3.64011L116.888 3.98278L114.35 6.4239M47.878 6.4239H25.7209M-18.5934 6.4239H3.56372M-18.5934 6.4239H-40.7506M8.26797 3.64011L7.10632 4.32758L6.5218 4.67291L3.56372 6.4239M8.26797 3.64011H30.0634M3.56372 6.4239H25.7209M30.0634 3.64011L29.5282 3.98278L25.7209 6.4239M-40.7506 6.4239H-62.9077M-107.223 6.4239H-85.0649M-107.223 6.4239H-129.38M-78.9136 3.64011L-85.0649 6.4239M-78.9136 3.64011H-57.1182M-85.0649 6.4239H-62.9077M-57.1182 3.64011L-58.5475 4.32758L-59.267 4.67291L-62.9077 6.4239M-129.38 6.4239H-151.537M-166.095 3.64011L-173.694 6.4239M-166.095 3.64011H-144.299M-166.095 3.64011H-181.53M-173.694 6.4239H-151.537M-173.694 6.4239L-181.53 9.29491M-173.694 6.4239H-181.53M-144.299 3.64011L-146.086 4.32758L-151.537 6.4239M727.515 3.64011L729.302 4.32758L734.752 6.4239M734.752 6.4239H756.909M756.909 6.4239L764.746 9.29492M756.909 6.4239H764.746M764.746 139.295V135.899M764.746 139.295V144.925M764.746 135.899V127.385M764.746 144.925V146.607V154.511M764.746 154.511V164.711M764.746 73.4566V68.0871M764.746 73.4566V78.6283M764.746 3.64011V6.4239M764.746 6.4239V9.29492M764.746 9.29492L764.765 9.30195H764.746M764.746 9.29492V9.30195M764.746 9.30195V12.2785M764.746 12.2785V15.3594M764.746 15.3594V17.9613M764.746 17.9613V18.55M764.746 18.55V21.856M764.746 21.856V25.2838M764.746 25.2838V27.5401M764.746 27.5401V28.8403M764.746 28.8403V32.533M764.746 32.533V36.3702M764.746 36.3702V38.1837M764.746 38.1837V40.36M764.746 40.36V44.5118M764.746 44.5118V48.8358M764.746 48.8358V50.079M764.746 50.079V53.343M764.746 53.343V58.0452M764.746 58.0452V62.9549M764.746 62.9549V63.4616M764.746 63.4616V68.0871M764.746 79.0803V84.9767M764.746 79.0803V78.6283M764.746 84.9767V91.1667M764.746 91.1667V95.9616M764.746 95.9616V97.6717M764.746 97.6717V104.517M764.746 104.517V111.73M764.746 111.73V115.962M764.746 115.962V119.342M764.746 119.342V127.385M764.746 164.711V166.871M764.746 166.871V175.586M764.746 175.586V187.205M764.746 187.205V199.646M764.746 199.646V199.962M764.746 199.962V213.002M764.746 213.002V227.376M764.746 227.376V240.407M764.746 240.407V242.89M764.746 242.89V259.683M764.746 259.683V277.923M764.746 277.923V290.963M764.746 290.963V297.804M764.746 297.804V319.557M764.746 319.557V343.461M764.746 343.461V355.963M764.746 355.963V369.851M764.746 369.851V369.945H-181.53V369.851M-181.53 79.0803V84.9767M-181.53 79.0803V78.6283M-181.53 78.6283V73.4566M-181.53 73.4566V68.0871M-181.53 68.0871V63.4616M-181.53 63.4616V62.9549M-181.53 62.9549V58.0452M-181.53 58.0452V53.343M-181.53 53.343V50.079M-181.53 50.079V48.8358M-181.53 48.8358V44.5118M-181.53 44.5118V40.36M-181.53 40.36V38.1837M-181.53 38.1837V36.3702M-181.53 36.3702V32.533M-181.53 32.533V28.8403M-181.53 28.8403V27.5401M-181.53 27.5401V25.2838M-181.53 25.2838V21.856M-181.53 21.856V18.55M-181.53 18.55V17.9613M-181.53 17.9613V15.3594M-181.53 15.3594V12.2785M-181.53 12.2785V9.30195M-181.53 9.30195H-181.55L-181.53 9.29491M-181.53 9.30195V9.29491M-181.53 9.29491V6.4239M-181.53 6.4239V3.64011M-181.53 369.851V355.963M-181.53 355.963V343.461M-181.53 343.461V319.557M-181.53 319.557V297.804M-181.53 297.804V290.963M-181.53 290.963V277.923M-181.53 277.923V259.683M-181.53 259.683V242.89M-181.53 242.89V240.407M-181.53 240.407V227.376M-181.53 227.376V213.002M-181.53 213.002V199.962M-181.53 199.962V199.646M-181.53 199.646V187.205M-181.53 187.205V175.586M-181.53 175.586V166.871M-181.53 166.871V164.711M-181.53 164.711V154.511M-181.53 154.511V144.925M-181.53 144.925V139.295M-181.53 139.295V135.899M-181.53 135.899V127.385M-181.53 127.385V119.342M-181.53 119.342V115.962M-181.53 115.962V111.73M-181.53 111.73V104.517M-181.53 104.517V97.6717M-181.53 97.6717V95.9616M-181.53 95.9616V91.1667M-181.53 91.1667V84.9767" stroke="url(#paint0_radial_39_5182)" stroke-opacity="0.3" stroke-width="1.8895" stroke-miterlimit="10" stroke-linecap="round" stroke-linejoin="round"/>
<defs>
<radialGradient id="paint0_radial_39_5182" cx="0" cy="0" r="1" gradientUnits="userSpaceOnUse" gradientTransform="translate(291.608 356.345) rotate(-90) scale(577.621 1482.07)">
<stop stop-color="#C45037"/>
<stop offset="0.489074" stop-color="#CED2DF" stop-opacity="0"/>
</radialGradient>
</defs>
</svg>
